<svg class="img-fluid" xmlns="http://www.w3.org/2000/svg" style="transform:none;transform-origin:50% 50% 0;cursor:move" width="400" height="400" viewBox="0 0 4000 4000"><path d="M1825 1810c-11-4-31-19-44-33-20-22-23-33-19-77 3-29 13-59 24-71 43-48 164-80 164-44 0 11 12 15 44 15 45 0 45 0 51 55 9 69 1 115-26 143-17 19-30 22-97 21-42 0-86-4-97-9z" fill="#1B1B1C" style="transform:none"/><g fill="#333434" style="transform:none"><path d="M250 2271c0-34 121-84 164-68 28 11 18 42-16 55-51 18-148 27-148 13zM325 1987c-27-4-55-13-62-19-28-23-10-142 29-202 25-38 94-90 108-81 5 3 10 26 10 49 0 43 1 43 42 52 31 7 44 15 46 29 3 11 10 24 18 28s14 23 14 42c0 27 4 34 23 37 13 2 23 11 25 24 3 19-4 22-50 28-29 4-75 10-103 14-27 4-72 4-100-1zM1690 1920c0-5-14-10-31-10-22 0-32-5-36-20-4-16-14-20-44-20-22 0-47-4-57-9-9-5-32-15-50-22-33-12-33-12-26-108 4-53 8-97 9-98 1-2 31-4 66-5 35-2 69-8 75-14 7-5 24-35 38-66 20-43 35-60 64-73 20-10 39-21 42-25s53-14 112-24c125-19 218-13 218 13 0 9 9 27 20 41s20 40 20 58c0 32 0 32-53 32-40 0-60-5-77-20-49-43-240-7-240 46 0 7-11 25-25 40-29 32-29 25-6 94 16 47 25 58 60 75 37 18 41 24 41 58 0 27-4 37-15 37-9 0-18 7-21 15-7 17-84 22-84 5zM794 1881c-12-13-30-21-51-21-32 0-33-1-33-44s0-43 60-50c76-9 150 1 150 20 0 9 11 14 30 14 28 0 30 2 30 39 0 45-3 47-98 56-64 7-72 5-88-14z"/></g><g fill="#40403F" style="transform:none"><path d="M234 2323c15-64 25-78 59-80 47-3 107-24 100-36-9-14 48 1 68 19 8 7 30 19 47 25 36 12 46 49 13 49-11 0-21 3-23 8-1 4-18 15-36 25-26 13-58 17-134 17-100 0-100 0-94-27zM1106 2031c-9-13-104-56-173-77-41-12-66-26-74-41-17-31-5-53 30-53s61-9 61-21c0-5-12-9-27-9-25-1-26-2-10-11 10-6 37-8 60-5 196 27 213 34 221 94 3 25 6 64 6 88 0 44 0 44-44 44-25 0-47-4-50-9zM1810 1996c-19-14-43-25-52-25-38-2-48-13-48-55 0-31 3-37 10-26 9 13 12 13 21-2 5-10 17-18 24-18 21 0 19-17-2-24-10-3 11-3 46-1 49 4 67 10 78 25 8 11 23 20 34 20 35 0 108-39 131-70 12-17 27-30 34-30 6 0 15-21 19-46 5-35 3-50-9-63-9-10-16-23-16-29s-13-27-30-45c-16-19-30-43-30-54 0-16 5-19 32-15 30 5 32 3 19-12-12-14-10-16 18-16 17 0 31-4 31-10 0-13 69-13 109 1 25 9 31 16 31 40 0 16 5 29 10 29 6 0 10 12 10 26 0 51 24 159 37 167 19 12 17 77-2 77-8 0-15 6-15 13 0 20-33 47-57 47-11 0-26 7-33 15s-18 15-24 15c-19 0-99 40-121 61-16 15-42 20-120 24-95 5-102 4-135-19zM556 1965c-15-8-41-15-57-15-25 0-29-4-29-29 0-20 6-31 18-34 13-3 9-8-15-18-35-14-44-29-17-29 8 0 12-5 9-11-4-6-13-8-21-5-7 3-16 1-19-4-4-6-15-10-26-10-16 0-19-7-19-45 0-32-5-47-15-52-21-7 63-65 137-94 29-11 78-35 108-54 63-37 233-125 244-125 12 0 197-84 451-205 91-44 413-181 445-191 14-4 79-29 145-56s155-63 198-79c79-29 79-29 97-7 41 49 11 128-48 128-17 0-32-4-34-9-1-6-38-13-80-17-76-7-76-7-71 52 7 75-5 87-77 82-48-3-52-1-57 22-2 14-16 31-31 38-34 16-89 16-96 0-6-16-36 18-36 41 0 10-20 24-48 35-26 11-53 26-60 33-18 18-92 17-92 0 0-9-10-12-30-9-26 4-30 9-30 34 0 52-26 68-109 66-59-1-75 2-83 15-5 10-15 17-23 17-7 0-17 9-20 20-8 25-65 27-120 4-30-12-44-13-62-5-13 6-38 11-56 11-32 0-32 0-29 50 4 48 3 51-27 61-17 6-31 15-31 20s-11 9-25 9c-19 0-25 5-25 21 0 31-16 55-47 68-31 12-73 67-73 94 0 9-6 17-14 17-9 0-16 18-20 53-16 138-20 143-80 112zM2266 935c-6-29-11-35-31-35-17 0-25-6-25-18 0-14 23-25 99-50 54-17 106-34 115-38 29-11 19 41-14 74-22 23-30 40-30 66 0 36 0 36-54 36s-54 0-60-35zM2976 715c-14-25-26-35-43-35-16 0-23-6-23-19 0-15 15-24 68-40 37-11 157-57 267-101 277-112 350-140 425-161 36-10 119-34 185-54 65-19 125-35 132-35 10 0 13 28 13 118 0 117 0 117-31 131-23 10-57 12-137 7-88-6-111-4-127 8-11 8-28 16-37 16-10 0-18 5-18 10 0 6-17 10-39 10-68 0-101 10-101 32 0 19-5 20-70 16-69-4-70-3-83 24-6 15-18 28-24 28-7 0-13 5-13 11 0 22-30 39-68 39s-40-1-46-40c-3-22-9-40-12-40-4 0-21 16-40 35-18 19-37 35-43 35s-11 4-11 8c0 13-47 32-78 32-21 0-32-8-46-35z"/></g><path d="M1863 1904c-13-13-32-24-43-24-10 0-25-6-32-12-7-7-30-22-51-33-32-17-42-30-58-75-26-78-25-121 6-154 14-15 25-33 25-41 0-27 46-45 129-52 75-6 81-5 81 13 1 18 1 18 11 1 11-19 62-23 82-7 7 5 27 22 46 37 18 15 40 42 47 59 8 18 18 36 24 39 7 4 10 35 9 73-2 76-6 92-23 92-7 0-22 13-34 30-26 35-101 72-156 76-30 2-44-3-63-22zm122-131c26-25 36-61 29-104-7-41-13-46-32-27-9 9-12 9-12 1 0-7-10-15-22-19-12-3-28-13-35-20-11-11-17-11-31 2-9 8-31 26-48 39-44 34-51 71-22 102 30 33 53 42 110 42 31 1 52-5 63-16z" fill="#5A4E2F" style="transform:none"/><g fill="#4B4B49" style="transform:none"><path d="M540 2357c-41-11-78-24-82-31-11-17-10-48 2-41 6 3 10 1 10-4 0-6 9-11 20-11s20-4 20-9 28-1 63 9c34 9 91 22 127 28 208 35 200 32 200 58 0 24 0 24-142 22-103-1-164-7-218-21zM1020 2102c-25-16-58-40-74-55-15-14-41-32-57-39s-29-15-29-18c0-9-52-13-165-14-110-1-110-1-109-36 1-19 7-48 13-63 14-36 14-58 0-55-6 2-14-3-16-9-3-8 4-13 16-13s21-5 21-11c0-15 41-48 60-49 12 0 13-2 1-9-23-15-5-55 34-74 19-9 35-20 36-24 0-5 2-17 4-28s-2-27-10-35c-8-9-12-25-8-38 6-25 23-30 23-6 0 8 5 12 11 9 6-4 13 2 16 14 6 25 7 26 33 3 11-9 26-17 33-17s11-11 9-25c-1-14-3-33-3-42 0-10-6-18-12-19-21-1 36-22 73-26 67-9 160-10 160-2 0 5 7 5 17 2 11-4 14-3 9 5-11 19 15 14 31-5 13-16 14-10 8 47-5 57-10 68-37 93-18 15-41 27-53 27-38 0-63 12-75 36-8 13-22 24-32 24s-18 5-18 10c0 6-16 10-35 10-34 0-35 1-35 39 0 41-13 51-72 51-20 0-26 4-22 14 3 8 13 17 22 19 10 3 2 5-15 6-43 1-45 28-2 29 18 0 40 10 51 22s26 19 34 16c9-3 14 1 14 14s10 20 33 25c33 7 132 59 155 82 7 7 18 13 23 13 12 0 12 63 0 76-5 5-11 19-13 32-3 23-3 23-48-6z"/><path d="M1153 2063c-13-8-23-24-23-34s-4-21-10-24c-5-3-10-11-10-17s8-4 18 5c30 27 47 22 28-8-15-22-15-25-1-25s14-3-1-25c-10-15-12-25-5-25 22 0 9-15-28-32-42-20-67-23-76-8-3 5-25-1-52-15-25-14-59-25-74-25-20 0-29-5-29-16 0-10-6-14-15-10-11 4-15-1-15-18 0-22 5-24 68-31 37-4 73-12 80-18 20-16 154-15 159 1 3 6 16 12 29 12 22 0 24 4 24 45 0 33 4 45 15 45 9 0 15 9 15 25 0 14 5 25 10 25 6 0 10 9 10 19s7 21 15 25c10 4 15 20 15 51 0 38-3 45-20 45-15 0-20 7-20 25 0 23-4 25-42 24-24 0-53-7-65-16zM2247 1876c-3-8 1-20 9-26 8-7 14-19 14-26 0-8 8-14 18-14 15-1 15-2 1-13s-27-50-32-99c-1-13-7-16-22-12-19 6-19 6-4-12 22-25 22-75 1-72-20 4-29-32-10-43 11-7 10-11-2-19-11-7-7-10 18-10 17 0 32 5 32 11 0 19 33 38 64 39 38 0 55 25 56 78 0 23 5 42 10 42 14 0 12 61-2 93-7 15-21 30-30 33s-20 15-24 27-12 25-18 29c-19 13-74 9-79-6zM2590 1840c0-16-39-50-45-40-4 6-26 10-51 10-44 0-44 0-44-38 0-32 4-39 30-50 23-11 30-20 30-42 0-28 15-40 49-40 11 0 23-14 31-36 13-33 17-35 50-31 102 15 120 28 120 90 0 31-7 45-31 68-17 16-35 29-40 29s-9 13-9 29c0 50-9 61-51 61-21 0-39-4-39-10zM1412 1807c-14-15-22-36-22-60 0-20-4-39-10-42-18-11-11-74 10-92 13-12 20-30 20-54 0-40 11-49 62-49 21 0 31 6 35 20 3 12 14 20 27 20 27 0 56 46 56 89 0 30-15 40-35 23-6-5-26-5-45-1-19 3-29 7-21 8 11 1 11 4 1 16-10 11-10 18-1 29s9 15-1 19-10 8 2 16c13 10 12 13-5 27-19 14-19 16-2 25 27 16 20 29-16 29-22 0-41-8-55-23zM2040 1555c-7-8-8-15-2-15 5 0 15 7 22 15s8 15 2 15c-5 0-15-7-22-15z"/><path d="M2284 1536c-10-27 1-100 21-129 13-21 25-27 52-27 51 0 66 21 61 81-6 62-23 80-82 86-37 5-47 2-52-11zM2060 1512c-14-16-24-36-22-44 2-12-2-15-18-11-17 4-19 2-13-13 12-34 36-43 111-44 72 0 72 0 72 28 0 15 3 44 7 65 6 37 5 38-21 31-16-4-26-2-26 5 0 6-15 11-33 11-23 0-40-8-57-28zM2623 1484c-35-37-46-94-19-94 8 0 16-7 20-15 7-21 96-21 96-1 0 8 5 16 11 18s13 32 16 66c6 62 6 62-43 62-43-1-53-5-81-36zM1340 1366c0-3 7-12 16-21 15-14 15-17-3-33-25-22-25-62 0-62 10 0 27 5 38 11 16 8 25 7 41-8 15-13 22-15 25-5 3 6 11 12 19 12s14 7 14 15c0 18 16 20 23 3 3-7 6 1 6 19 1 30-2 33-41 44-24 6-51 15-60 20-18 9-78 13-78 5zM1640 1271c0-10-9-21-20-24s-20-11-20-17c0-7 6-10 13-7 9 3 18-10 26-39 7-25 19-44 27-44s14 5 14 10c0 6 7 10 15 10s15-5 15-11 6-9 13-6c6 2 11 11 9 21-4 24 17 19 28-6 5-13 9-17 9-10 2 23 18 12 24-15 7-35 50-58 68-36 15 18 49 13 62-8 8-13 6-21-6-34-20-19-23-55-4-55 9 0 9-3-1-9-29-18 116-38 148-21 14 7 20 7 20 0 0-16 28-12 48 8 17 17 19 17 35-4 16-22 16-24-4-38-12-8-18-19-14-25 3-6 0-11-7-12-7 0 8-9 34-19 51-21 118-17 118 6 0 7 8 18 18 23 9 6 11 11 5 11-25 0-13 18 12 18 29 0 28 1 16-31-8-20-6-27 7-32 14-5 14-7 2-15s-12-10-2-10c19 0 65-37 52-42-6-2 31-16 82-32s174-54 273-86c99-31 182-53 183-48 2 4 14 8 26 8 16 0 29 11 41 34 17 30 21 33 42 23 13-5 23-14 23-19 0-4 5-8 10-8 16 0 70-58 80-86 6-15 17-24 31-24 12 0 20 3 16 6-3 4 0 13 8 21s18 32 21 54c4 21 11 39 16 39 15 0 39-28 36-42-2-7 4-12 12-11 17 3 46-50 31-55-12-4-3-32 10-32 5 0 8 5 7 12-2 8 11 11 41 9 28-2 41 1 37 8-4 6 4 9 23 8 23-2 29-6 28-22-1-14 4-20 18-21 11-1 27-2 35-3s21-15 29-32c7-16 16-28 19-25s12 0 20-7c13-10 15-9 9 6-4 10-7 21-7 23 0 3-4 2-10-1-17-10-11 12 7 26 13 11 17 11 20 2 3-7 12-13 22-13 9 0 27-9 39-20s26-20 32-20c7 0 9-8 5-20-3-11-2-20 3-20 6 0 13 12 18 28 5 20 8 23 11 10 5-22 33-24 33-3 0 8 5 15 10 15 6 0 10-4 10-10 0-14 38-12 42 2 6 17 81 21 93 5 6-7 22-12 38-12 27 0 27 1 27 67 0 67 0 67-35 74-39 7-126-11-137-29-8-13-38 9-38 28 0 20-58 45-102 45-32 0-41-4-45-20s-10-19-27-13c-11 3-39 9-61 12-40 6-40 6-37 59 3 42 1 52-12 52-9 0-16 5-16 10 0 6-9 10-19 10-30 0-51 11-51 26 0 8-4 14-9 14s-13 9-16 20c-5 16-15 20-49 20-24 0-58-3-75-6-29-6-31-9-31-50 0-61-38-55-54 9-3 15-13 27-22 27s-30 14-47 31c-31 31-31 31-108 25-77-7-77-7-84 23-4 17-11 31-16 31s-14 11-19 25c-9 24-13 25-100 25-53 0-90-4-90-10s-17-1-37 10c-21 11-57 20-80 20-32 0-43 4-43 15 0 9-9 15-25 15-18 0-25 5-25 20 0 17-7 20-45 20-25 0-45-4-45-10 0-5-16-10-36-10-27 0-37-5-41-20-7-27-27-25-43 5-8 16-22 25-37 25-18 0-23 6-23 24 0 39-11 56-34 56-13 0-33 12-47 26-60 65-169 71-169 10 0-9-7-16-15-16-9 0-15-10-16-22 0-13-3-17-6-10-2 6-10 12-17 12-8 0-25 9-40 21-19 15-38 20-67 18-45-4-59 9-59 54 0 30-28 47-81 47-22 0-29-5-29-19zM2670 1272c0-6-12-12-27-14-24-3-28-8-31-40-4-47 50-127 86-128 12 0 22-4 22-10 0-5 42-9 101-9 102 1 102 1 95 61-6 64-31 105-76 127-35 16-170 27-170 13zM3593 1263c-8-3-13-24-13-52 0-41 4-50 25-61 14-7 25-19 25-27s12-13 30-13c17 0 30-4 30-10 0-5 15-10 34-10s38 5 41 10c3 6 15 10 26 10 15 0 19 7 19 36 0 50-21 67-122 101-10 3-18 9-18 14 0 9-56 11-77 2zM3171 1083c2-120 8-137 48-141 25-3 37 2 48 17 9 13 25 21 43 21 20 0 35 9 49 29 23 32 28 91 9 91-7 0-26 14-42 30-26 27-36 30-93 30-63 0-63 0-62-77z"/></g><g fill="#5E584A" style="transform:none"><path d="M1535 2590c-10-11-24-20-31-20s-33-20-58-45c-26-25-52-45-58-45s-18-8-27-18c-18-22-92-34-336-57-88-9-172-21-187-28-40-17-36-38 5-32 26 5 29 4 12-5-15-7 0-9 55-5 189 13 390 17 390 8 0-10-38-46-90-85-19-14-62-51-95-82s-63-56-67-56c-12 0-9-68 3-76 8-4 7-9-2-16-10-7-6-8 14-5 18 3 27 0 27-9 0-21 38-17 76 7 26 15 34 28 34 49s6 29 25 34c16 4 25 13 25 25 0 33 11 51 31 51 10 0 19 6 19 14s9 18 20 21 20 13 20 21 4 14 10 14c5 0 24 21 41 48 18 26 37 50 43 54 34 22 66 52 66 62 0 12 56 60 112 97 33 21 38 29 38 62 0 37 0 37-48 37-36 0-54-5-67-20zM405 2500c-10-11-38-30-62-42-51-26-113-90-112-116 1-9 5-28 9-42 8-25 8-25 10 0 2 18 4 20 7 8 6-22 22-23 29-3 8 19 108 14 145-6 13-7 27-12 32-11 4 1 7-3 7-8s4-10 10-10c5 0 9 3 9 8-3 20 3 32 17 32 11 0 14 5 10 16-3 9-6 20-6 25s-5 9-11 9-17 7-25 15c-9 8-34 15-57 15-39 1-41 2-22 15 42 29 55 49 55 82 0 38-18 43-45 13zM1740 2426c0-15-21-26-52-26-29 0-79-46-99-90-10-22-34-50-56-64-21-14-49-40-62-57-14-17-34-35-45-40-12-6-50-27-86-47-60-34-65-40-68-75-2-23 2-43 12-52 16-17 82-20 91-5 3 6 16 10 28 10s31 7 41 15c11 8 28 15 38 15s18 7 18 15c0 10 11 15 35 15 31 0 35 3 35 27 0 42 31 103 53 103 24 0 55 17 92 51 17 15 39 36 50 46 34 31 45 60 45 118 0 55 0 55-35 55-23 0-35-5-35-14zM2791 2126c-7-8-23-17-36-20-14-4-25-11-25-16 0-6-7-10-15-10-28 0-36-37-29-125 7-85 7-85 40-85 24 0 34 5 34 15 0 11 12 15 48 15 32 1 55 7 71 20 36 31 62 152 38 180-33 39-103 53-126 26zM3230 2110c0-11-7-20-15-20-11 0-15-12-15-48 0-39 5-54 29-80 25-27 37-32 74-32 41 0 45 2 50 29 4 21 13 30 29 33 20 3 23 10 26 51 3 47 3 47-38 47-33 0-43 4-47 20s-14 20-49 20c-37 0-44-3-44-20zM2210 1970c0-5-11-12-25-16-46-11-20-84 30-84 10 0 27-8 37-17 14-12 21-14 26-6 10 16 28 4 36-24 4-12 16-25 27-28 10-4 19-13 19-21 0-20 16-17 45 8 17 14 25 32 25 52 0 46-11 76-26 76-8 0-14 5-14 10 0 6-9 10-19 10-11 0-23 5-26 10-3 6-14 10-25 10-10 0-20 7-24 15-6 17-86 22-86 5zM3300 1867c0-7-9-20-20-30-23-20-28-88-7-109 7-7 16-21 20-30 7-19 56-31 108-26 34 3 34 3 33 57 0 33-5 56-12 59-7 2-12 8-12 13 0 6-9 19-20 31s-20 28-20 35c0 8-13 13-35 13s-35-5-35-13zM2677 1811c-26-44-21-71 18-107 29-26 35-37 29-58-6-24-4-26 25-26 30 0 78 23 93 45 25 34-26 154-64 155-10 0-18 5-18 10 0 6-15 10-33 10-25 0-36-6-50-29zM2496 1689c-14-73-8-93 34-119 22-14 40-33 40-42 0-30 71-24 94 7 10 14 25 25 33 25 10 0 13 10 11 33-2 22-8 31-18 29-8-2-23-4-32-5-10-1-18-6-18-12 0-5-6 1-13 15-12 22-11 26 7 33 20 8 20 9-4 27-31 24-50 25-50 4 0-11-5-14-16-10-9 3-18 6-20 6s-4 9-4 20c0 34-36 25-44-11zM3068 1478c-32-8-38-15-44-43-11-60-4-70 48-69 30 0 49-5 52-13 3-7 1-13-4-13-6 0-10-16-10-35 0-35 0-35 43-34 23 1 53 4 67 8 18 5 29 2 40-12 10-12 34-20 72-24 52-5 59-4 77 18 13 15 20 39 21 66 0 37-3 43-24 49-14 3-27 12-30 20-4 10-23 14-64 14-54 0-59-2-69-27-11-28-11-28-12 7-1 23-11 46-30 68-31 35-61 39-133 20z"/></g><g fill="#545859" style="transform:none"><path d="M1333 2176c-23-11-55-33-71-47-16-15-39-30-51-34-13-4-21-15-21-30 0-19 4-22 22-17 22 5 22 5 6-20-19-29-7-41 31-31 25 6 30-24 6-33-8-4-15-13-15-21s-7-21-15-29-12-21-9-29c4-9 0-15-10-15-9 0-16-7-16-15 0-23 85-20 109 4 10 10 30 21 45 25 14 3 26 13 26 20 0 8 8 16 18 19 18 4 32 43 32 89 0 17-3 18-15 8-8-7-21-10-29-7s-20-1-26-9c-14-16-35-19-25-4 3 6-1 10-10 10-31 0-9 25 47 55 79 42 98 62 98 102 0 32-1 33-42 32-24-1-62-11-85-23zM800 1975c-19-7-27-14-17-14 20-1 23-27 5-34-8-4-4-8 10-12 12-4 22-15 22-26s6-19 13-19c6 0 23-3 36-7 14-3 22-2 18 3-9 15 16 40 46 48 21 5 27 12 27 33 0 23-2 25-12 11-7-9-25-18-40-22-23-5-26-3-21 11 5 12 2 15-9 10-11-4-18 1-21 14-6 22-10 22-57 4zM1603 1911c-63-31-72-40-73-63 0-28 13-37 25-18 9 14 72 12 78-2 5-13 6-11 21 35 3 10 15 17 31 17 25 0 55 20 55 36 0 4 8 13 18 20 15 12 11 13-33 12-36-1-70-11-122-37zM2396 1846c3-9-3-20-15-28-23-14-28-47-9-66 9-9 10-15 2-20-18-12-23-60-7-66 37-14 70-6 84 22 17 34 34 52 48 52 6 0 11 5 11 10 0 6-7 10-15 10s-15 5-15 10c0 6 6 9 13 8 7-2 12 7 12 22 0 20-6 26-27 28-16 2-28 9-28 18s-11 14-30 14c-21 0-28-4-24-14zM549 1821c-8-2-17-9-21-15-6-8-11-6-18 4-8 13-10 12-10-2 0-20-11-23-26-8-12 12-44 3-44-12 0-5 13-23 28-39 27-29 29-29 57-15 37 20 53 20 88 2 26-14 27-14 21 10-4 14-2 24 5 24 6 0 11-8 11-17 0-21 40-81 59-88 20-8 26 2 11 20-12 14-10 16 15 15 3 0 18 6 34 14 28 15 71 12 71-5 0-5-9-9-20-9-23 0-27-15-5-24 8-3 14-9 14-13-1-4 1-16 5-25 9-20 36-25 36-7 0 8 5 8 15-1 12-10 15-10 15 1 0 8 5 6 13-6 8-10 18-15 24-12 5 4 16-4 23-17 13-25 37-36 77-36 12 0 36-12 53-27 26-21 31-31 26-55-3-16-1-28 4-28 6 0 16-11 22-25s17-25 25-25c7 0 16-7 19-15 4-8 17-15 30-15 14 0 24-6 24-15s6-12 16-8 17-1 21-16c6-24 23-18 23 9 0 24 39 38 54 19 14-18 72-50 78-43 8 7 88-27 88-38 0-5 5-6 10-3 6 3 10 2 10-2 0-5 16-15 35-22s35-17 35-23c0-5 7-8 15-4 8 3 15 2 15-3 0-4 11-6 25-3 20 3 24 9 20 23-5 16-3 18 16 10 27-9 37-31 15-31-25 0-7-28 25-39 17-6 29-17 29-28s3-14 8-7c11 16 54 11 82-8 13-10 30-18 37-18s20-10 29-23c17-22 19-22 36-5 10 10 18 25 18 33 0 9 9 15 21 15 16 0 20 5 17 18-7 25 16 44 35 29 8-7 17-19 20-27 4-11 6-10 6 5 1 16 7 13 40-19 24-23 44-35 51-31 19 12 30-16 14-33-26-26-12-47 28-45 32 2 38-2 49-27 7-16 17-26 22-23 4 3 22-1 38-7 33-14 37-13 42 18 3 22 17 43 17 26 0-6 16-10 35-10 29 0 34 3 29 18-3 12 0 18 10 18 9 0 16-9 16-20 0-15 7-20 25-20 16 0 25-6 25-15 0-10 11-15 38-16 20-1 41-1 45 0s10-6 14-15c4-10 8-12 13-5 4 8 16 2 35-15 16-15 31-22 33-16 1 5 12 8 22 5 14-4 20 0 20 11 0 9 6 15 13 14 7-2 13 9 15 24 2 16-1 28-7 28s-11 7-11 15-5 15-11 15-23 9-38 19c-15 11-40 23-57 27-16 4-41 15-56 25-14 11-39 19-55 19-33 0-53 16-53 42 0 15-9 18-55 18-55 0-69 12-44 37 7 7 8 33 4 76-7 66-7 66-54 69-43 3-46 5-51 33-9 54-21 64-85 70-53 6-58 5-42-8 21-17 23-39 2-31-8 4-15 1-15-5 0-16-15-14-68 10-35 16-52 19-72 12-30-11-211 14-222 31-13 21-20-4-14-49 7-45 7-45 52-45 24 0 44-4 44-10 0-28-107 2-158 45-28 24-60 37-139 55-57 13-103 29-103 35 0 14-31 30-87 46-24 7-43 18-43 26 0 7-4 13-10 13-19 0-10 38 10 43 19 5 21 12 18 69-3 63-3 63-83 66-43 2-85 8-93 14-10 9-14 6-19-10-3-13-14-22-27-23-36-2-71 3-81 11-5 4-39 11-75 15s-73 12-84 17c-12 7-22 6-28 0s-33-8-62-5c-36 3-57 0-71-10-17-13-22-13-42 0-13 9-23 21-23 29 0 12-67 16-101 5zm1404-449c-18-5-27 3-18 17 4 7 10 7 20-2 11-10 11-13-2-15zM3290 1116c0-12 35-46 48-46 9 0 7-9-8-30s-30-30-49-30c-26 0-51-16-51-32 0-4 6-8 14-8 9 0 12-8 8-25-4-23-9-25-53-25-28 0-49-5-49-11 0-12-43-1-48 12-2 5-13 9-25 9-23 1-87 52-87 70 0 5-7 10-15 10-9 0-18 7-21 15-4 10-19 15-43 15-40 0-61-14-61-41 0-9-7-19-15-23-17-6-21-56-5-56 6 0 10 9 10 21 0 11 4 18 9 15s7-15 4-26c-3-12-2-20 3-19 23 4 33-3 39-30 7-31 55-65 62-44 3 9 12 9 30 2 20-7 28-6 39 8 11 15 13 15 14 3 0-13 1-13 10 0 8 12 10 12 11-5 0-11 3-15 5-8 6 13 44-20 44-38 0-6 8-8 19-4 21 6 34-14 21-35-10-17-3-33 11-24 6 3 16-2 23-12 8-10 20-15 30-11 9 4 16 3 16-2 0-7 43-31 57-31 3 0 3 6 0 14-4 10 6 19 29 28 35 14 35 14 9 28-14 7-25 17-25 22 0 4-7 8-15 8-21 0-19 30 3 31 9 1 29 3 45 5 15 1 27-1 27-6s7-16 16-25c13-12 13-19 4-30-6-8-8-19-4-26 5-8 9-8 15 3 9 16 69 13 69-3 0-5 6-9 13-9 11 0 12-11 6-48-4-26-5-49-3-51s27-8 56-12c36-6 57-15 67-29 13-20 38-30 26-10-3 5 5 12 19 16 13 3 26 14 29 25 6 22 35 25 43 5 3-8 12-12 19-10 8 3 19-6 27-22 17-35 76-54 94-30 14 20 28 21 21 2-3-8 1-17 9-20 11-4 13 0 8 18-4 19-1 24 20 28 14 3 28 3 31 0s16-7 30-8c25-3 25-2 25 72 0 85-11 104-59 104-21 0-32-6-36-20-4-13-15-20-31-20-13 0-24-5-24-10 0-6-15-17-32-25-30-12-34-12-40 6-6 15-17 19-58 19-39 0-52 4-62 20-8 12-28 23-50 27-21 3-38 9-38 14s-16 9-35 9c-32 0-35 3-35 29 0 24 5 29 30 33 17 3 33 1 36-4 3-4 21-8 39-8 24 0 38 6 45 20 6 11 21 22 33 25 29 8 47 48 47 103 0 45 0 45-49 39-34-4-54-1-70 9-11 8-40 15-63 15-24-1-62 2-85 5-40 6-42 8-45 42-3 37-3 37-65 40-35 2-63 1-63-2z"/></g><g fill="#766747" style="transform:none"><path d="M2720 2494c0-5-11-14-25-20-19-9-27-9-36 2-13 16-139 20-139 5 0-5-13-11-30-14-25-6-30-11-30-37 0-16-5-30-10-30-6 0-15-12-21-27-7-16-13-23-16-15-3 6-20 12-39 12-34 0-34 0-34-62 0-35 5-80 10-100 10-34 14-37 58-43 26-3 53-7 61-8 16-2 28-21 35-59 6-24 11-27 71-33 36-4 68-11 71-16 7-12 81-11 89 1 4 6 11 8 16 5 5-4 9-2 9 4s11 13 25 17c13 3 30 12 36 20 10 13 14 12 30-2 11-10 19-13 19-9 0 5 6 0 14-10 8-11 12-23 10-27-3-5 6-8 20-8 16 0 26 6 26 15 0 7 6 18 14 22 22 13 46 99 46 168 0 90-3 95-60 95-53 0-60 9-60 86 0 23-6 46-12 52-17 13-148 27-148 16zM2640 1746c0-2 11-11 25-20 25-17 25-16 13 4-11 17-38 29-38 16zM2597 1705c-26-19-18-49 14-53 36-4 54 20 37 47-15 24-26 26-51 6zM1826 1624c-3-9 9-28 31-49 37-34 37-35 12-35-14 0-28 3-32 6-3 4-25 8-48 9-23 2-46 10-50 17-7 11-11 10-18-2-12-18 14-50 40-50 10 0 30-5 46-11 15-6 62-12 103-13 68-2 76 0 102 25 30 28 20 46-14 25-13-8-21-7-30 2s-8 12 8 13c11 0 5 5-16 12-35 11-35 11-7 15 32 4 38 37 7 47-24 8-40-1-40-21 0-16-11-18-25-6-6 5-22 13-37 20-21 9-27 8-32-4zM3030 1427c-38-19-38-66 0-122 17-24 39-49 50-55 24-13 80-13 80 0 0 5 10 18 22 30 16 14 19 23 11 31s-13 8-17 0c-4-6-15-11-24-11-14 0-13 2 2 13 16 12 17 18 7 50-16 48-35 63-64 50-30-14-42-11-39 10 4 20 4 20-28 4z"/></g><g fill="#696557" style="transform:none"><path d="M500 2443c0-11-50-33-72-33-26 0-24-47 2-55 11-3 20-11 20-16s7-9 15-9 15-7 15-15c0-12 5-13 27-4 19 7 29 7 31 0 6-17 32-13 32 5 0 8 5 12 10 9 21-13 40 17 40 61 0 37-3 44-20 44-11 0-20 5-20 10 0 6-18 10-40 10s-40-3-40-7zM1684 2251c-34-33-66-51-89-51-20 0-48-27-41-39 3-4-3-16-14-26-23-21-26-41-7-48 6-2 8-8 4-13-4-4-17-3-27 4-17 10-20 10-20-3 0-19 66-21 73-2 3 7 28 19 56 27 31 8 51 19 51 28 0 8 8 16 19 19 23 6 41 44 41 88 0 46-11 50-46 16zM2211 2240c-31-33-44-40-75-40-52 0-66-18-66-84 0-43-3-56-15-56-10 0-15-11-15-35 0-26-4-35-17-35-29 0 16-40 77-67 30-14 63-29 72-34 26-13 30-11 23 11-6 19 7 26 38 21 4 0 7 5 7 13 0 10 11 12 43 9 31-4 46-1 56 11 7 9 18 16 23 16s0-10-12-22c-24-26-27-60-5-52 8 4 15 1 15-5s6-11 14-11 17-14 21-30c4-17 11-28 16-24 5 3 9-6 9-20 0-28 9-33 28-14 9 9 16 7 32-7 11-10 20-15 20-11s18-6 39-23c39-31 39-31 46-1 4 17 13 34 21 37s14 11 14 19 4 14 9 14c13 0 23-36 16-59-4-13 2-23 19-35 32-21 35-20 29 4-3 11 4 34 16 52 13 21 21 27 21 16 0-10 6-15 18-12 18 4 73-71 66-90s-63-46-70-35c-3 6-15-3-25-21-21-35-18-50 12-50 27 0 28-65 1-72-14-4-19-14-18-40 3-68 38-82 131-52 74 24 80 28 83 60 1 16 8 39 14 51s8 39 4 61c-4 26-1 53 10 77 11 28 14 66 12 161-3 113-1 124 15 124 15 0 17 10 17 72 0 70-16 138-32 138-5 0-14-12-21-27-6-16-17-32-24-36s-13-15-13-22c0-8-4-15-8-15-5 0-9-6-10-12-7-87-45-129-109-121-38 4-44 2-53-18-8-19-10-14-7 28 2 29 0 54-6 56s-5 11 2 25c7 13 15 20 20 18 12-8 41 32 41 57 0 18-2 19-10 7-7-12-12-12-22-2-16 16-28 15-28-2 0-7-7-19-15-26-12-10-18-10-30 0-9 7-29 13-45 12-16 0-34 6-40 13-9 11-17 12-31 5-16-9-19-6-25 17-3 16-9 37-14 48s-11 31-14 45c-8 37-45 35-53-2-5-24-9-27-32-21-14 3-27 7-29 8-3 3-9 29-11 48-1 4-10 7-20 7-11 0-23 5-26 10-3 6-24 10-46 10-34 0-46-6-78-40zM1531 2214c-20-24-8-25 24-4 25 17 27 20 10 20-11-1-26-8-34-16zM3327 1896c-14-11-17-24-15-53 4-37 4-37 15-13 7 15 12 19 12 9 1-8 10-25 21-37s20-25 20-31c0-5 5-11 11-13s12-16 12-31c2-18 8-27 20-27 9 0 17 5 17 10 0 6 9 10 19 10 41 0 41 72 1 120-17 19-30 40-30 46 0 26-73 33-103 10z"/><path d="M2450 1765c0-9 8-18 18-22 9-3 29-15 45-25 26-19 27-19 27-1 0 12-15 27-41 41-49 26-49 26-49 7zM3540 1651c0-12-9-21-25-25-21-5-25-12-25-46 0-22 4-40 9-40 12 0 24-58 22-107-2-37 0-43 18-43 11 0 22-4 25-8 6-10 142-24 266-28 47-1 104-5 128-9 42-7 42-7 42 61 0 73-23 123-65 142-65 30-81 38-93 50-7 6-23 12-35 12-13 0-31 6-42 14-11 7-32 16-47 20-16 3-28 11-28 16 0 6-33 10-75 10-67 0-75-2-75-19z"/></g><g fill="#606466" style="transform:none"><path d="M1127 2070c3-11 9-17 14-14 14 8 10 34-5 34-9 0-12-7-9-20zM1053 2046c4-9-2-17-14-21-10-4-19-10-19-14 0-5-13-14-29-20-28-12-77-68-68-78 3-2 15 0 26 7 12 6 26 8 31 5 6-3 10-1 10 5s3 9 8 6c7-4 95 36 140 64 12 8 22 24 22 34 0 16-3 17-12 8-16-16-28-15-28 3 0 11-11 15-36 15-27 0-35-3-31-14zM1340 1945c0-18-7-26-26-31-15-4-35-15-45-25-11-11-29-19-41-19-43 0-68-12-68-31 0-11 4-19 9-19 10 0 24-31 16-38-2-3-11 1-19 7-11 9-16 9-22 0-9-15 34-52 53-45 7 3 13 1 13-4 0-6 7-10 16-10 8 0 12 5 9 11-5 7 6 9 31 7 34-3 39-6 42-30 2-16 8-28 14-28 7 0 8-27 3-80-6-69-5-80 8-80 9 0 20-7 25-16 6-11 11-13 16-5 8 13 46-7 46-26 0-6 19-14 43-18 23-4 53-12 67-18 14-5 40-12 59-14 20-2 49-17 69-34 36-32 55-34 139-13 20 6 22 3 16-30-4-24-2-36 6-36 6 0 11 5 11 11 0 8 4 8 14 0 17-14 49-3 42 15-7 19 2 18 21-2 9-8 24-13 34-11 11 3 21 1 24-3 7-12 69-4 73 10 2 5 11 10 19 10 9 0 23 9 32 19 30 34 69-17 51-65-13-33-10-37 25-28 23 6 26 10 20 33-4 14-10 28-14 31s-8 22-9 43c-2 46-8 57-32 57-10 0-21 6-23 13-3 7-6 5-6-5-1-12-9-18-25-18-13 0-26-7-30-15-7-19-40-19-59-1-10 11-36 13-105 10-84-4-92-3-92 14 0 22-35 62-54 62-7 0-24 10-37 23-14 12-31 22-39 22-10 0-16 12-18 35-2 27-9 38-29 48-39 18-50 15-70-18-9-16-22-29-28-29-28 3-46-2-43-13 3-13-3-18-24-18-9 0-9 3 0 12 18 18 15 31-17 67-25 27-27 35-18 55 6 13 17 21 24 19 17-7 16 7-2 31-14 18-13 22 12 48 27 28 27 28-3 29-23 1-25 3-6 6 12 2 22 9 22 14s18 12 40 15c39 6 40 7 40 49 0 50-6 53-112 56-38 1-68 6-68 11 0 4-4 8-10 8-5 0-10-11-10-25z"/><path d="M2450 1765c0-8-4-15-10-15-5 0-10-6-10-12 0-7-7-21-14-31-13-17-15-17-35 4-21 23-21 23-23-7 0-16-1-35 0-43 0-8-6-24-14-35s-14-16-14-10c0 32-82-14-94-53-4-12-17-25-29-29s-36-18-54-33c-33-26-33-26-8-39 14-7 25-17 25-23 0-7 10-9 23-5 26 6 58-31 38-43-7-5-6-14 5-29 12-17 25-22 60-22 31 0 44-4 44-14 0-8-7-16-16-18-13-2-12-6 5-25 19-20 19-23 4-31-9-6-14-16-10-25 3-9 1-18-6-21-9-3-9-5 1-5 6-1 12-10 12-21 0-21 2-22 68-22 32-1 42-5 42-17 0-25 21-41 53-41 16 0 43-10 60-22 16-12 41-23 54-24 14-2 39-14 58-28 18-14 35-22 39-19 3 4 6 1 6-6 0-22 31-45 63-46 16-1 35-9 42-18 16-23 25-21 25 3 0 18 3 19 20 10s20-8 20 13c0 14 7 31 16 38 13 11 17 10 25-4 6-9 17-17 25-17 11 0 13-6 9-21-5-15-4-19 4-14 6 3 27-7 46-24 20-18 41-28 50-25 8 4 15 2 15-4 0-10 18-16 83-27 20-4 27-1 27 10 0 8 5 15 10 15 6 0 10-4 10-10 0-5 7-10 15-10s15 5 15 10c0 6 9 10 20 10s20-5 20-11 7-3 17 6c14 14 14 18 2 26s-12 10 1 19c20 13 30 13 30-1 0-6 9-9 20-6 19 5 60-22 60-40 0-10 36-9 63 2 9 4 17 13 17 21 0 20-36 75-43 67-10-9-8 9 1 25 5 7 16 10 28 6 18-6 18-6-1 9-30 24-75 22-75-3 0-11 5-20 10-20 6 0 10-12 10-27 0-16-4-23-8-17-10 16-60 23-66 10-3-6-14 1-26 17-24 30-67 37-76 12-8-20-24-9-24 18 0 21 0 21-14 1-11-16-23-19-55-16-38 4-41 6-41 33 0 19-5 29-15 29-8 0-15 5-15 10 0 6-9 10-20 10s-20 7-20 15c0 11-11 15-41 15-33 0-42-4-46-20-8-30-33-6-33 31 0 27 2 29 43 29 37 0 45 4 60 29 21 36 22 94 2 111-9 7-37 15-63 17-44 4-48 3-59-23-18-39-16-91 2-98 8-3 15-13 15-21 0-12-6-15-21-10-18 6-19 5-10-13 14-26 14-35 0-27-15 10-62 14-74 7-23-15-55-12-55 4 0 12-6 15-22 11-18-4-30 3-56 39-32 43-35 71-6 60 16-6 44 19 44 40 0 9 11 14 35 14 35 0 35 0 35 49 0 31 5 53 15 61 8 7 15 23 15 35s-7 28-15 35c-12 10-15 9-15-5 0-17-1-17-20 0-18 17-19 41 0 30 5-3 11-1 15 5s-8 10-30 10c-20 0-34-4-31-9s3-23 0-41c-6-28-10-31-33-25-25 6-25 6-7-14 17-19 17-21 2-21-9 0-19 7-22 15-4 8-14 15-23 15-14 1-14 2 2 11 30 18 18 27-28 21-30-3-45-1-45 7 0 6-13 11-30 11-27 0-30 3-30 30 0 17-4 30-10 30-5 0-10 14-10 30 0 17 5 30 10 30 6 0 10 9 10 20s5 20 10 20c6 0 10 15 10 34s-4 38-10 41c-5 3-10 16-10 27s-8 27-17 34c-24 18-33 17-33-1zm-83-267c20-16 25-58 8-74-19-19-28-13-50 32-26 55-5 77 42 42zM3930 1643c-14-3-34-13-45-23s-30-21-43-25c-16-5-22-13-20-28 2-12 8-22 13-23 12-1 41-12 70-25 11-6 29-23 39-38 11-16 28-33 38-40 17-11 18-5 18 99 0 122 4 116-70 103zM1760 1272c0-23 6-30 35-41 19-7 35-19 35-27 0-15 35-20 44-5 3 4 17 6 31 3 21-4 25 0 26 19 1 13 1 27 0 32 0 4 3 7 9 7s10 3 10 8c0 9-76 9-86-1-4-4-17-1-28 6-12 8-33 17-48 21-26 6-28 4-28-22zM3722 1045c-12-14-29-25-37-25-10 0-15-10-15-26 0-19 4-25 15-20 19 7 21-24 3-42-10-10-10-15 1-22 24-14-5-41-36-34-16 4-28 1-36-9-10-13-15-14-28-4-8 7-18 20-22 30-9 23-20 21-32-5-7-16-19-23-40-24-24 0-30-4-29-22 0-12-3-22-8-22s-6-5-2-12 7-29 6-49c-2-29 1-38 17-42 11-2 29 1 40 9 13 10 20 11 23 3 2-6 15-13 28-14 14-1 30-3 36-4 6 0 17-12 24-26 7-13 17-22 23-18 5 3 18-5 28-18 11-14 19-18 19-10 0 7 6 11 15 7 18-7 20 10 3 18-7 3-4 5 7 3 12-1 21-11 23-23 2-16 11-21 37-22 19-1 35 3 35 8 0 6 7 10 15 10s24 9 35 20 22 15 25 10c11-18 22-11 35 21 13 29 14 30 24 11 9-17 14-19 29-8 14 11 17 29 17 95 0 71-2 81-18 81-31 0-71-24-74-45-2-11-9-20-15-19-7 1-33 2-58 3-43 1-45 2-45 31 0 17-4 30-10 30-5 0-10 5-10 10 0 6 20 15 44 22 46 12 56 26 56 76 0 14-14 38-34 58-42 42-83 45-114 9z"/></g><g fill="#696D6E" style="transform:none"><path d="M1280 1769c0-6 9-8 20-4 18 6 20 3 14-21-4-15-7-36-8-48-1-13-9-22-21-24-17-2-20-9-17-42s1-40-13-40c-15 0-15-3-5-15 7-9 20-13 27-11 11 4 13 0 8-15-6-18-4-20 14-14 13 4 21 2 21-5 0-6 5-8 12-4 6 4 17-1 25-11 14-20 14-20 18 12 1 12-4 24-11 27-20 8-17 23 5 29 14 3 17 11 14 31-3 14-9 26-14 26-12 0-11 47 1 55 19 12 11 38-10 32-23-6-28 11-5 19 12 5 12 8 0 20-16 16-75 19-75 3zM2450 1767c0-7 6-19 13-26 9-10 9-15 0-18-14-5-5-33 16-50 14-11 14-12-3-13-13 0-17-5-13-20s0-20-14-20c-20 0-26-16-9-22 6-2 1-13-10-26-22-23-19-42 6-42 8 0 14-7 14-15s5-15 11-15c8 0 9-13 5-40-4-25-2-47 6-60 19-30 38-25 38 10 0 17 5 30 10 30 10 0 14-14 11-38-1-6 10-17 24-22 36-14 45-13 45 5 0 8-7 15-15 15s-15 4-15 9 15 7 33 4c17-3 29-2 25 2-7 8 33 51 45 48 4-2 7 4 7 12s9 15 20 15 20-7 20-15c0-20 16-19 24 1 11 28 6 105-7 118-22 23-57 30-57 12 0-9-7-16-15-16-9 0-18-7-21-15-4-8-10-12-15-9s-9-2-9-10c0-9-4-16-10-16-5 0-7 6-4 13 3 8-13 25-41 43-36 22-45 33-41 49 4 11 9 36 12 55 5 33 3 37-36 58-49 26-50 26-50 9zM1606 1671c-3-5-14-7-25-4-13 3-20-2-24-19-3-13-9-33-12-45-5-15-3-23 4-23 6 0 11 6 11 14 0 11 5 12 25 3 14-7 23-18 20-24-3-9 7-13 30-13 33 0 46 12 26 25-5 3-12 19-16 35-4 18-11 27-18 23-6-4-8 0-4 10 7 18-8 33-17 18zM1661 1660c0-14 4-32 9-40 8-12 10-12 9 5 0 11-4 29-9 40-8 18-9 18-9-5zM2262 1488c-6-6-12-9-12-5s-9-1-21-12-18-24-15-30c7-10 51-9 63 2 3 4 15-5 25-20 10-16 18-22 18-15s5 10 10 7c15-9 11 17-9 50-20 34-40 42-59 23zM3842 1363c-34-4-34-4-27-74 7-69 7-69-29-69-29 0-36-4-36-19 0-11 7-26 15-35 20-19 19-26-3-26-10 0-23-5-30-12-9-9-12-9-12 0 0 18-43 32-52 18-5-7-8-5-8 5 0 9-11 22-25 29-29 16-32 37-7 56 15 12 13 13-20 14-25 0-38-5-38-13 0-19-51-42-60-27-4 6-26 14-49 17s-44 10-47 14c-3 5-22 9-43 9-34 0-40-4-52-32-26-66-59-66-59 0s-28 97-79 88c-20-3-41-12-47-21-10-13-14-13-38 6-21 17-26 18-26 5 0-9-7-16-15-16s-15-9-15-20c0-12-7-20-18-20-10 0-26-15-36-35-11-19-25-35-33-35s-12 4-8 9c3 5-4 16-16 24-20 15-19 23 9 67 2 2 7-2 12-10 8-12 10-10 10 8 0 21-4 22-68 22-67 0-122-16-122-35 0-6 15-17 33-24 34-16 71-56 73-81 1-8 5-23 9-32 5-13 2-18-9-18-9 0-16-7-16-15s3-15 8-15c4 0 20-20 35-45 16-25 32-45 36-45s14 19 22 42c17 45 39 62 39 30 0-15 5-19 20-15 11 3 20 0 20-6s8-11 18-12c10 0 12-3 5-6-7-2-13-13-13-24 0-22 41-42 65-33 9 4 25-2 35-11 13-12 20-14 20-6s7 10 19 6c18-6 37 18 26 34-2 5-7 39-11 78-6 70-6 70 29 69 20-1 46-10 59-21 14-13 37-21 58-20 37 0 36 1 39-67 1-21 6-26 24-25 12 0 25 5 28 10 7 9 15 6 107-42 44-23 58-14 20 12-13 8-20 18-16 22 3 3 19-1 34-11 28-19 89-20 111-2 7 5 17 7 23 3 5-3 10-1 10 4 0 6 8 11 17 11s13 3 10 7c-4 3-2 12 4 19 9 11 18 7 44-18 17-18 30-40 28-48-5-20-84-43-98-29-16 16-47 10-52-11-3-11-9-17-15-14-5 3-21-7-35-22-15-17-21-30-14-32 6-2 11-10 11-18s6-11 15-8c9 4 15 0 15-7 0-9 3-10 8-4 4 6 22 20 40 33 25 18 32 19 32 7 0-8 5-15 10-15 6 0 10-5 10-11s-6-9-14-6c-9 4-16-3-19-19-2-13 0-24 6-24s7-3 4-6c-3-4-2-14 3-24 8-15 17-16 62-11 4 1 10 10 13 21 6 17 12 20 41 14 30-5 34-4 34 14 0 12 5 24 10 27 18 11 12 83-7 94-15 8-16 12-5 22 6 7 12 21 12 31s5 18 10 18c6 0 10 18 10 40 0 29-4 40-15 40-8 0-15 8-15 19 0 10-7 24-15 31s-15 20-15 30-9 20-20 23c-12 3-20 14-20 27 0 21 0 21 29 1 32-23 71-27 102-11 23 13 26 75 4 104-8 11-15 35-15 53 0 36-5 37-98 26zM2550 1193c-20-24-22-83-4-76 8 3 14 0 14-6 0-17 47-13 54 5 5 13 15 15 47 10 31-5 40-3 37 6-3 7-19 14-36 16-26 3-32 8-32 26 0 16-7 26-22 30-35 9-42 7-58-11z"/></g><g fill="#747064" style="transform:none"><path d="M3720 2924c0-50 66-114 116-114 19 0 34 5 34 10 0 6 11 10 25 10 26 0 40 28 33 70-4 30-76 59-150 59-58 1-58 1-58-35zM1152 2832c-103-36-103-36-96-77 3-22 9-44 12-49 8-14 112 2 161 25 25 12 53 25 61 29 19 9 25 76 9 96-16 19-28 17-147-24zM940 2745c-62-33-219-102-253-110-30-8-37-39-11-49 32-12 106-6 142 13 20 10 54 21 75 25s60 17 88 29c50 22 50 22 47 67-4 56-23 61-88 25zM1593 2633c-26-13-33-23-33-47 0-23 3-27 12-18 13 13 48 17 48 6 0-4-8-13-17-20-15-11-4-12 72-11 60 1 100-3 120-12 27-13 28-15 9-18-35-6-134-109-134-139 0-22 2-25 15-14 8 7 23 10 33 8 21-6 46 9 55 32 3 9 6 4 6-13 1-32-15-63-47-93-22-20-22-21-4-37 25-23 81-21 111 4 19 16 25 32 29 77 5 62 15 82 42 82 22 0 33 61 24 139-8 74-22 81-184 87-104 3-130 1-157-13zM865 2447c-187-37-224-55-199-94 15-23 55-22 222 5 102 16 102 16 102 59s0 43-37 42c-21-1-60-6-88-12zM2100 2407c-24-8-36-19-38-34-5-34-29-47-80-44-47 2-47 2-59-38-7-22-13-65-13-95 0-52 1-55 30-61 24-5 30-12 30-33 0-19 7-30 22-37 13-6 29-23 36-38 13-28 50-35 45-9-2 7 5 12 16 12 21 0 36 39 21 54-6 6-5 15 2 23 8 10 8 17 0 25-15 15 8 40 26 26 9-8 12-4 12 15 0 14-6 28-12 30-10 4-10 6 0 6 7 1 24 11 37 24 20 18 25 35 31 105 7 82 7 82-32 81-21 0-55-5-74-12zM3575 2220c-3-5-8-39-12-75-3-36-10-65-14-65-5 0-9-9-9-20 0-16-7-20-30-20s-33-6-40-25-17-25-40-25c-20 0-30 5-30 15s-10 15-34 15c-34 0-35-1-41-53-9-72-4-110 17-113 9-1 19 4 22 12 6 15 36 8 36-9 0-5 12-26 27-46 16-20 27-42 25-48-2-7 4-13 13-13 13 0 12-4-5-22-11-12-20-28-20-35s-4-13-10-13c-5 0-10-9-10-20s-4-20-10-20c-5 0-10-7-10-15s-4-15-10-15c-5 0-10 5-10 10 0 6-18 10-40 10-33 0-40-3-40-20 0-11-7-20-15-20-10 0-15-11-15-35 0-19 4-35 9-35 6 0 11-17 13-37 3-37 4-38 45-41 27-2 47-10 55-21 7-9 21-20 32-24 25-10 177 4 170 14-3 5-15 9-27 9-20 0-20 1-2 13 12 10 15 18 9 28-17 26-32 81-27 95 3 8-1 14-11 14-26 0-18 17 14 28 21 8 28 16 24 26-7 19 16 22 34 4 10-10 17-10 32 0 17 10 20 10 20-5 0-9 3-14 6-10 4 3 15-4 25-16 16-19 18-20 19-4 0 16 4 15 37-7 25-17 39-22 44-14 5 7 12 4 24-9 16-19 17-19 55-1 21 11 44 26 51 34 6 8 21 14 33 14 44 0 46 12 46 255 0 262 8 235-85 265-22 7-43 17-46 23-4 5-29 12-56 14-44 5-50 3-62-21-16-30-24-32-41-11-7 8-19 15-26 15-9 0-14 12-14 34s-6 36-16 40c-24 9-72 7-79-4zM1639 2163c-1-5-1-12 0-17s-5-6-14-2c-9 3-23-1-32-9-8-8-19-13-24-9-16 10-40-17-34-37 7-22-14-26-33-7-9 9-12 9-12-4 0-8-9-27-20-41-13-17-20-40-20-70 0-38 4-46 23-52 12-4 25-7 30-6 4 1 7-6 7-14 0-9-10-15-27-16-28-1-28-1-3-9 44-14 110-12 110 4 0 8 7 16 15 20 8 3 15 16 15 29 0 15 9 29 25 37s25 22 25 37c0 14 6 23 16 23 13 0 15 8 11 43-11 87-19 107-38 107-11 0-20-3-20-7zM2969 2063c-1-5 0-23 1-40 2-34-8-41-28-21-9 9-12 7-14-12v-40c1-8 3-61 5-117 2-77-1-112-13-144-11-27-19-37-23-28-5 12-7 12-16-1-6-8-11-25-11-37 0-20-5-23-39-23-23 0-44 6-51 15s-19 14-26 11-16-1-19 4c-3 4 0 10 7 12 7 3 8 9 3 17-6 10-11 8-21-10-7-13-18-24-25-24-6 0-15-10-20-22-5-15-5-23 2-23 13 0 39-25 39-38 0-6-6-13-12-15-10-4-10-6 0-6 7-1 12-14 12-31 0-32 14-40 24-14 3 8 10 13 15 10 14-9 33 21 26 43-6 19-3 20 27 14 18-4 39-12 46-20 21-20 24-16 20 24-2 31 0 38 15 38 21 0 21-2 8-38-6-16-8-33-5-38 10-17-16-40-35-30-14 8-16 4-13-30 4-35 7-39 31-39 14 0 55 8 91 18 59 17 65 21 68 48 4 34-15 104-28 104-6 0-10 5-10 10 0 6 9 10 19 10s21 7 25 15c3 8 14 15 25 15 41 0 51 11 51 56 0 24-4 44-9 44s-13 15-16 33c-10 46-23 57-62 57-35 0-35 0-28 125 7 123 7 125-14 125-11 0-21-3-22-7zM2473 2034c-8-23-52-37-69-23-11 9-14 9-14-1 0-8-10-9-31-5-24 5-34 3-44-12-9-13-27-20-53-21-33-2-41 2-52 26-14 27-14 27-18 2-2-13 1-26 8-28 6-2 16-16 22-31 9-21 12-23 15-8 6 23 20 22 33-3 6-11 16-17 25-14 8 4 18-1 21-10 8-20 42-13 62 12 7 9 12 11 12 4s5-12 11-12 9 9 6 20c-4 15 0 20 13 20 10 0 20-6 23-12 3-10 7-10 17-1 7 7 25 9 42 6 23-5 27-3 22 11-4 11-1 16 10 16 9 0 16 5 16 10 0 6-5 10-11 10s-8 7-5 16c4 9 1 23-5 30-15 19-48 18-56-2zM3170 1295c0-8 4-15 10-15 21 0 50-45 50-77 0-30 3-33 29-33 17 0 33-4 36-10 3-5 17-10 31-10s23 4 19 9c-9 15 17 62 32 57 9-4 13 3 13 19 0 20-5 25-24 25-13 0-26 7-30 15-3 8-11 12-19 9s-20 2-27 11c-18 21-120 21-120 0zM3645 1303c-25-7-35-21-35-52 0-16 4-22 15-17 8 3 15 1 15-4 0-6 6-10 14-10 7 0 19-7 26-15s18-14 24-13c17 3 56-12 56-23 0-16 18-10 23 8 3 12 5 8 6-9 1-28 21-51 21-24 0 9 5 16 10 16 6 0 10 15 10 34s-4 38-10 41c-5 3-10 15-10 25 0 14-10 21-35 26-19 3-38 10-41 15-5 9-55 10-89 2z"/></g><g fill="#807258" style="transform:none"><path d="M3751 2773c-22-4-23-8-18-51 3-26 9-58 13-72 8-25 8-25-29 3-19 15-40 27-46 27-5 0-14 6-18 14-10 16-162 40-203 31-16-3-31-13-34-21s-12-14-21-14-15-9-15-24-7-27-17-30-33-18-50-34c-37-31-43-73-18-122 16-31 42-40 118-39 52 1 77-13 77-42 0-22 28-39 64-39 24 0 26-4 26-39 0-44-5-41 133-57 51-6 57-9 57-30 0-26-3-29-47-39-29-6-33-4-39 20-6 23-11 26-43 23-29-2-37-8-39-26-2-12 0-22 5-21 22 4 33-3 31-18-2-34 2-53 12-53 13 0 73-41 79-53 4-9 61 52 61 65 0 10 41 0 50-11 10-12 82-41 90-36 5 3 11 1 15-5 3-5 15-10 25-10s21-6 23-12c8-18 8 523 1 550-4 12-13 22-20 22-8 0-14 5-14 10 0 6-6 10-14 10s-18 9-21 20-11 20-16 20-9 5-9 10c0 6-14 26-32 45-32 35-52 40-117 28zM2329 2746c-2-3-23-6-44-6-22-1-66-4-98-7-49-4-58-8-63-28-4-17-15-25-40-29-20-4-34-13-34-21s-5-15-11-15c-17 0-4-97 15-115 17-17 111-21 121-5 6 10 105 14 105 4s-44-43-58-44c-7 0-17-12-23-27-5-15-19-33-29-40-23-16-27-35-6-27 12 5 14-2 9-33-3-21-6-47-7-58-2-11-12-25-24-31s-19-14-15-17c3-4 0-7-8-7-30 0-41-15-29-41 12-27 61-54 70-39 3 5 11 5 20 0 21-13 30-12 30 3 0 14 60 87 60 72 0-5 5-3 10 5 7 12 12 12 22 2 16-16 92-17 82-1-4 7-9 32-11 56-3 39-2 43 11 30 21-20 65-10 76 18 5 12 16 25 24 28 12 5 15 14 10 32-6 26-1 29 43 25 18-1 22 3 17 17-5 16-4 16 10-1 9-11 16-15 16-8 0 6 7 9 15 6 9-4 15-1 15 7s11 2 25-14c30-32 33-32 65-7 14 11 31 20 38 20 6 0 12 4 12 9s15 5 35 1c19-4 35-6 35-3s7 0 15-7 13-22 11-34 1-45 8-74c9-40 14-49 26-42 8 5 21 5 33-1 13-7 23-7 33 2 14 11 19 2 15-23-3-20 37-6 43 15 8 29 8 106 0 145-6 28-11 31-55 37-39 6-49 11-49 26 0 10-9 28-20 39s-20 24-20 29c0 11-36 21-82 21-30 0-37-4-40-22-2-15-9-21-18-19-8 2-32 6-52 9-21 2-42 10-49 18-7 9-32 14-70 14-32 0-61 5-64 10-10 15-71 12-85-5-14-16-70-21-70-5 0 5 9 14 20 20s20 19 20 30c0 10 9 22 21 25 16 5 20 14 17 43-3 34-6 37-38 40-20 2-38 1-41-2zM1886 2574c-20-19-21-34-2-34 18 0 30-31 15-40-6-5-8-17-4-29 5-16 2-21-13-21-22 0-59-39-57-60 1-8 6-26 10-38 7-22 12-23 52-17 46 7 83 30 83 52 0 7 6 13 14 13 14 0 26 41 26 89 0 25-29 61-49 61-6 0-13 9-16 20-8 24-37 26-59 4z"/><path d="M3493 2163c-43-4-43-4-43-74 0-53 4-71 15-75 8-4 15-12 15-20 0-19 16-18 24 2 4 10 13 13 25 9 21-6 55 20 46 36-4 5-3 9 2 9 4 0 16 14 26 31 16 29 16 32 1 44-12 8-14 14-6 19 7 4 12 11 12 17 0 9-32 9-117 2zM1727 1832c-53-31-87-181-50-218 10-9 25-31 33-47 8-17 21-32 28-35 17-5 15 23-3 42-8 8-15 21-15 29s-7 20-15 27c-20 17-21 106 0 114 8 3 12 12 9 21-7 18 22 55 43 55 7 0 13 7 13 15 0 19-7 18-43-3z"/></g><g fill="#737777" style="transform:none"><path d="M1270 2217c-19-6-37-14-40-17-3-4-14-10-25-15-18-7-18-9-2-12 24-6 21-30-5-39-13-4-28-14-35-23-6-9-16-16-22-16s-11-3-11-7v-25c0-14 2-14 20 2 13 12 20 14 20 6 0-7-10-21-22-32-20-16-20-18-6-19 23 0 114 48 147 78 14 13 38 30 54 38 22 12 27 21 27 54 0 39-1 40-32 39-18-1-49-6-68-12zM1476 2075c-10-8-15-18-11-24 3-6-1-11-11-11-26 0-84-43-83-60 3-30-1-33-16-14-14 19-14 19-15-1 0-11 4-25 8-31 9-14 77-25 114-17 26 5 28 9 23 34-5 21-1 36 14 55 24 30 27 57 8 72-8 7-18 6-31-3zM2920 1613c0-27 5-55 10-63 8-12 10-9 10 13 0 15 5 27 10 27 6 0 10-4 10-9s7-17 16-25c9-9 17-22 18-29 1-6 5-18 9-24 12-19-2-35-24-28-11 4-19 2-19-5s-7-10-15-6c-8 3-15 1-15-5s-5-7-10-4c-6 4-17 1-25-5-12-10-15-9-15 3 0 16-28 37-50 37-7 0-10-6-7-14 7-18-17-28-32-13-8 8-11 6-11-7 0-10-9-29-20-43s-17-30-14-35 0-16-8-25c-10-13-10-17 0-20 24-9 11-19-18-15-25 4-31 0-40-23-11-29-5-65 11-65 5 0 9 4 9 8s9 8 21 9c14 1 19-3 15-13-3-8-1-14 4-14 6 0 10 5 10 10 0 6 18 10 39 10 22 0 42 4 45 8 2 4 24 9 47 11 23 1 47 4 51 8 5 3 16-3 23-13 10-13 14-15 15-5 0 11 3 11 15 1 9-7 14-19 11-27-3-7 1-13 10-13 11 0 14-6 8-22-6-22-6-23 13-5 19 16 21 16 27 2 10-28 28-4 24 31-3 29-1 33 13 29 25-8 14 28-26 85-30 44-31 46-15 76 9 17 21 29 28 26 7-2 12 1 12 6s12 12 27 15c40 7 86-45 79-90-3-18-1-33 5-33 5 0 9-5 9-10 0-6-6-10-12-9-16 3-68-18-68-26 0-4 5-15 10-26 11-20 40-27 40-9 0 6-4 10-10 10-5 0-10 4-10 10 0 12 50 10 67-2 6-5 14-5 17 1 8 12 66-9 66-25 0-18 27-38 32-23 3 9 9 9 26 0 12-6 19-17 16-24-5-14 36-18 46-5s49-4 56-24c4-15 9-17 17-9 6 6 19 11 29 11 24 0 68 21 68 33 0 17 62 67 86 69 25 2 32 29 16 55-11 17-58 33-97 33-29 0-34-4-37-27-2-17-10-29-20-31-14-3-18 3-18 27 0 21-5 31-15 31-8 0-15 8-15 18s-5 23-12 30c-14 14-88 16-88 2 0-5-7-10-15-10-9 0-15-9-15-25 0-14 7-28 15-31 20-8 18-24-5-53-14-16-25-21-37-16-10 5-23 7-30 6-20-3-45 44-37 73 5 20 12 26 35 26 16 0 32-7 38-17 8-14 10-6 9 35s3 56 18 68c18 14 17 15-11 13-45-2-52 1-27 11 21 9 31 30 14 30-5 0-19 9-32 20-18 16-20 20-7 20 10 0 17 8 17 20 0 25 17 26 23 3 3-11 5-8 6 9 1 27 1 27-106 24-60-1-118-8-130-14-35-19-51-14-55 14-4 37-35 55-52 32s-71-25-62-3c4 10-1 15-14 15-17 0-20-7-20-47zM1640 1602c0-8-9-10-27-6s-24 2-15-3c7-6 10-17 6-26-8-22 23-87 41-87 8 0 15 7 15 15 0 9 6 15 13 13 16-4 17 10 6 40-13 33-39 69-39 54zM1893 1423c-15-3-23-12-23-24 0-16 5-18 25-13 15 4 25 2 25-5 0-6 9-11 21-11 16 0 19 4 14 20-5 15-3 18 9 14 11-4 16-1 16 10 0 16-33 19-87 9z"/><path d="M3226 1168c-4-23-5-42-3-44s19 1 37 6c24 7 36 6 41-1 4-8 9-7 15 3 5 8 15 17 22 19 27 9-21 47-64 52-42 5-42 5-48-35zM3916 1171c-3-5-31-12-61-16-40-5-55-11-55-22 0-10 6-13 16-9 12 5 15 2 10-10-4-10 3-23 16-35 13-10 17-18 11-19-25 0-13-30 12-30 31 0 33-16 4-25-16-5-18-9-8-15 10-7 10-11 0-24-7-9-17-13-22-10s-9-7-9-22c0-17 10-35 27-50 22-19 25-26 15-36-6-6-12-20-12-30s-4-18-10-18c-19 0-10-21 15-32 14-6 25-19 25-30 0-10 5-18 10-18 6 0 10 12 10 28 0 20 3 23 9 13 7-11 11-5 16 22 4 21 13 37 21 37 38 0 63 136 32 169-10 11-10 14 0 18 8 3 12 26 12 66 0 93-6 107-46 107-18 0-35-4-38-9zM2956 1137c-3-12-1-23 4-25 6-2 10-12 10-23 0-10 7-19 15-19s15-8 15-17c0-13 9-18 35-20 19-1 35 3 35 8s-5 9-11 9c-8 0-10 15-7 44 5 39 3 43-13 39-11-3-25-1-32 4-28 22-45 22-51 0z"/></g><g fill="#887A60" style="transform:none"><path d="M3485 2915c-27-8-53-14-57-15-5 0-8-6-8-13s-9-18-20-25c-16-10-26-9-55 8-37 21-105 27-105 10 0-11-46-13-102-4-23 4-38 12-38 20 0 10-13 14-40 14-38 0-40-2-40-30 0-17-6-33-14-36s-17-23-21-45c-4-21-10-39-15-39-4 0-11-11-14-25-4-14-11-25-16-25-19 0-10-63 13-94 35-46 39-62 47-174 5-73 12-107 24-120 9-10 16-22 16-27 0-4 11-18 25-31s25-30 25-39 9-15 24-15c39 0 71-41 68-87-4-45 11-62 58-68 30-4 32-2 26 20-5 18-2 25 8 25 8 0 17-14 21-30 7-30 19-38 30-20 3 6 17 10 31 10 19 0 25-5 22-17-2-10-12-19-23-22-11-2-23-8-27-15-11-16-10-56 2-56 6 0 10-8 10-17 0-28 19 6 21 37 2 24 2 24 6 2 2-12 9-20 14-17s17 1 28-4c32-18 88 12 96 50 5 23 3 34-7 40-9 5-15 25-16 49-2 41 5 49 26 28 9-9 15-9 23-1 6 6 18 9 27 6 10-4 13-2 8 5-4 6 3 12 16 14 17 2 23 10 23 28 0 14 5 25 10 25 6 0 15 4 21 8 7 4 14-2 18-17 7-28 44-40 81-26 14 5 30 9 36 7 6-1 14 5 18 13 5 8 13 26 20 39 9 16 9 27 3 33s-8 17-5 24c4 10-4 14-30 14-20 0-39 5-42 10-4 6-23 10-43 9-59-3-82 0-82 11 0 6 7 10 15 10 9 0 15 9 15 21 0 15-5 19-15 15-10-3-15 1-15 13 0 14-6 17-24 14-30-6-69 14-63 32 3 7-10 28-29 46-29 28-34 30-34 13-1-19-1-19-15 0-9 12-15 15-15 7s-6-11-16-7c-9 4-22 2-28-3-14-11-59 5-51 19 3 5 2 10-3 10-20 0-22 33-5 50 41 38 74 54 83 40 6-10 11-7 19 9 10 17 9 22-4 27-19 8-20 24 0 24 7 0 18 7 23 17 14 24 93 20 121-6 11-9 16-10 19-2 2 6 10 11 18 11 13 0 19-13 15-34-1-5 5-6 14-2 24 9 84-40 78-63-7-29 26-35 37-7 5 13 13 25 19 27 16 6 15 119-1 119-4 0-8 5-8 11s6 9 14 6c24-10 38 19 31 62-9 51-42 75-96 68-35-5-40-2-60 29-19 31-25 34-67 33-26 0-69-7-97-14zM3896 2829c-11-54-7-106 9-119 8-7 15-19 15-26 0-8 5-14 10-14 6 0 10-6 10-14 0-19 27-46 46-46 11 0 14 22 14 111 0 124-7 138-66 139-27 0-32-4-38-31z"/><path d="M2332 2673c1-11-10-31-28-49-16-16-33-37-37-47-7-19-29-22-57-7-14 7-28 3-61-20-24-16-48-30-52-30s-19-12-32-27c-19-22-24-40-25-79 0-44 3-52 21-57 12-3 31 0 43 7 29 19 80 30 71 16-3-5-3-10 2-10 16 1 43 27 52 53 6 15 16 27 23 27 13 0 36 20 83 74 19 21 30 27 48 22 17-4 30 0 42 14 16 18 41 19 30 0-3-4 2-10 10-14 8-3 15-1 15 4 0 15 28 12 33-2 3-10 9-10 30 1 23 12 28 11 53-8 19-15 36-20 51-16 13 3 23 1 23-5s4-9 9-5c5 3 12 1 15-3 6-10 27-9 69 3 30 8 33 15 15 34-11 11-9 13 12 7 14-3 28-6 33-6 4 0 7-4 7-10 0-5 9-19 19-29 12-12 17-27 14-40-5-18-1-21 26-21 18 0 30-4 27-8-3-5 4-16 15-25 18-16 19-16 19 3 0 11 5 20 10 20 6 0 10-9 10-21 0-11 5-17 10-14 15 9 12 86-5 115-8 14-18 32-22 40-13 28-32 40-61 40-17 0-33-6-35-12-4-9-6-8-6 2-2 26-55 41-168 46-59 3-110 10-113 15-3 4-44 13-90 19-47 6-100 13-118 17-29 5-33 3-30-14z"/></g><g fill="#827C6E" style="transform:none"><path d="M2148 3104c-19-6-23-39-12-81 6-21 13-23 64-23 56 0 90-15 90-41 0-5 16-9 35-9s35 5 35 10c0 6 20 10 45 10 45 0 45 0 45 36 0 47-16 74-43 74-13 0-28 5-35 12-13 13-190 22-224 12zM3005 3030c-11-5-89-9-172-9-153-1-153-1-153-46 0-35 4-47 18-51 9-3 26-10 37-14 38-16 101-24 173-23 40 1 72-2 72-7 0-16 57-11 100 7 46 20 63 52 58 109-3 39-3 39-58 41-30 1-64-2-75-7zM3540 2962c0-41 14-62 41-62 17 0 52-45 52-67 0-20 24-23 61-8 31 13 36 13 44-1 5-9 13-14 17-12 5 1 14-16 20-40 7-31 13-40 21-32 7 7 19 1 42-24 17-19 29-36 27-38-3-2 0-17 4-34 9-28 9-28 10-4 1 19 3 22 10 10 6-8 7-18 5-22-3-4 4-8 15-8 12 0 21-7 21-15 0-9 6-12 15-8 10 3 15 1 13-8-2-7 5-15 15-17 13-3 17 3 17 29 0 37-20 99-32 99-4 0-8 5-8 12 0 6-7 19-16 29-18 20-10 96 10 81 6-5 21-12 34-15 19-4 22-1 22 21-1 42-52 92-94 92-39 0-56-15-26-23 27-7 15-37-15-37-13 0-25-5-27-10-2-6-13-2-25 9-11 11-23 18-25 16-2-3-12 10-22 27-19 31-19 31 8 24 22-5 26-3 26 17s-8 24-84 40c-46 9-104 17-130 17-46 0-46 0-46-38zM1436 2939c-43-16-85-34-92-40-8-6-14-8-14-5 0 4-10 0-22-8-12-9-30-16-39-16-20 0-19-20 1-44 10-13 10-20 2-28-7-7-12-16-12-20 0-14 75-9 96 7 10 8 28 15 38 15s52 10 92 22c72 22 74 24 74 55 0 23-5 33-15 33s-15 10-15 30c0 17-3 30-7 29-5 0-43-14-87-30zM2460 2826c-14-9-44-25-67-38-24-12-46-30-49-41-3-10-15-22-27-28-18-7-16-8 15-7 45 3 60-9 24-18-68-17 0-52 118-61 45-3 65-9 80-26 26-27 58-35 50-12-3 8-2 15 4 15s12-6 15-12c8-24 18 0 24 55 6 54 6 54-28 61-34 6-34 6-34 63 0 58 0 58-50 61-30 1-60-4-75-12zM1015 2780c-56-25-58-28-37-39 25-13 30-41 7-41-8 0-15-5-15-11 0-12 107-7 143 6 23 9 23 43 0 41-12-1-17 5-15 17 2 9-3 26-10 36-13 18-15 17-73-9zM2780 2670c0-5-7-10-15-10-10 0-15-10-15-28 0-23 7-31 35-42 20-8 34-19 32-24-4-12 17-36 30-36 5 0 19 9 31 20 12 12 22 16 22 10 0-5 5-10 10-10 15 0 12 57-5 89-8 16-25 31-37 35-36 9-88 7-88-4zM1992 2615c-7-26-20-49-30-52-37-14-56-53-32-68 6-3 10 1 10 10 0 13 4 12 23-6 13-13 18-23 11-26-7-2-9-13-6-25 4-17 2-19-18-13s-22 4-18-13c8-28-29-59-53-44-14 9-18 8-22-6-3-14-6-12-14 7-7 17-12 21-17 12-4-6-3-18 4-25 16-20 3-58-26-79-23-17-27-18-43-3-17 15-20 15-45-5-15-12-25-28-22-35 7-18-14-64-29-64-21 0-36-22-24-37 8-9 8-13 0-13-16 0-13-14 8-39 11-13 22-28 23-33 2-6 26-13 53-15 48-5 51-4 63 26 16 36 40 32 49-10 5-26 9-29 45-29 44 0 107-26 115-47 3-7 9-11 13-8 5 3 11 1 15-5 3-5 14-10 24-10 44 0 21 114-27 135-28 12-28 25-1 32 16 4 19 11 15 29-4 14-2 24 4 24s8 5 5 10c-10 17-25 11-25-10s-16-25-57-14c-27 7-29 34-11 94 12 38 30 51 42 31 3-5 17-11 30-13 18-4 30 2 45 23 12 16 21 35 21 43s8 19 17 25c16 8 14 10-10 16-34 9-36 40-3 76 28 32 46 39 68 28 27-14 35 28 9 52-12 11-22 15-26 9-3-6-15-10-26-10-22 0-52 24-42 34 3 3 0 12-7 21-8 10-9 15-1 15 6 0 11 7 11 15s7 15 15 15 15 5 15 10c0 6-24 10-53 10-53 0-53 0-65-45zM651 2614c-7-9-22-14-32-11s-19 2-21-2c-3-5-88-48-148-74-40-18-53-29-40-37 7-4 2-15-14-31-14-13-26-27-26-31 0-16 63-7 87 12 14 11 31 20 38 20s23 9 36 19c14 10 43 25 67 32 23 7 47 18 53 26 6 7 21 13 33 13 26 1 56 23 56 42 0 8-15 19-33 26-41 15-39 15-56-4zM655 2520c-3-5-15-10-26-10-10 0-19-4-19-10 0-5-7-10-15-10s-15-4-15-10c0-5-6-10-13-10-17 0-47-36-47-58 0-15 2-15 11-2 8 11 12 12 16 3 2-7 13-13 24-13 10 0 19-7 19-15s-4-15-10-15c-12 0-13-20-1-39 8-12 12-12 25-2 13 11 16 11 16 0 1-10 5-8 15 5 7 10 20 16 27 14 15-5 48 28 48 49 0 7 5 13 10 13 6 0 10 27 10 60 0 60 0 60-34 60-19 0-38-4-41-10zM3050 2319c0-13-25-39-38-39s-22-25-22-60c0-16-7-30-15-34-18-6-19-46-5-96 14-45 13-264 0-268-13-5-13-69-1-77 5-3 12 4 16 15s11 17 17 14c6-4 14 0 19 7 7 12 11 11 26-4s16-19 4-26c-7-5-10-14-7-20 4-6 12-9 17-6 5 4 9-1 9-9 0-9 5-16 10-16 6 0 10-7 10-16 0-8-4-13-9-9-5 3-12-4-16-15-7-23 24-128 34-113 3 5 15 12 26 16 11 3 35 10 53 16 31 9 34 8 45-17 16-36 45-40 53-7 4 15 13 25 24 25s22 5 25 10c9 14 25 12 25-2 0-9 15-12 51-9 34 2 47 6 38 12-11 7-10 11 5 22 11 8 16 19 12 25-4 7-4 12 1 12 4 0 14 14 22 32 14 30 15 31 30 12 18-22 98-33 84-12-4 7-8 22-8 33 0 14-6 19-17 17s-18 3-18 14c0 10-3 15-6 11-3-3-18 5-33 19-26 25-26 25-48-1-12-14-29-25-38-25-8 0-15-9-15-19 0-11-5-23-10-26-17-11-71 6-78 23-3 10-12 23-19 30-17 18-16 28 5 49 11 10 22 26 25 36 4 10 11 16 16 13 10-7 8 112-3 136-10 22-26 14-26-13 0-29-27-23-61 13-35 38-40 73-9 63 32-10 24 18-11 37-25 15-28 21-19 37 16 31 12 50-17 78-16 14-27 31-25 39 3 16-24 19-33 4s-25-12-25 5c0 13-53 75-65 75-3 0-5-5-5-11z"/></g><g fill="#7E8180" style="transform:none"><path d="M1715 2994c-34-7-82-22-108-33-43-19-47-23-47-55 0-19 3-37 8-39 4-3 49-8 100-11 89-7 92-7 92 13 0 14 6 21 20 21 11 0 20 4 20 9s14 14 31 21c27 11 30 17 27 49-3 35-5 36-43 37-22 1-67-4-100-12zM2340 2828c-24-6-54-16-65-24-10-8-27-14-37-14-14 0-18-8-18-39 0-22 5-43 11-46 16-10 128 5 142 20 12 11 51 34 119 70 10 5 17 17 16 25-4 19-101 23-168 8zM1430 2401c0-5-8-12-17-15-10-4-33-29-51-56-17-28-37-50-42-50-6 0-10-6-10-14s-9-18-20-21-20-13-20-21-7-14-16-14-14-6-11-12c4-14 65-16 85-4 16 10 16-16 0-32-25-25 43-12 78 14 27 21 34 23 34 10 0-25 62-21 96 7 65 53 107 104 99 117-4 6 1 13 9 16 27 10 18 24-16 24-18 0-48-9-65-20-33-20-33-20-33 0 0 11-7 20-15 20-9 0-15 9-15 24 0 16-7 26-22 30-33 8-48 7-48-3zM1751 2151c-11-7-10-11 5-20 18-11 18-11 0-25-10-8-15-19-12-25 6-10-34-7-72 5-9 3-11-2-7-16 5-15 3-18-9-14-15 6-20-5-19-42 0-6-8-16-18-23-12-7-19-7-19-1 0 5-4 10-10 10-5 0-7-7-4-15 4-8 1-15-5-15-15 0-14-27 2-33 7-4 3-8-11-13-14-4-21-12-18-20 7-17-20-19-28-1-3 6-4 1-3-13 4-42 53-39 152 10 47 23 85 45 85 50 0 11 52 27 113 36 46 6 47 7 47 40 0 29-3 34-25 34-16 0-23 4-19 13 7 19-44 67-72 67-13 0-24 5-24 10 0 12-10 13-29 1zM3070 1671c0-9-9-12-24-9-31 6-43-18-21-42 8-9 15-30 15-47 0-23 5-32 23-37 33-9 37-8 37 9 0 8 6 15 14 15 11 0 10 10-6 53-20 54-38 81-38 58zM3332 1468c-18-18-14-70 7-95s68-36 64-15c-2 6 3 12 11 12s16 6 19 13c6 18 37-10 37-34 0-11 7-19 16-19 12 0 15-7 12-29-4-25 1-31 27-44 29-14 32-13 53 8 12 13 22 33 22 45 0 16 4 20 16 16 9-3 20-6 25-6s9-8 9-17c0-14 2-15 9-4s10 9 16-7c3-12 9-21 13-20s17-3 30-10c12-7 22-10 22-6 0 3 6 1 13-5 8-6 17-8 20-4 4 3 7-3 7-15 0-11 4-23 10-27 5-3 7-12 3-20-3-8-2-26 1-39 5-22 11-25 51-23 25 1 45-1 45-5 0-5 11-8 24-8 16 0 26 7 30 23 7 21 7 21 15 2 8-20 8-20 14 0 4 11 6 42 5 68 0 27 5 54 11 60s11 35 11 64c0 48-2 53-22 53-13 0-58 4-101 8-42 4-77 3-77-2 0-4-8-5-17-1-10 4-47 9-83 12-90 7-110 11-151 33-9 5-33 5-53 0-22-5-36-4-36 2 0 5-5 8-12 6-6-2-21 6-34 19-25 25-63 30-82 11zm574-151c-3-14 3-36 15-57 20-32 20-35 4-47-15-10-23-9-47 8-25 18-28 26-23 50 4 18 2 36-5 44-14 17 0 21 16 5 8-8 15-6 24 5 18 21 23 19 16-8zM2895 1448c-2-7-3-22-2-33 1-15-3-19-17-17-14 3-17-1-12-13 3-9 6-21 6-26 0-11 59-7 78 5 7 4 12 4 12-1 0-10 20 19 20 30 0 4-9 7-20 7s-20 5-20 10c0 6-7 10-16 10-11 0-14 6-9 20 7 22-13 29-20 8zM3968 1043c-16-2-28-8-28-13s-9-10-20-12c-25-4-28-22-4-27 46-9 97-101 57-101-7 0-13-7-13-16 0-8-5-12-10-9-14 9-25-24-12-37 6-6 18-7 29-3 10 5 21 7 26 7 4-1 7 48 7 108 0 61-1 109-2 109-2-1-15-4-30-6z"/></g><g fill="#A79D4B" style="transform:none"><path d="M1877 1919c-31-18-18-30 31-28 59 1 100-9 132-33 36-28 70-88 70-124 0-68-86-193-135-194-25 0-52-17-43-25 4-4 13-3 20 1 7 5 21 7 30 6 35-6 128 66 128 99 0 5 10 23 21 39 18 23 20 36 15 67-4 21-9 47-10 58-2 11-4 23-5 28 0 4-7 7-14 7s-23 13-35 30c-39 53-161 93-205 69z"/><path d="M1850 1805c-7-8-21-15-31-15-9 0-27-13-38-28-24-34-40-89-22-78 7 4 11 0 11-12 0-20 61-82 80-82 20 0 9 31-20 58-16 15-32 38-35 52-13 55 88 106 168 86 33-8 60-65 52-110-4-20-2-36 4-40s11-3 11 2 9 12 21 15c19 5 19 7 6 29-8 13-18 39-21 59-5 28-15 40-45 57-46 26-122 30-141 7z"/><path d="M1980 1626c0-8 5-18 10-21 6-3 10 1 10 9s-4 18-10 21c-5 3-10-1-10-9z"/></g><g fill="#928A7B" style="transform:none"><path d="M2751 3330c-19-4-49-7-68-5-32 2-33 1-33-36 0-39 0-39 91-39 51 0 120 5 155 12 63 11 64 12 64 45s0 33-87 32c-49-1-103-5-122-9zM3310 3254c-22-57-3-103 43-104 9 0 17-7 17-15 0-19 60-21 78-3 9 9 12 9 12 1 0-18 51-68 83-81 38-16 85-15 103 2 8 8 14 31 14 50 0 29-4 36-20 36-15 0-20 7-20 25 0 15-6 25-14 25s-16 6-19 14-22 22-41 30c-20 9-51 23-70 31s-62 15-95 15c-57 0-62-2-71-26zM1951 3144c-40-19-76-34-81-34s-10-4-12-9c-1-6-14-12-28-14s-47-14-75-26c-27-12-65-28-82-36-22-10-33-22-33-35 0-17 7-20 40-20 21 0 60 7 86 16 51 17 57 16 57-21 0-21 4-25 31-25 18 0 57 7 88 15 35 9 75 12 107 8 41-5 52-3 57 11 3 9 15 16 25 16s19 5 19 10c0 6 9 10 19 10 11 0 23 5 26 10 3 6-1 10-9 10-10 0-13 6-10 15 4 9 0 15-7 16-8 0-3 5 10 10 24 10 24 10 3 29-15 14-35 20-66 20-41 0-45 2-48 28-4 37-28 36-117-4zM2421 3046c-6-7-9-21-5-30 7-19-7-21-24-4-9 9-12 4-12-23 0-38 14-59 41-59 9 0 20-7 23-16 6-15 19-16 103-10 64 4 113 3 144-5 47-12 99-6 99 11s-37 48-56 47c-10-1-20 6-22 16s2 16 9 15c8-2 15 7 17 18 4 25-27 34-114 34-29 0-56 5-59 10-10 16-131 12-144-4zM3148 3043c-60-3-78-7-78-18 0-8 6-15 14-15 23 0 29-19 16-50-10-25-33-40-65-44-12-1-25-17-25-32 0-7 12-19 26-29 25-16 26-16 19 4-3 12-2 21 3 21s12-9 15-21c5-18 11-20 44-14 21 3 42 10 47 15 16 16 66 12 66-5s36-38 53-31c9 3 9 5 0 5-11 1-20 31-10 31 13 0 67-33 67-41 0-6 4-8 9-5s11-1 14-8c7-18 63-5 59 13-1 6 5 14 13 17 8 4 15 14 16 23 0 10 2 11 6 4 7-18 23-16 23 3 0 8 4 13 9 9 5-3 12-1 15 4 3 4 25 11 48 15 37 6 45 4 60-16 10-13 18-17 18-10 0 17 45 15 64-3 8-8 19-15 25-15 5 0 12-8 15-18 7-22 56-28 56-7 0 8 7 15 15 15 23 0 18 13-17 40-17 14-45 25-62 25-37 1-126 24-143 38-24 18-13 29 22 25 31-3 35-1 35 18 0 20-7 24-47 29-27 3-79 10-118 15-89 12-228 18-327 13zM2531 2803c0-25 1-26 9-8 7 19 8 19 15 2 4-10 3-28-2-40-16-40-5-66 33-73 32-6 44-18 26-26-5-1-5-17 0-35 8-29 12-32 43-31 19 1 35 6 35 12s4 6 11-1 25-9 40-6c16 3 35 0 43-6 10-8 16-9 21-1 3 5-1 13-9 16-20 8-21 24-1 24 8 0 15 5 15 11 0 14 42 1 58-19 10-13 12-11 12 19 0 19-7 52-14 74-12 36-18 40-50 43-23 2-36-1-36-9 0-6-8-2-17 9-21 23-158 72-202 72-27 0-31-3-30-27zM2195 2786c-5-2-46-14-90-26-88-25-105-37-105-73 0-25-16-37-51-37-10 0-19-4-19-10 0-5-9-10-21-10-11 0-27-7-36-16-14-14-14-16 5-21 19-4 19-7 7-20-17-17-20-33-5-33 6 0 10 5 10 10 0 23 21 7 27-20 6-33 23-51 23-26 0 10 6 13 15 10 8-4 15-2 15 4 0 5 9 12 20 15 13 3 23 20 32 50 11 42 15 46 52 53 23 4 48 7 57 6 11-1 19 10 24 31 4 18 9 27 11 21 5-13 54-6 54 7 0 5 7 6 15 3 11-5 15 1 15 25 0 22 5 31 16 31 9 0 14 6 12 13-4 11-61 20-83 13zM1385 2549c-22-4-56-8-77-8-20-1-38-5-40-9-1-4-77-18-168-31s-168-25-172-28c-5-2-8-13-8-24 0-13-7-19-24-19-13 0-29-6-35-14-11-13-5-13 41 0 29 7 54 14 56 14 1 0 2-7 2-15 0-9-9-15-25-15-14 0-33-4-43-9-9-5-26-13-37-16-43-15 12-18 139-6 186 17 213 22 226 42 7 10 148 29 166 22 8-3 14 0 14 6s6 11 14 11c15 0 116 91 116 104 0 8-96 6-145-5zM728 2543c-16-2-28-9-28-14s-7-9-15-9c-9 0-15-9-15-21 0-19 2-20 17-8s16 12 10-4c-4-10 1-35 9-57 14-35 20-40 49-40 19 0 37 5 40 11 4 6 13 8 20 5 25-9 46 83 29 128-6 16-49 19-116 9zM1840 2533c0-13 5-23 10-23 13 0 13 11 0 30-8 12-10 11-10-7zM2982 2346c0-165 1-176 19-176 14 0 19 7 19 28 0 34 14 57 29 48 6-4 11-1 11 8 0 8 6 13 13 11 7-3 12 4 12 20 0 14-3 25-7 25-5 0-8 5-8 12 0 6-8 20-17 31-14 14-18 37-18 90 0 71 0 72-27 75s-27 3-26-172zM1495 2475c-16-13-26-27-22-31 8-8 34 12 48 38 12 23 10 22-26-7zM355 2431c-31-17-65-47-65-57 0-24 62-46 74-26 3 5 21 8 41 7 22 0 35 4 35 12 0 7 7 13 15 13 28 0 15 28-15 35-17 4-36 13-43 20-11 11-18 10-42-4z"/></g><g fill="#868C92" style="transform:none"><path d="M3884 2769c14-17 26-34 26-38s11-21 25-37c20-23 22-30 10-32-19-4-19-12 0-39 9-12 14-26 13-30s8-24 20-43c22-35 22-35 22 17 0 48-24 123-42 131-5 2-8 9-8 16 0 13-71 86-84 86-4 0 4-14 18-31zM1408 2227c-16-13-28-30-28-39s-12-26-27-38c-16-12-23-19-18-17 6 2 27 12 48 22s40 15 43 13c9-10-90-85-152-117-73-37-98-61-62-58 13 1 41 12 63 24s65 36 95 53c99 55 115 66 127 91 17 33 17 67 1 51-21-21-31-13-14 13 16 25 16 25-16 25-19-1-45-10-60-23z"/><path d="M1242 2081c-30-16-61-36-70-46-21-21 82 32 112 58 26 22 21 21-42-12zM1920 2068c0-4-7-8-15-8s-15-9-15-20c0-18-10-25-32-21-5 0-8-11-8-25 0-21 3-24 13-16 12 11 41 10 134-2 32-4 42-2 47 10 7 18-10 34-61 59-18 9-33 19-33 24 0 4-7 8-15 8s-15-4-15-9zM1510 1903c0-22-22-30-67-24-7 1-13-5-13-13 0-9-6-13-13-10-8 3-20-2-27-11-7-8-19-15-28-15-28 0-102-41-102-57 0-12 7-14 30-9 26 5 30 2 30-15 0-11 3-19 8-17 4 2 27 13 52 25 86 41 140 63 155 63 9 0 18 7 21 15 4 8 12 15 20 15s14 10 14 25c0 22-3 25-26 19-18-5-29-1-39 12-14 18-14 18-15-3zM2968 1863c-3-16-15-63-27-106-23-85-33-228-15-234 6-2 15 34 23 89 7 51 17 98 21 103 4 6 11 25 15 43 3 17 11 32 16 32s9 23 9 50c0 42-3 50-19 50-13 0-20-9-23-27zM954 1593c3-8 6-17 6-19s7-4 15-4 15-5 15-11c0-5-5-7-11-3-7 4-10-1-7-12 2-11 13-20 27-22 19-3 22 0 16 17-9 29 19 28 60-4 33-24 33-24 38-3 4 12 4 25 1 30-7 11-56 32-68 29-5-1-16 1-25 5-9 3-29 8-44 9-21 2-27-1-23-12zM1681 1458c-1-9-10-20-21-23s-20-10-20-15c0-11 63-60 76-60 5 0 20-6 34-13 62-33 100-24 100 22 0 14 5 19 15 15 9-4 15 0 15 9 0 21-28 29-89 26-29-2-56 3-65 10-14 12-16 10-16-9 0-31-10-19-20 22-4 18-8 25-9 16zM3957 1293c-3-5-8-23-12-41s-13-36-21-39c-20-8-17-18 9-31 12-6 16-11 10-11-7-1-13-8-13-17 0-10 6-14 14-11s16-2 19-14c3-13 11-17 21-13 13 5 16 23 16 95 0 81-2 89-19 89-11 0-22-3-24-7zM3828 1202c-10-2-18-9-18-17 0-41 75-41 82 0 4 20 1 23-21 22-14 0-34-3-43-5z"/></g><g fill="#9F9886" style="transform:none"><path d="M2940 3360c-14-4-42-8-62-9-26-1-38-6-38-15 0-8-10-17-22-19-13-2 9-5 47-6 77-3 77-5-7-21-38-8-58-16-58-26 0-8 7-14 15-14 9 0 15-9 15-25 0-14 8-29 21-35 11-6 97-15 190-20 94-5 204-14 244-21 41-6 81-9 89-6 25 10 19 31-13 45-25 11-29 17-22 35 5 14 18 23 35 25s26 9 26 21c0 33-32 48-117 55-72 6-83 5-83-8 0-12-11-16-44-16-25 0-48-4-51-10-14-23-25-7-25 35 0 45 0 45-57 44-32-1-69-5-83-9zM2624 3312c-21-11-32-12-45-4-14 9-20 7-33-12-11-18-28-26-68-31-29-4-71-11-93-17s-51-12-65-13c-14-2-54-10-90-19s-79-16-96-16c-41 0-100-25-107-45-4-8-1-15 6-15 7-1 5-6-5-14-30-22-21-28 35-23 73 8 120 18 135 30 7 6 40 10 73 9 44-1 59 2 59 12 0 8 10 16 23 19 12 3 47 12 77 20 55 14 152 30 263 42 47 5 57 10 57 26 0 15-7 19-35 19-19 0-35 5-35 10 0 6 7 10 16 10s14 6 12 13c-6 16-51 16-84-1zM3562 3183c2-16 8-27 16-25 7 1 12-8 12-23 0-18 5-25 20-25 11 0 20-4 20-8s-9-14-20-22c-23-16-26-30-7-30s64-52 50-57c-32-11-10-32 45-43 31-6 64-14 72-17 8-4 22-7 31-8 31-4 114-39 122-53 13-21 57 24 57 59 0 36-9 59-24 59-7 0-25 14-41 30-16 17-36 30-44 30-9 0-22 9-29 20-7 12-23 20-38 20-26 0-74 40-74 61 0 5-9 9-20 9s-20 5-20 10c0 6-11 10-24 10s-26 7-30 15c-3 9-19 15-41 15-34 0-36-2-33-27zM2565 3134c-55-7-125-13-155-13-58-2-90-17-90-45 0-10 4-15 9-11 5 3 12 1 16-5 3-5 17-10 29-10 14 0 30-10 41-26 15-24 18-24 34-10 20 18 72 21 87 6 5-5 29-12 52-15 33-4 46-1 62 15 11 11 31 20 45 20 16 0 25 6 25 15 0 8 5 15 10 15 6 0 10 18 10 40 0 40 0 40-37 39-21-1-83-8-138-15zM1625 3008c-27-10-72-26-98-35-27-9-43-19-37-23 7-4-10-20-42-38-59-35-58-35 27-33 60 1 60 1 5-19-55-19-55-19 0-14 94 9 114 13 145 35 29 20 30 20 5 17-48-5-32 17 29 41 51 20 61 28 61 48 0 21-3 23-27 17-25-7-27-6-14 9 17 21 9 20-54-5zM2260 3005c0-8-9-15-20-15-16 0-20-7-20-35 0-22 6-38 15-41 9-4 15-19 15-39 0-37 12-45 66-45 27 0 34 4 34 20 0 11 7 20 15 20s15 9 15 20c0 16 8 19 57 22 37 2 58 8 61 17 3 8 0 11-6 7s-16 3-22 14-16 17-22 14c-6-4-22 6-34 22-27 33-64 38-80 10-11-19-12-19-18 2-9 26-56 32-56 7zM2748 2929c-6-4-17-5-25-2-9 3-13-3-13-21 0-16 6-26 15-26 8 0 15-4 15-10 0-5 7-10 15-10s15-4 15-9 13-14 29-21c16-6 45-26 64-44 32-29 36-37 30-69-3-20-1-49 5-64 5-16 20-63 33-105 14-47 28-78 38-81 9-3 24-8 35-12 16-7 17-5 11 15-6 19-4 22 9 17 15-6 16-2 10 31-3 20-7 45-7 55-1 9-5 17-9 17s-8 5-8 11-12 26-26 45c-15 19-21 34-15 34s13 11 17 25c4 16 13 25 26 25 18 0 19 2 7 16-11 14-11 18 4 29 14 10 15 14 5 18-9 3-6 10 10 22 18 13 22 23 18 41-4 14-2 24 4 24 5 0 10-6 10-14 0-7 7-19 16-27 12-10 17-10 23 0s11 10 22-2c9-9 22-11 34-6 31 12 39 10 65-14 24-22 26-22 43-5 9 10 13 18 8 18s-12 15-15 33c-5 28-12 34-48 44s-46 9-68-6c-46-32-61-33-96-6-19 14-34 21-34 15 0-7-6-5-15 4-10 9-31 14-60 13-25-1-47 3-49 8-3 6-5 2-5-7-1-17-21-26-21-10 0 4-8 9-17 10-65 7-95 7-105 1z"/><path d="M2597 2823c-38-6-29-25 20-43 27-10 38-20 35-30-4-12-2-13 9-2 18 16 29 15 29-3s20-20 20-2c1 6 9 2 19-10 20-24 81-33 81-12 0 5 5 7 10 4 6-3 10-16 10-28 0-18 2-19 10-7 16 24 12 80-5 80-8 0-15 4-15 8 0 5-19 14-42 21-24 7-57 17-74 22-31 9-55 10-107 2zM1557 2576c-61-42-68-50-37-41 14 4 36 17 50 30 14 12 34 27 45 33 14 8 15 11 5 11-8 0-37-15-63-33zM1590 2547c-76-54-120-91-120-103 0-6-14-23-32-38-23-18-27-26-15-26 10 0 17-8 17-19 0-29 18-35 23-9 3 17 5 15 6-9 1-26 4-31 19-26 15 6 14 3-3-17-20-23-20-23 20-16 30 6 51 19 86 57 25 27 49 49 52 49 4 0 19 13 35 29 36 38 82 51 82 25 1-16 4-15 25 8 15 17 30 26 39 22 22-8 40 40 26 67-6 10-17 19-25 19s-15 4-15 8c0 5-39 9-87 10-84 2-90 0-133-31zM800 2550c-9-16-7-24 5-36 17-17 20-44 5-44-6 0-9-6-8-12 2-7-5-12-14-10-11 2-18-3-18-13 0-23-15-18-28 9-13 30-56 44-47 15 5-14 2-17-8-13-8 3-18 0-23-7-4-7-3-14 4-17 14-4 4-32-13-32-19 0-12-27 10-44 17-12 20-11 30 8 7 15 28 25 70 35 33 8 62 17 65 21s29 13 58 20c51 14 52 14 52 52 0 32-4 39-25 44-16 4-25 13-25 25 0 28-75 27-90-1z"/><path d="M657 2491c-7-28 4-34 20-12 8 12 20 17 33 14 11-3 20 0 20 6s-15 11-34 11c-25 0-35-5-39-19z"/></g><g fill="#999D9A" style="transform:none"><path d="M2140 3080c0-6 16-10 35-8 19 1 35 6 35 10s-16 8-35 8-35-5-35-10zM2165 3050c-3-5-15-10-26-10-10 0-19-5-19-11s-9-9-19-6c-14 3-21-2-25-16-5-20-6-20-24-4-10 9-22 14-26 10-3-4-14-8-24-9-9-2-33-6-52-10s-42-8-50-9-23-6-34-10c-14-6-18-5-14 6 2 8 27 22 54 32 27 9 38 15 24 12-14-2-51-5-82-5-44 0-58-3-58-15 0-8-12-21-27-30-27-15-27-16-3-10 14 4 32 9 42 11 30 9 28-13-2-26-17-7-30-16-30-21s-3-8-7-8c-23 4-33-3-33-22 0-15-5-19-18-15-44 14-135 15-166 2-63-28-97-38-121-38-14 0-25-5-25-10s-8-8-17-5c-10 2-33-5-50-15-18-11-37-17-42-14s-14-1-21-9-19-15-27-15c-28 0-93-43-93-61 0-10 5-30 12-44 9-19 19-25 45-25 23 0 33 5 33 15s14 17 40 21c22 4 40 11 40 16 0 19 46 47 76 48 30 0 70 15 124 45 14 8 46 15 72 15s67 6 90 14c24 8 67 16 97 20 30 3 57 9 60 14 9 14 62 25 104 23 21-2 43 2 50 7s28 13 47 17c43 9 60 22 60 46 0 26 50 25 73-1 12-15 29-20 64-20 43 0 45 1 27 15-19 14-18 14 4 15 12 0 22 6 22 14s8 16 17 18c15 3 15 4-1 21-16 16-57 22-113 17-17-1-21 3-17 14 7 18-1 22-11 6zM2930 3040c-25-5-85-9-133-9-85-1-88-2-85-22 3-21 7-22 121-20 73 1 117-3 117-9 0-7 6-7 18-1 9 5 39 15 65 22 35 9 47 16 45 28-4 19-75 24-148 11zM1945 2703c-27-14-52-29-55-34-3-4-16-9-30-10-42-6-38-41 7-60 21-10 39-13 41-9 2 5 9 7 16 4 8-3 21 2 30 11s24 15 34 13c24-5 51 21 45 43-5 19 17 49 36 49 6 0 11 5 11 10 0 19-85 9-135-17zM2830 2700c5-16 6-30 4-30-3 0 4-9 14-20 11-12 27-39 37-60 10-22 22-40 27-40 4 0 8-6 8-13 0-8 9-22 20-32 18-17 19-16 26 9 6 27-23 136-37 136-5 0-21 18-35 40-18 27-34 40-50 40-20 0-22-3-14-30zM1223 2513c-3-10-8-21-10-25-1-3 6-4 18-1 17 5 20 2 17-13-2-12-13-20-31-22-15-2-27-8-27-13 0-6-5-7-10-4-6 3-17-1-25-9-9-8-31-18-50-22-19-3-35-10-35-16 0-11 82-9 175 5 39 5 82 10 97 11 14 1 36 12 47 25 26 30 27 41 2 41-10 0-33 3-51 7-24 4-31 3-26-5 4-7 2-12-3-12-6 0-11 11-11 25 0 18 4 23 15 19 9-4 15 0 15 10 0 24-98 23-107-1zM2976 2348c-4-24-9-66-11-95-1-28-5-68-9-87-9-46 12-108 34-104 17 4 22 78 5 78-5 0-2 7 8 14 14 11 16 22 11 53-4 27-1 50 9 69 9 17 11 35 6 44-4 8-10 27-14 43-8 42-31 33-39-15zM1470 2241c-19-10-37-26-39-36-2-14 7-11 40 15 24 19 46 35 48 37 15 11-20 0-49-16zM1500 2211c-24-13-37-27-41-50-9-43 5-39 63 19 54 54 45 67-22 31z"/></g><g fill="#9AA8B1" style="transform:none"><path d="M1092 2729c-46-11-108-30-137-43-29-14-70-28-91-32-48-8-94-31-94-45s75-8 240 19c146 23 180 31 198 45 14 11 16 47 3 47-5 0-7-10-4-22 3-19 1-18-12 6-14 24-15 30-3 37 20 13-4 10-100-12zM1304 2141c-23-20-63-48-90-61-26-14-63-37-82-52-18-15-51-35-73-45-36-17-51-33-30-33 17 0 86 36 150 78 35 23 68 42 73 42s21 12 36 26 39 32 55 40c29 16 35 29 14 37-7 2-31-12-53-32zM2972 2088c-5-19-5-38 0-44 4-6 5-50 2-96-5-59-3-87 5-92 6-4 11-17 11-29 1-21 1-21 12-3 6 11 12 67 14 125 3 102-7 171-26 171-5 0-13-15-18-32zM1786 1421c-24-5-27-8-15-18 24-19 111-25 133-8 11 8 18 16 15 18-9 8-105 14-133 8z"/></g><g fill="#B4AD9D" style="transform:none"><path d="M3720 3335c0-18-12-19-27-4-6 6-28 9-49 7-32-2-40-7-42-26-4-26-30-41-41-23-4 6-31 14-59 18-52 6-52 6-52-36 0-31 5-43 18-47 49-17 83-37 93-56 11-20 13-20 24-5 13 18 27 13 19-8-6-15 23-28 31-15 4 6 11 10 16 10 6 0 7-5 4-10-3-6 0-17 9-25 19-20 26-19 27 3 0 11 2 12 6 4 10-24 50-62 67-62 9 0 16-6 16-12 0-9 3-9 9 1 7 11 12 10 22-8 8-11 21-21 30-21 8 0 28-13 44-30 16-16 34-30 41-30 21 0 22-24 2-47-20-22-20-22 26-69 46-48 46-48 46 219s0 267-30 267c-17 0-41-7-54-15-21-14-24-14-29 0-4 9-19 15-41 15-19 0-38 5-41 10-10 17-85 12-85-5z"/><path d="M3079 3206c-11-11-155-28-272-32-71-2-137-9-147-14-10-6-28-10-39-10-12 0-21-6-21-14s-6-16-12-19c-31-11 3-15 57-8 55 8 87 4 58-6-7-3-13-12-14-21 0-11-2-12-6-4-6 15-73 16-73 1 0-5 5-7 10-4 19 11 10-22-10-40-26-24-19-30 41-31 27-1 55-7 63-13 10-8 16-9 21-1 3 5 22 10 41 10 22 0 34 5 34 14 0 23 50 48 99 49 25 0 109-6 186-13 166-16 254-18 263-3 21 32 162 19 162-15 0-9 9-23 21-30 28-18 189-29 189-13 0 6-9 11-20 11-12 0-17 5-14 14 3 8-5 21-18 30-15 11-18 16-8 17 8 0-1 6-20 13-20 8-38 9-41 4-13-20-119 53-119 83 0 5-6 9-14 9s-16 5-18 12c-3 8-13 4-29-11-19-18-25-19-27-7-3 12-20 15-85 15-126-1-200 6-205 19-4 12-24 16-33 8zM2270 3173c-19-2-39-9-44-14-6-5-18-9-28-9s-18-4-18-10c0-5-15-13-32-18-18-4-34-16-36-25-2-12 1-15 12-11 9 3 16 1 16-5s28-9 80-7c47 2 80 0 80-6 0-12 57-3 75 12 8 6 19 9 25 5 6-3 10 3 10 14 0 12-6 21-14 21-9 0-16 12-18 28-3 23-8 27-38 28-19 1-51-1-70-3zM2075 2998c-10-44-22-57-45-51-11 3-20 0-20-6s-9-11-19-11c-11 0-23-5-26-11-4-6-13-8-21-5-22 8-17-41 6-64 11-11 20-27 20-35 0-9 13-24 30-33 16-9 30-25 30-34 0-15 9-18 46-18 64 0 134 19 147 41 7 11 18 19 25 19 8 0 22 10 32 23 16 19 27 22 96 22 53 0 79 4 81 13 3 6 11 12 20 12 24 0 73 40 73 59 0 12-8 17-32 16-18 0-37 1-42 4-16 7-80 10-109 4-22-4-28-9-24-24 3-12 0-19-9-19-8 0-14-9-14-20s-4-20-10-20c-5 0-10 5-10 11 0 5-4 7-10 4-5-3-10 1-10 9 0 9 5 16 10 16 20 0 9 27-15 38-14 6-25 17-25 23s-7 9-15 5c-8-3-15 0-15 6s-3 9-6 6c-3-4-14 2-25 13-14 14-27 17-45 13-16-4-31-1-43 11-18 16-19 15-26-17zM2680 2905c0-38 24-95 40-95 6 0 10-7 10-16s14-21 30-27c17-6 30-17 30-24s6-10 13-8c6 3 22-12 34-33 20-36 25-39 66-39 39 0 43 2 31 14-20 21-17 26 11 19 29-7 32 0 8 26-10 11-22 33-28 50-6 20-28 43-60 65-27 18-55 37-62 43-7 5-17 10-23 10-5 0-10 3-10 8 0 6-72 42-85 42-3 0-5-16-5-35zM862 2593c-31-32-52-67-52-85 0-7 9-2 20 12 22 29 40 19 21-12-11-19-11-20 4-14 21 8 55-1 55-15 0-5-9-9-20-9-14 0-18-5-13-16 5-14 16-15 61-11 30 3 59 10 65 16 13 13-2 128-20 146-25 26-89 19-121-12z"/></g><g fill="#BFBDAE" style="transform:none"><path d="M3900 3481c-45-6-45-6-48-48-2-26 1-43 7-43s11-4 11-10c0-5-7-10-15-10-22 0-55-37-55-60 0-17 4-19 25-14 22 5 28 2 38-25 13-36 53-53 68-30 5 8 7 19 5 25s5 16 17 24c15 9 22 10 25 1 2-6 8-9 13-5 5 3 9 50 9 105 0 112 8 104-100 90zM3018 3373c-28-7-22-33 8-33 19 0 25-4 22-17-2-10-10-18-18-19-111-8-134-43-40-61 13-2 26-6 28-7 2-2 19 0 38 4s36 4 39 0c7-12 45 0 42 13-1 6 12 11 28 12 17 2 36 3 43 4 26 3 12 37-20 46-26 8-34 16-36 38-3 26-5 27-60 26-31-1-65-3-74-6zM2860 3349c-90-11-129-20-137-32-4-7 26-8 93-4 114 7 144 14 144 33 0 15-1 15-100 3zM3689 3289c23-9 23-10 6-23-11-8-18-25-17-44 0-18-4-34-9-38-14-8 0-24 22-24 11 0 19 7 19 18 0 28 14 42 38 35 17-4 20-11 16-27-4-18-1-22 18-21 13 0 29 4 36 8 9 6 24-3 47-27 18-20 38-36 44-36 19 0 22 20 5 45-10 15-12 25-5 25 6 0 11-4 11-10 0-5 10-10 23-10 21 1 21 2-7 25-16 13-56 30-88 38-55 14-59 14-53-1 4-10 7-19 8-22s-2-7-8-10c-5-3-11 5-13 18-2 12-10 22-18 22-16 0-34 38-27 58 4 8-7 12-33 11-35 0-37-1-15-10zM2333 3206c-18-5-34-17-36-25-4-14-5-13-6 1-1 13-7 15-28 9-22-6-29-14-31-39-3-32 5-40 24-23 5 5 27 11 49 13 37 3 40 1 43-24 3-22 9-28 30-30 42-3 96 3 102 10 7 10 73 32 93 32 13 0 17 10 17 45 0 44 0 44-112 43-62-1-127-6-145-12zM3390 3107c0-10-8-14-26-12-14 1-28-3-31-11-2-7-11-10-19-7-20 7-18-14 4-37 16-17 32-19 142-19 103 1 121 3 107 14-9 7-17 19-17 28 0 17-8 20-81 36-25 6-53 13-62 17-11 4-17 1-17-9zM2573 2943c-25-3-33-9-33-24 0-14 7-19 25-19 21 0 25-5 25-31 0-22-5-32-20-36-11-3-20-11-20-19 0-15 60-29 90-21 11 3 20 2 20-2s10-7 23-8c12-1 36-4 52-7 25-5 32-2 41 18 10 21 8 26-13 37-26 14-53 57-53 83 0 8-5 18-10 21-14 8-86 13-127 8zM1861 2914c-7-9-22-13-32-11-12 3-19 0-19-10s-6-12-20-8c-11 4-20 2-20-4s-17-11-37-11c-21 0-56-7-78-15s-62-14-90-15c-27 0-61-7-75-15-55-31-94-45-119-43-29 2-80-29-81-49 0-6-8-12-17-12-57-3-64-6-61-25 4-29 44-46 111-46 50 0 57 2 57 20 0 13 7 20 20 20 12 0 20 7 20 18 0 14 7 17 40 14 22-2 40 0 40 6 0 5 22 12 50 16 27 4 55 12 62 19 28 28 47 27 77-3 23-24 38-30 70-30 29 0 41 4 41 15 0 12 5 12 41 0 23-8 52-15 64-15s28-7 35-15c15-18 73-19 135-3 35 10 45 17 45 33 0 18-5 21-31 17-30-4-31-3-25 21 5 20 3 25-7 21-8-3-25 4-38 15-16 14-19 20-9 21 21 0-68 80-90 80-10 0-24 2-32 5-7 2-19-3-27-11zM755 2618c-16-5-43-16-58-24-16-8-37-14-47-14-9 0-23-6-29-13-6-8-30-19-53-26-24-7-49-18-57-25-16-13-83-49-124-66-15-7-27-18-27-26s-5-14-11-14c-5 0-7-5-4-11 4-6 13-8 21-5s14 1 14-4 7-7 15-4c8 4 15 2 15-3 0-13 66-9 83 6 8 6 17 8 20 4 4-3 9 2 13 11 4 10 13 14 24 11s20 0 23 10c4 8 13 12 22 9 10-4 15 0 15 11s5 15 15 11c9-3 15 1 15 11 0 11 3 13 13 5 9-8 16-6 24 8 8 12 19 16 33 13 11-3 20-1 20 5 0 14 73 24 81 10 4-7 11-3 18 11 7 11 21 21 31 21 24 0 28 35 5 44-8 3-15 15-15 26 0 16-6 20-32 19-18-1-46-6-63-11zM960 2479c-8-5-29-9-47-9-17 0-43-4-57-10-16-6-27-6-31 0-9 14-25 12-23-2 2-7-5-12-14-10-11 2-18-3-18-13 0-8 7-15 15-15s15-5 15-10c0-18 133 5 151 26 6 8 18 14 25 14 15 0 19 26 6 34-4 2-14 1-22-5z"/></g><g fill="#B0BDCA" style="transform:none"><path d="M2918 2625c-3-4 1-19 9-36 8-16 11-38 8-49-4-12-2-27 4-33 5-7 20-49 31-92 20-74 38-113 41-90 5 37 6 116 2 146s-8 36-24 32c-20-6-26 11-8 23 8 4 8 8 1 13-6 4-17 24-24 46-12 37-28 52-40 40zM1715 2496c-22-11-52-33-68-48-15-16-29-28-32-28-2 0-36-31-75-69-38-38-88-84-111-102-83-67-109-91-109-101 0-24 64 5 142 64 46 35 108 77 138 92 30 16 85 56 122 89 61 53 68 62 65 93-2 40-14 41-72 10zM1890 2025c-14-7-28-11-33-8-17 11-108-20-139-48-18-16-43-32-55-35-13-3-23-10-23-15s-7-9-16-9c-8 0-34-8-57-19-23-10-49-20-57-23s4-8 27-11c36-6 52-2 105 25 35 18 83 39 108 47 60 18 100 38 141 72 38 31 37 45-1 24z"/></g><g fill="#CAC9B0" style="transform:none"><path d="M3930 3580c0-11-53-36-97-45-18-3-35-14-38-23-3-12-28-23-77-35-40-9-97-24-126-32-44-12-216-27-299-26-12 1-25-4-28-9-3-6-18-10-33-10-24-1-136-28-120-29 4-1 3-15-2-31-8-27-6-32 19-44 14-8 43-17 63-21 30-6 37-4 41 12s5 16 6 1c1-21 27-24 34-5 3 7 6 5 6-5 1-22 11-23 37-4 17 13 21 12 39-4 11-10 36-22 55-25s39-10 44-16c6-5 21-9 35-9 24 1 25 2 9 14-10 7-18 22-18 32 0 15 2 16 9 5 5-7 14-11 20-7s20-2 32-13c15-14 26-17 38-11 9 5 24 11 34 14 9 3 17 14 17 25s4 22 9 25c13 9 71-24 71-40 0-8 7-14 16-14 10 0 14 6 11 14s1 17 10 20c8 4 13 13 9 21-3 8-1 15 5 15 5 0 12-7 15-15 9-22 38-18 68 10 14 13 26 20 26 15 0-20 28-9 34 13 9 36 7 55-10 71-21 22-11 32 33 35 21 2 46 3 56 4 14 1 17 12 17 69 0 68 0 68-35 68-19 0-35-4-35-10zM2950 3294c-36-7-97-13-136-14-39 0-95-4-125-9-30-6-94-15-144-22-79-10-132-21-212-45-50-14-17-21 102-19 96 1 125-2 125-12 0-7-12-13-27-13-26-1-26-2-9-12 30-17 415-3 434 16 18 18 9 46-16 46-10 0-23 5-30 12-9 9-12 9-12 0 0-10-5-10-21-2-22 12-19 22 9 27 41 7 78 12 98 12 14 1 24 9 27 23 4 12 5 23 4 23-1 1-31-4-67-11zM2210 3176c-19-6-41-15-47-19-7-5-17-5-23-2-5 3-22-1-38-9s-32-13-35-10-23-4-46-16c-23-11-41-17-41-13 0 5-4 3-8-4s-67-32-140-56c-73-23-142-51-152-60-11-9-24-17-29-17-11 0-22-26-14-33 2-3 20 1 38 9 19 8 43 14 54 14 24 0 197 55 231 74 44 24 134 50 178 51 24 1 51 8 61 16 9 8 24 15 32 17s19 10 25 18c6 7 16 14 23 14 6 0 3 9-6 20-10 11-20 20-23 19s-21-6-40-13z"/></g><g fill="#C6C7C4" style="transform:none"><path d="M3980 3427c-20-16-19-77 2-108 17-24 17-23 17 49 1 39 0 72-1 72-2 0-10-6-18-13zM2928 3193c-6-7-15-10-20-7-17 11-78-6-78-21 0-23 47-29 136-15 45 6 88 9 93 5 6-3 11 2 11 12 1 17 1 17 11 0 8-13 22-17 62-16 29 0 66-3 82-8 72-21 195 2 134 25-22 9-47 13-164 28-86 12-256 9-267-3zM2873 3097c-3-5-11-6-18-4-6 3-25-3-41-14-20-13-47-19-86-19-62 0-78-11-53-36 12-13 45-17 162-20 96-2 151 0 160 7 7 6 23 9 36 5 13-3 66-5 118-5 169 1 281-5 319-15 8-3 41-7 74-11 32-3 66-9 75-14s48-11 86-14c71-6 119-14 143-22 6-2 12 2 12 10s-4 15-10 15c-5 0-19 10-32 23-17 16-33 22-58 20-50-4-158 16-205 37-22 11-53 20-70 22-16 2-33 10-37 18-6 12-8 11-13-5-5-15-15-20-41-20-19 0-38 5-42 11-9 13-62 17-62 3 0-6-9-8-21-4-32 11-65 14-179 20-58 3-118 10-135 15-34 11-74 10-82-3zM2530 2933c-8-3-27-14-42-24-14-11-33-19-41-19-9 0-17-4-19-9-5-14-48-24-48-11 0 14-52 10-62-5-5-6-11-5-17 4-7 12-15 9-38-15-16-16-35-29-41-30-46-4-47-4-34-13 20-12-2-25-75-47-47-14-63-23-63-36 0-22 4-22 64-4 25 8 49 15 51 15 3 1 6 1 8 2 9 3 38 8 72 14 22 4 49 12 60 20 51 32 221 44 229 15 3-13 4-13 5 1 1 12 9 14 33 11 42-6 56 15 51 75-2 26-5 48-6 49-8 6-75 11-87 7zM1627 2830c-3-13-10-18-21-14s-16 1-16-10c0-16-27-26-80-30-19-1-30 3-30 11 0 7-5 13-11 13-7 0-9-10-5-25 4-17 3-23-6-20-7 2-25 7-40 9-25 4-28 1-29-22-1-16-3-20-6-10-5 19-33 13-33-7 0-7-6-16-12-18-10-4-10-6 0-6 6-1 12-5 12-11 0-17-52-11-66 8-10 12-13 13-14 3 0-9-4-10-12-3-7 5-23 13-35 16-18 6-21 4-16-16 4-21 3-21-7-5-9 14-15 16-25 7-8-7-19-9-24-6-5 4-12 2-16-4s-11-8-16-4c-5 3-15 1-22-4-15-12-87-21-87-11 0 8-34 2-65-11-11-5-33-11-50-13-61-11-88-26-82-47 3-11 1-20-5-20-12 0-5-25 8-25 5-1 19-4 31-8 16-6 28-1 47 18 29 29 39 31 60 9 18-18 21-34 6-34s-12-16 5-34c14-13 13-16-5-26-35-19-12-33 43-27 35 5 59 14 77 32 14 14 35 25 46 25 27 0 44 19 44 47 0 25 4 27 71 23 26-1 50 3 53 9 4 6 19 11 33 11s31 7 37 15c7 10 30 16 70 16 50 1 62-2 77-20 18-22 82-30 94-11 3 6 15 10 26 10s31 11 45 25 28 25 32 25 15 9 25 20c23 28 77 24 77-5 0-13 43-25 91-25 44 0 119 39 119 61 0 12-7 19-18 19s-27 9-36 19c-10 11-30 19-49 18-40 0-117 33-117 52 0 11-3 11-15 1-8-7-15-23-15-36 0-33-26-31-44 4-8 15-15 23-16 19 0-5-12 0-27 11-47 32-51 33-56 12zM2859 2733c0-5-2-21-4-36-3-22 5-36 36-66 21-21 39-44 39-51 0-8 3-10 7-6s8 26 8 49c1 34-5 49-34 80-33 35-50 46-52 30z"/></g><g fill="#D0D3D1" style="transform:none"><path d="M2624 3312c-21-11-32-12-46-3s-19 7-29-10c-11-21-10-21 37-14 27 3 53 11 59 16 5 5 22 9 39 9 16 0 26 3 22 8-12 12-53 9-82-6zM2800 3175c0-8-5-15-11-15-5 0-7 5-4 10 8 13-195 4-250-11-22-6-50-13-62-16-13-3-23-9-23-12 0-4-13-6-30-3-21 3-30 0-30-9 1-32 17-41 61-35 24 3 67 9 94 12 28 3 61 9 75 14 42 14 82 22 140 27 30 2 56 6 59 8 2 3 9 1 15-4 6-4 27-4 46 2 22 6 29 12 20 15-8 3-17 8-20 12s-22 10-42 14c-31 6-38 4-38-9zM2025 2736c-16-6-37-15-45-21-16-10-80-35-92-35-5 0-8 7-8 15 0 18-26 20-33 3-4-8-6-7-6 3-2 27-52 42-100 29-22-6-41-15-41-21 0-5-7-12-16-16-9-3-27-17-40-29-12-13-30-24-39-24s-15-9-15-25c0-29 2-30 39-10 21 11 53 13 126 10 63-3 103-1 111 6 7 6 22 8 34 4 13-4 20-2 20 7 0 13 124 78 149 78 6 0 11 5 11 10 0 6 7 10 15 10s15 5 15 10c0 13-46 11-85-4zM1162 2617c-24-14-32-25-29-38 6-22-17-43-39-35-10 4-24-5-41-24-13-17-30-30-36-30-7 0-30-5-51-11-33-9-37-13-23-21 20-11 114-4 172 13 45 13 117 53 135 74 7 8 23 15 36 15 21 0 24 5 24 35 0 27-4 35-18 35-10 0-23-5-30-12-8-8-15-8-26 1-8 7-19 10-25 7-5-3-11-2-13 2-1 5-18 0-36-11z"/></g><g fill="#DBE3E4" style="transform:none"><path d="M3937 3595c-8-8-17-11-21-8-3 4-6 0-6-9 0-17-30-34-77-43-17-3-34-13-37-21-7-17-9-17 78 3 39 9 76 22 82 30 6 7 19 11 28 7 13-5 16 0 16 25 0 26-4 31-24 31-14 0-31-7-39-15zM3314 3419c-2-4-13-5-23-2s-22 0-25-6c-4-6-19-11-34-11-41-1-127-26-114-33 5-4 21-3 35 2s67 12 118 15c52 2 101 7 109 9 8 3 31 8 50 12 113 20 114 22 2 21-63 0-115-3-118-7zM2980 3368c-30-5-77-11-105-14-73-7-97-13-90-24 4-6 38-8 83-5 117 8 155 15 179 30 12 8 29 12 37 9 9-3 16-1 16 5 0 13-40 12-120-1zM1441 2669c-19-4-47-6-63-4-20 3-32-2-41-15-7-12-23-20-41-20-24 0-27-3-23-21 4-16 2-19-10-14-10 3-27-4-42-19-30-28-117-76-138-76-17 0-43-24-43-39 0-13 2-13 32-2 13 5 48 11 78 14 30 4 71 11 89 16 19 6 55 13 80 16 165 20 223 34 257 65 19 16 40 30 46 30s8 3 5 7c-4 3 1 15 10 26 18 19 17 19-17 12-19-4-41-12-48-18-9-7-17-4-28 11-8 12-23 22-33 22-9 0-21 4-26 8-6 5-25 6-44 1zM1930 1634c-12-14-12-18 5-30 22-16 34-17 55-4 12 7 12 13 4 27-15 24-48 28-64 7z"/></g></svg>