<svg class="img-fluid" xmlns="http://www.w3.org/2000/svg" style="transform:matrix(1.11388,0,0,1.11388,-52.4482,26.4202);transform-origin:50% 50% 0;cursor:move;max-height:357.64px;transition:transform 200ms ease-in-out 0s" width="320" height="320" viewBox="0 0 3200 3200"><path d="M1825 1410c-11-4-31-19-44-34-59-63 19-186 118-186 20 0 32 6 36 19 5 16 13 18 44 14l39-5 7 50c8 62 0 102-26 131-17 18-31 21-87 20-37 0-76-4-87-9z" fill="#1B1B1C" style="transform:none"/><g fill="#363737" style="transform:none"><path d="M315 1597c-27-4-55-13-62-19-31-25-5-167 39-216 38-43 141-111 207-137 31-12 74-33 96-47 48-30 205-111 255-131l36-14 1 88c1 85 0 89-21 89-12 0-29-9-39-20-10-12-29-20-46-20s-33-4-36-10c-4-6-28 4-58 23-29 18-60 36-69 40-12 4-18 17-18 38 0 19-10 46-26 66-21 28-31 33-65 33-45 0-64 24-36 45 10 7 17 19 17 28s5 19 10 22c6 3 10 28 10 56 0 27-4 49-10 49-5 0-10 9-10 21 0 11-4 18-8 15-5-3-33-2-63 2s-76 4-104-1zM907 1543c-10-3-30-11-45-19-16-8-28-10-30-4-4 12-52 13-68 2-6-4-14-19-18-34-3-16-13-28-22-28-11 0-14-9-12-32l3-33 70-6c39-3 78-9 88-13 22-10 106 10 129 31 9 8 19 32 23 54 6 33 3 42-21 64-26 24-54 29-97 18zM1630 1515c-25-13-57-30-72-37-22-10-28-19-28-44 0-22-7-36-24-47-13-9-26-30-30-49-4-18-9-45-12-59-5-21-1-27 15-32 12-3 21-12 21-21 0-25 60-22 67 4 7 25 11 25 34-1 11-12 27-19 41-17 20 3 23 10 26 48 2 25 9 59 16 75 8 17 16 39 18 49 1 11 17 27 33 36 36 20 44 57 19 94-21 33-63 34-124 1zM970 1167c0-35 69-87 114-87 33 0 36 3 36 28 0 44-48 82-105 82-40 0-45-2-45-23zM1987 1140c-26-14-56-20-102-20h-65v-30c0-20 7-33 21-41 32-17 138-7 184 17 34 18 40 26 43 57 3 33 1 37-20 37-13 0-40-9-61-20z"/></g><g fill="#424039" style="transform:none"><path d="M309 2055c-60-39-89-81-82-118 14-76 28-95 84-111 66-20 89-20 89-1 0 8 7 15 15 15 10 0 15 11 15 35 0 19-4 35-10 35-5 0-10 7-10 15s-4 15-10 15c-5 0-10 7-10 16 0 12-9 15-41 12-27-2-44 1-46 10-3 6 2 12 11 12s16 4 16 9 9 11 20 14c15 4 20 14 20 36 0 37-12 38-61 6zM1740 2026c0-16-21-26-56-26-16 0-31-11-49-37-14-21-32-48-41-60-12-16-14-33-10-58 6-31 10-35 38-35 20 0 46 13 80 40 28 22 55 40 59 40 5 0 9 9 9 19 0 11 5 23 10 26 6 3 10 28 10 56 0 46-2 49-25 49-15 0-25-6-25-14zM700 1969c0-5-12-9-27-9-16 0-49-8-75-17-39-14-48-21-48-41s4-23 23-18c40 12 311 56 345 56 25 0 32 4 32 20 0 19-7 20-125 19-69-1-125-5-125-10zM1420 1745c-14-7-40-21-58-29-65-30-92-56-92-87 0-24 4-29 23-29 13 0 28 5 35 12 9 9 12 9 12 0 0-14 53-16 78-3 9 5 24 12 33 14 17 5 39 68 39 111 0 20-5 26-22 26-13 0-34-7-48-15zM1810 1595c-19-13-43-24-53-24-24-1-57-19-57-31 0-5 11-21 25-36s23-34 20-42c-4-11 1-13 22-8 16 3 43 9 61 12 17 4 32 12 32 18 0 26 38 36 85 24 25-7 45-16 45-20s9-8 20-8 29-13 42-30c12-16 28-30 35-30s15-10 17-22c15-75 15-87-4-111-11-14-20-30-20-36s-9-20-21-32c-22-22-41-97-21-85 7 4 12 1 12-8 0-8-4-17-10-21-5-3-6-13-3-21 5-13 16-14 56-9 28 4 57 14 65 21 7 8 22 19 33 24 10 6 19 20 19 30 0 11 9 29 21 41s26 48 35 91c8 38 21 77 29 85 20 19 20 73 0 73-8 0-15 6-15 13 0 19-33 47-56 47-10 0-28 7-38 15-11 8-30 15-43 15s-23 4-23 8c0 11-114 62-138 62-12 0-24 5-27 10-12 20-108 10-145-15zM2578 1421c-10-10-18-23-18-29 0-7-11-12-25-12-23 0-25-3-25-53 0-58 11-71 85-94 62-19 91-16 109 12 23 35 20 57-13 91-18 19-31 43-33 64-3 31-7 35-33 37-18 2-37-5-47-16zM1646 1243c-6-15-8-15-16-3-7 11-10 5-10-20 1-46 44-108 95-134 43-23 113-46 139-46 20 0 21 26 1 34-22 8-18 26 5 26 11 0 20 5 20 10 0 6 9 10 20 10 14 0 20 7 20 23 0 30-8 40-57 70-23 14-44 31-48 37-8 13-62 13-70 0-3-5-19-10-36-10-16 0-29 5-29 10 0 17-27 11-34-7z"/></g><g fill="#474644" style="transform:none"><path d="M377 1950c-16-26-16-30-3-30 9 0 16-7 16-15s4-15 8-15c5 0 9-7 9-15s-6-15-14-15c-7 0-13-9-13-19 0-11-8-22-17-25-10-3 1-4 24-2s54 13 68 24 48 25 75 32c29 7 47 16 44 22-4 6 0 14 7 19 20 12 10 17-61 28-38 6-67 17-72 26-15 26-52 18-71-15zM985 1699c-22-17-42-33-45-37s-22-18-42-32c-38-25-50-50-25-50 23 0 67-25 67-37 0-7 4-13 9-13 4 0 19-10 32-22 28-26 27-58-2-84-35-31-25-51 31-59 28-4 50-11 50-16 0-14 44-11 65 4 14 11 16 21 11 49-4 20-14 42-23 49-14 12-12 15 23 25 28 8 40 17 42 32 2 12 8 22 13 22 15 0 10 50-6 56-8 4-15 17-15 30 0 34-25 31-104-11s-94-45-42-8c35 25 37 31 32 63-3 19-6 43-6 53 0 24-19 20-65-14zM470 1590c-8-5-11-10-7-10s-4-11-18-24l-25-24 27-5c16-3 32 0 36 6 5 7 6-9 3-35-5-45-4-48 17-48 13 0 28 5 34 11 8 8 13 8 17 0 9-14 63-15 71-1 11 18 34-2 37-33s5-32 51-35c45-3 64 9 32 22-20 7-19 26 0 26 9 0 18 13 22 31 4 22 8 27 14 17 5-7 9-10 10-5 7 37 20 67 30 67 5 0 9 12 9 26 0 21-3 24-14 15-14-12-267-9-311 4-11 3-27 1-35-5zM2226 1503c-4-9 2-25 14-38 11-12 20-29 20-38 0-10 5-14 15-11 19 7 20-10 2-28-17-17-38-78-31-89 3-5 1-9-5-9-5 0-12 6-14 13-4 8-6 7-6-3-1-23 43-50 93-56l45-7 6 36c4 20 13 38 21 41 20 8 17 54-6 83-11 14-20 31-20 38 0 16-31 50-52 58-10 3-18 11-18 17 0 17-57 12-64-7zM1468 1439c-54-27-58-31-58-64 0-19 3-35 8-35 4 0 12-10 17-22 15-32 43-47 55-28 5 8 10 25 10 37 0 13 11 30 25 39s25 23 25 30c0 8 8 14 17 14 15 0 14 2-3 16-13 11-15 17-6 20 6 3 12 10 12 15 0 17-44 7-102-22zM587 1328c-22-24-25-33-16-44s9-21 1-38c-9-21-7-25 16-37 15-8 58-33 96-56 76-47 88-51 80-28-4 9 1 18 11 21 26 10 10 70-31 113-18 20-34 44-34 54s-8 17-20 17c-11 0-23 7-26 15-9 24-46 15-77-17zM1126 994c-9-8-16-26-16-39 0-20 13-30 74-60 40-19 76-35 80-35 3 0 6 25 6 55 0 42-3 55-15 55-8 0-15 9-15 20 0 17-7 20-49 20-32 0-55-6-65-16zM1360 880c0-5-14-10-31-10-55 0-31-31 51-66 41-18 125-53 185-79 61-26 144-60 185-75s105-39 143-54l67-26v34c0 18-7 39-15 46s-15 21-15 32c0 10-8 22-17 25-10 4-28 17-40 30s-31 23-41 23c-24 0-82 28-82 40 0 5-13 11-30 15-16 4-30 10-30 14 0 5-29 11-65 14-51 5-71 3-95-11-16-9-30-21-30-25 0-5-4-5-10-2-5 3-10 16-10 28 0 14-11 28-31 40-33 18-89 23-89 7zM2719 857c-9-7-20-31-24-54-5-35-3-46 14-64 12-13 21-29 21-36 0-16 76-18 85-3 3 6 22 10 41 10 27 0 34 4 34 19 0 45-15 84-42 112-23 23-38 29-71 29-23 0-49-6-58-13zM2097 595c-10-15-28-25-42-25-23 0-42-16-32-26 3-3 45-20 94-38 86-32 88-33 102-14 15 22 7 108-12 120-7 4-30 8-52 8-31-1-44-6-58-25zM2356 533c-22-6-46-27-46-41 0-5-9-12-20-15s-20-10-20-15c0-10 162-66 335-117 44-13 88-27 98-30 13-6 17-2 17 17 0 20-9 27-57 43-75 24-116 44-126 61-4 8-19 14-32 14-19 0-25 5-25 20 0 47-63 78-124 63zM2766 434c-12-11-15-31-12-77l3-61 134-41c74-23 151-49 172-58l37-16v68c0 95-14 131-51 131-19 0-29 5-29 15 0 19-48 21-56 2-9-24-86-8-115 24s-60 37-83 13z"/></g><path d="M1853 1523c-7-2-13-10-13-18 0-7-16-15-36-18s-45-14-55-23c-11-10-29-22-41-28-25-13-48-82-48-148 0-36 6-54 26-77 14-17 31-31 37-30 8 0 8 2 0 6-7 2-13 12-13 21 0 12 3 13 12 4 18-18 35-14 41 9 4 15 11 20 21 16 19-8 21 16 5 61-15 42 2 69 58 93 71 30 139 9 157-49 11-35-3-105-20-98-8 3-14 1-14-5 0-7-10-9-24-5-18 4-28 1-35-11-8-14-13-15-35-5-25 11-56 7-56-7 0-3 15-15 34-25 39-21 55-46 29-46-12 0-14-3-6-11 7-7 31-8 69-3 52 6 64 12 100 50 24 24 46 53 49 66 4 13 14 31 22 40 31 35-2 143-59 194-45 40-158 66-205 47z" fill="#605331" style="transform:none"/><g fill="#4B4D4D" style="transform:none"><path d="M1344 1781c-18-10-47-30-65-46-19-15-50-35-69-44-49-23-80-44-80-55 0-5-8-18-17-29-18-20-18-20 10-2 33 21 35 10 5-22l-22-23 31 6c18 3 33 1 37-5s3-11-3-11c-5 0-11-10-13-22-2-16-13-25-40-31-46-11-55-33-27-63 11-12 18-27 14-33-3-6 0-11 7-11 8-1 6-6-5-15-31-23-14-67 34-93 23-12 52-22 65-22 21 0 24 5 24 38 0 21-7 47-15 58-8 10-15 31-15 46s-7 33-15 42c-8 8-15 24-15 36 0 17 4 20 21 15 12-4 50-4 85 0 59 6 64 8 64 31 0 13-4 24-9 24s-12 18-16 40-11 37-17 34c-5-3-8 2-6 12s19 27 38 38c66 35 110 76 110 102 0 21-4 24-32 23-18-1-47-9-64-18zM840 1603c-8-3-24-16-36-29s-25-20-29-16-5-8-1-27c3-18 6-38 6-43s5-6 10-3c6 4 8 11 5 16-4 5-1 9 4 9 6 0 11-4 11-9s11-11 25-13c14-3 25-1 25 4s5 6 10 3c6-3 10-2 10 3 0 6 18 17 40 26 31 12 40 21 40 40 0 25-20 48-20 24-1-10-4-9-13 2-12 15-60 22-87 13zM620 1506c0-22-29-41-42-28-15 15-51 15-66 0-9-9-12-9-12 0s-5 9-20 0c-11-7-18-19-15-27s1-18-6-21c-6-4 31-11 83-15 94-8 94-9 7-29-40-9-42-31-8-66 37-37 52-38 77-5 14 17 22 21 25 13 3-7 6 6 6 30 1 35 4 42 20 42 17 0 19 5 14 36-3 20-17 47-30 60-28 28-33 29-33 10zM1390 1367c0-13 5-28 11-34 7-7 6-15-5-26-18-17-22-67-6-67 6 0 14-10 19-23 13-34 131-63 131-32 0 8 5 15 10 15 6 0 10 12 10 27 0 21-3 24-12 15-17-17-28-15-28 4 0 9-9 18-19 21-11 3-18 10-15 17s-4 21-16 31c-11 10-20 24-20 32 0 7-4 13-10 13-5 0-10 7-10 15s-9 15-20 15c-14 0-20-7-20-23zM713 1323c-34-6-29-42 10-83 19-19 34-39 35-45 10-52 54-63 93-22l22 22-7-30c-7-29-7-29 8-10 21 28 20 62-4 82-11 10-20 21-20 26 0 12-29 39-58 54-24 13-38 14-79 6zM2218 1285c18-23 20-71 2-60-8 5-30-39-30-61 0-8-7-17-15-20-30-12-14-24 30-24 25 0 45-5 45-11s7-17 15-25c8-9 15-25 15-38 0-29 47-56 98-56h41v68c0 68 0 68-33 80-18 7-56 12-84 12-29 0-52 2-52 5 0 16 44 45 69 45 17 0 31 6 35 16 9 25 7 64-4 64-5 0-10-5-10-10 0-13-49-2-70 15-8 7-21 10-27 8-7-3-13 0-13 6s-7 11-16 11c-13 0-12-4 4-25zM1040 1210c0-32 4-39 29-49 20-9 29-19 29-37 0-37-15-39-48-5-17 16-30 27-30 24s-9 2-20 12-20 13-20 8c0-6-27-16-60-22l-61-12 2-43 3-42 85-38c47-22 104-47 127-57 49-23 54-23 54-5 0 24 29 46 61 46 26 0 29 3 29 30 0 24-4 30-22 30-13 0-30 4-37 9-12 8-11 13 10 30 13 11 27 20 32 21 10 0 9 58-2 65-5 3-7 21-4 39l5 34h-162v-38zM2100 1111c0-7-6-11-15-7-8 3-15 0-15-7 0-9-3-8-9 1-6 11-17 9-50-9-23-12-62-24-87-27-52-6-59-27-11-35 92-16 125-18 131-8 5 7 28 8 66 4l60-6v35c0 31-4 37-27 43-15 3-31 12-35 18-6 9-8 8-8-2zM1483 1027c-14-7-24-24-28-49-7-40-24-48-45-23-36 43-134 56-146 19-2-8-7-22-11-31-3-10-5-21-5-25 1-5-3-8-9-8-8 0-8-5 1-15 10-12 10-15-1-15-8 0 6-11 31-24s46-19 48-14c2 4 16 8 32 8s30 5 32 12c3 7 12 9 22 5 9-4 14-12 11-18-4-6-1-10 6-8 28 3 38-1 33-16-4-8-1-22 6-30 10-12 10-15-1-15-8-1-1-8 14-16 28-15 41-13 43 7 1 5 2 13 3 17 1 8 50 36 61 35 3 0 17-3 33-7 23-6 27-3 27 17 0 16-9 26-30 34-23 9-30 18-30 37 0 14-4 26-9 26-6 0-11 24-13 53-3 48-5 52-28 53-14 1-35-3-47-9zM1610 983c0-27 4-53 8-59 11-18 48-34 76-34 16 0 26-6 26-15s9-15 25-15c14 0 25 5 25 10 0 6 23 10 50 10h50v34c0 42-21 60-60 53-16-4-32-2-35 2-2 5-17 12-32 16-15 3-39 15-54 26-15 10-39 19-53 19-24 0-26-3-26-47zM2622 859c-19-30-14-56 21-103 21-29 40-45 55-45 12-1 22-5 22-11 0-5 11-10 25-10s25 5 25 10c0 6-4 10-10 10-5 0-10 6-10 13s-9 23-20 35c-19 20-19 22-2 32 12 8 13 13 5 16-7 3-13 10-13 15 0 6 4 8 9 5 9-6 21 16 21 39 0 10-16 14-58 14-46-1-61-5-70-20zM2263 774c2-44-2-57-15-65-10-6-18-17-18-24 0-10-10-15-30-15-28 0-30 3-30 35 0 21-5 35-12 35s-24 16-38 35c-27 37-80 50-80 20 0-8-7-15-15-15s-15-4-15-8-16-6-35-4c-27 3-35 0-35-11 0-9-13-18-30-22-32-7-42-38-15-49 8-3 15-14 15-24 0-11 7-25 16-33 8-7 13-20 11-29-3-12 8-23 40-39 55-27 114-20 143 16 11 15 21 20 25 13 5-7 11-8 19-1 32 27 57-54 27-86-18-19-18-20 33-37 39-13 61-15 96-7 25 5 37 9 28 10-22 1-23 8-3 27 8 9 20 12 26 8 6-3 15-1 19 6 6 9 14 8 34-5 14-9 23-21 20-26s-1-9 5-9c7 0 7-8 1-26-10-25-9-25 24-23 20 2 39-3 49-12 15-16 25-20 127-58 30-11 46-21 35-21-11-1 2-9 30-20 28-10 54-14 59-9 12 10 15 79 4 79-13 0-9 17 7 34 14 14 18 14 35-1 10-9 17-20 14-25-3-4 0-8 6-8 7 0 10-7 6-15-8-23 5-75 19-75 8 0 11 12 8 36-2 23 0 33 7 29 5-3 10-1 10 4 0 6 9 11 20 11s20-4 20-9 9-7 20-4c12 3 20 0 20-6 0-7 4-10 10-6 5 3 7 12 4 19-3 8-1 17 4 20s12-3 15-13c3-13 12-18 31-16 20 3 27-2 32-20 3-14 12-29 20-36 12-10 14 1 14 65v76h-30c-20 0-30-5-30-15 0-8-9-15-20-15h-20l20 37c11 21 20 47 20 59 0 37-86 63-145 44-29-10-35-16-35-41 0-16-3-29-6-29-15 0-33 37-34 66 0 27-4 32-31 38-51 10-59 8-59-19 0-22-4-25-34-25-29 0-37 5-48 30-7 18-20 30-31 30-20 0-47 22-47 38 0 6-21 13-48 17-54 7-112 50-112 83 0 39-11 52-45 52-24 0-34 5-38 20-4 14-14 20-35 20h-31l2-56z"/></g><g fill="#505457" style="transform:none"><path d="M1159 1548c0-2-2-14-3-26-2-13-8-27-15-32-10-6-10-12 1-31 24-42 37-50 91-56 68-7 117 15 117 52 0 21-5 25-30 25-18 0-34 7-41 18-8 13-20 17-39 14s-35 3-49 17c-19 19-30 25-32 19zM463 1433c-11-8-30-15-42-16-26-2-27-12-3-29 9-7 22-22 28-33 14-24 76-24 99-1 8 8 24 12 36 9 12-4 25 0 29 8 5 7 12 10 16 6 4-3 1-13-6-22-9-11-9-15-1-15 7 0 23-12 36-27 17-20 25-23 26-13 0 8 4 5 7-8 7-24 29-31 24-7-2 9 4 12 18 8 11-3 20-1 20 5s12 4 30-5c17-8 28-19 25-24-4-5 1-9 11-9 13 0 14-3 4-15s-10-15 3-15c33 0 48-29 41-79-5-43-4-48 13-46 10 0 23 3 28 7 6 3 20 4 33 3 12-1 22 2 22 7 0 4 7 8 15 8 17 0 19 14 6 39-9 16-5 17 47 14 31-1 51 0 45 3-17 8-17 44 0 44 7 0 18-5 24-11 8-8 17-6 32 7 24 21 29 81 7 90-8 3-17 17-21 31-4 16-11 23-20 19-7-2-16 0-19 7-3 8-7 9-13 1-4-6-16-13-26-17-9-4-22-18-27-32-6-15-14-23-20-20-18 11-11 57 13 78l22 19-22-6c-24-8-33 9-10 17 6 2 9 8 4 12-4 5-12 4-18-2s-18-9-25-6c-8 3-14-1-15-8 0-8-4-4-10 9-5 14-16 22-26 20-9-2-15-7-12-13 2-5 11-8 18-7 13 3 13 1 2-12-13-15-16-15-38-1-27 18-40 13-53-21-10-25-53-34-65-14-3 6-1 10 4 10 6 0 11 7 11 15 0 11-11 15-39 15-22 0-43 5-46 10-4 6-11 7-17 4-6-4-14-1-18 6-6 9-14 8-38-4-17-8-32-21-35-28-4-10-7-11-18 0-7 6-21 12-30 12-10 0-24 8-31 19-12 16-15 17-35 4zM1194 1367c-8-9-7-18 4-34 12-19 12-23 1-23s-11-2 1-10c8-5 11-12 7-16-3-4-13-1-22 6-10 8-15 9-15 1 0-6 4-11 9-11 6 0 7-16 4-35-4-27-2-35 10-35 18 0 27-21 27-66 0-19 7-46 16-59 9-14 12-25 6-25s-23-5-39-11c-21-8-24-12-13-19s11-11 1-24c-12-14-10-16 8-16 14 0 21-6 21-20 0-12 7-20 16-20 10 0 14-6 11-14-8-20 3-27 25-15 11 6 17 17 14 25-14 36 78 29 100-7 9-15 52-29 68-23 8 3 18 24 21 45 5 28 11 39 20 35 7-2 16 2 19 10 11 29 27 2 25-43-2-30 2-47 11-53 12-7 11-10-3-16-25-9-21-20 13-34 17-7 30-17 30-22 0-6 7-8 15-4 9 3 15 0 15-10s7-13 24-8c19 4 26 1 31-16 6-17 9-19 16-9 6 10 10 8 18-11 8-22 10-22 11-5 1 16 4 15 14-9 9-19 16-25 21-17 5 9 13 7 29-8s25-18 33-10c9 9 18 5 36-15 24-26 47-34 47-17 0 5 14 12 30 16 17 4 30 13 30 21 0 18 10 18 37-1 20-14 22-14 28 5 4 11 10 18 15 15s11 4 15 15c9 27 16 25 45-15 14-19 30-35 37-35 6 0 13-17 15-37 3-36 5-38 35-35 17 2 34-2 38-8 9-15 25-2 25 20 0 11 8 24 18 29 12 6 19 23 20 51 3 41 3 42-30 40-78-5-88-2-88 26 0 56-64 71-101 25-24-31-49-31-49 0 0 42-93 69-103 29-4-15-14-20-44-21-84-3-163 21-163 50 0 10-13 22-34 29-31 12-58 42-36 42 6 0 6 10 0 26-9 22-8 25 6 20 11-4 15-1 12 16-2 18-17 26-78 45-41 12-92 25-112 28-28 4-38 11-38 24 0 23-32 38-98 46l-53 7 6 41c6 30 18 50 46 75 52 47 53 77 2 86-60 9-127 6-139-7zM2793 575c-15-17-17-29-3-20 6 4 10-6 10-23 0-16 7-42 15-59 14-28 17-29 49-19 31 9 33 12 23 33-8 19-7 26 9 38 18 15 18 16-9 40-31 28-75 32-94 10zM3047 583c-4-3-7-17-7-30 0-16-6-23-20-23-11 0-20-4-20-10 0-5 4-10 10-10 12 0 3-27-22-62-20-29-15-58 11-59 9 0 26-2 39-3 16-2 22 3 22 16 0 11 7 18 20 18 18 0 20 7 20 85 0 82-1 85-23 85-13 0-27-3-30-7z"/></g><g fill="#625A49" style="transform:none"><path d="M1488 2159c-15-6-30-19-33-30-4-10-17-22-31-25-13-3-24-10-24-15s-7-9-15-9-15-6-15-14c0-31-42-46-130-46-47 0-148-7-225-15s-141-15-142-15c-2 0-3-7-3-15 0-10 10-15 30-15 17 0 30-5 30-11s8-8 18-5c40 12 330 29 345 19 11-7-18-38-80-85-29-21-68-53-86-71-49-47-80-72-102-81-13-6-16-10-7-13 6-3 10-9 6-14-3-5-2-18 1-29 9-29 94-29 102 0 3 11 12 20 19 20 8 0 17 6 20 14s21 17 40 20c30 6 34 10 34 40 0 24 7 38 30 54 16 12 34 22 40 22 5 0 10 4 10 9 0 6 16 27 35 48s38 46 41 56c3 9 9 17 13 17 13 0 71 53 71 65 0 7 10 19 23 28 47 32 67 55 67 81 0 22-4 26-27 25-16 0-40-5-55-10zM1560 1865c-7-8-17-15-23-15-16 0-87-83-87-103 0-11 4-15 12-11 7 5 9 1 6-12-3-11 1-25 8-32 18-17 54-15 54 3 0 8 9 20 20 27s20 20 20 29c0 8 15 22 32 30 35 15 51 49 24 49-14 0-21 18-17 43 2 13-36 7-49-8zM2210 1760c0-21-15-27-25-10-3 6-19 10-36 10-27 0-29-2-29-40 0-22-4-40-10-40-5 0-10-9-10-20 0-10-6-23-13-27-20-12-29-82-13-99 8-7 16-10 20-7 3 4 6 1 6-5 0-7 10-12 23-12 12 0 31-6 42-14 33-22 74-26 85-7 9 15 11 14 20-1 6-10 16-18 21-18 16 0 36-24 52-61 17-42 47-70 47-45 0 9 5 16 10 16 11 0 13 71 4 108-4 12-13 22-20 22-8 0-14 5-14 10 0 6-6 10-13 10-24 0-66 25-70 41-3 10-20 19-44 22-33 6-42 12-45 32-4 17-1 25 8 25 8 0 14 5 14 10 0 6 6 10 13 10 30 1 39 17 32 64-6 40-10 46-31 46-17 0-24-6-24-20zM2770 1770c0-6-18-17-40-26-26-11-40-23-40-34 0-10-13-30-30-43-19-16-30-35-30-51 0-22 4-26 31-26h30l-6-55c-7-54-7-55 18-55 14 0 32 7 41 15 8 8 32 15 53 15 30 0 45 6 61 25 12 14 26 25 32 25 5 0 10 10 10 23 0 29 10 43 38 51 18 6 22 14 22 52 0 40-2 44-24 44-12 0-44 11-70 25-48 26-96 33-96 15zM2495 1268c-7-40-5-44 34-80 22-21 41-43 41-48 0-20 48-9 66 15 10 14 26 25 35 25 17 0 29 27 29 68 0 13-6 22-16 22-8 0-12-5-9-10 10-16-19-22-51-9-29 11-29 11-6 20 40 15 17 44-26 32-14-3-18-11-14-26 5-20 5-20-21-1-15 10-27 22-27 27 0 4-6 7-14 7-9 0-17-16-21-42zM2007 1175c-16-15-40-25-58-25-16 0-29-4-29-10 0-5-13-10-30-10-53 0-36-27 21-33 42-5 57-3 79 13 16 11 33 20 39 20s17 12 24 28c6 15 16 30 22 34 5 4-1 8-15 8-14-1-38-12-53-25zM3054 1062c-34-11-74-49-74-69 0-11 18-39 40-63 22-23 42-51 45-61 4-11 13-19 21-19 11 0 14 21 14 110 0 115 0 116-46 102z"/></g><g fill="#585C5E" style="transform:none"><path d="M2385 1435c0-19-3-35-8-35s-7-13-4-30c5-22 2-32-11-39-13-8-15-14-6-28 12-19 64-31 64-14 0 5 15 11 33 13 26 2 33 8 35 29 2 15-4 33-12 42-9 9-16 23-16 31 0 9-4 16-10 16-5 0-10 11-10 25 0 21-5 25-28 25-26 0-29-3-27-35zM492 1449c-26-10-27-37-2-50 34-17 89-39 99-39 6 0 11 6 11 13s9 20 20 30c31 26 25 32-36 34-31 1-60 6-63 11-4 6-15 6-29 1zM755 1407c-21-7-25-15-23-36 3-23 8-26 50-29 43-3 47-1 62 29 9 18 16 35 16 39 0 10-73 7-105-3zM980 1391c-17-5-25-14-24-29 0-16-7-24-23-28-25-7-31-36-13-64 8-12 10-11 10 8 0 25 22 29 40 7 7-8 18-15 26-15 7 0 17-8 23-17 5-10 13-14 17-10 5 4 3 16-2 25-15 23 0 62 26 69 30 8 26 43-4 43-14 0-28 5-31 10-7 11-9 11-45 1zM1121 1302c-12-12-12-15 0-23 11-6 9-13-10-30-22-21-23-23-6-35 14-11 20-10 32 2 16 16 48 19 38 4-3-5-13-10-21-10-20 0-17-10 13-42l26-27-24-20c-13-11-27-20-31-21-5 0-8-7-8-16 0-8-4-12-10-9-5 3-10 0-10-7 0-19 18-43 26-35 4 4 13-1 20-11 9-11 13-12 14-4 0 8 11 11 35 9 19-3 35 0 35 5s8 8 17 6c23-4 24 41 1 66-10 11-18 30-18 43 0 24 15 31 23 11 2-7 8 4 12 25 7 36-3 67-12 40-5-15-33-17-33-3 0 6-8 10-17 10-16 1-17 2-2 13 19 14 11 25-43 55-29 17-35 17-47 4zM1383 1217c-28-19-33-28-33-61 0-31 3-37 12-28s15 9 26-1c12-9 16-9 19 0s17 11 44 7c43-7 69 7 69 38 0 10-8 22-17 25-10 4-22 13-27 21-7 12-10 12-17 1-8-12-12-11-23 4-16 21-13 21-53-6zM2135 1080c-3-5-1-10 4-10 6 0 11-7 11-16 0-10-6-14-15-10-9 3-15 0-15-9s-9-15-23-15c-12 0-28-9-35-20-10-17-19-19-57-13-38 5-45 3-45-11 0-20-36-21-44-1-7 20-66 20-66 1 0-8-6-16-12-19-10-4-10-7 0-18 24-26 13-37-33-36-34 2-45-2-45-13 1-20 24-50 39-50 6 0 11-7 11-15 0-24 110-15 124 10 6 11 12 22 13 24 5 9 53-31 53-44 0-14 42-65 54-65 3 0 6 7 6 16s12 28 27 44c35 38 63 23 63-32 0-36 1-38 21-26 16 10 23 10 26 2 3-9 15-9 46-1 47 12 61 25 45 44-7 9-7 13 2 13 6 0 14-9 17-20 4-15 14-20 39-20 19 0 34-3 35-7 1-5 2-19 3-33 3-24 86-122 86-101 0 13 24 8 44-8 11-9 16-10 16-2 0 6 5 11 10 11 6 0 10-7 10-15s5-15 10-15c6 0 10-9 10-20 0-22 40-29 40-7 1 6 10-7 20-30 23-49 38-61 46-38 5 11 14 15 28 11 33-8 47 7 48 51 0 52-25 83-69 83-17 0-35 5-38 10-3 6-14 10-24 10s-38 18-62 40-52 40-61 40c-13 0-18 8-18 30 0 17-5 30-13 30-7 0-17 10-22 23-6 12-21 23-35 25-36 5-60 31-60 64 0 27-2 28-50 28h-50l6 44c7 49-1 62-49 84-34 15-64 16-72 2z"/></g><g fill="#676356" style="transform:none"><path d="M500 2040c0-5-9-10-20-10s-20-4-20-10c0-5-11-10-24-10-23 0-36-21-36-60 0-13 1-13 10 0 8 12 10 12 16-3 3-9 12-17 20-17s14-4 14-10c0-5 13-7 29-4s37 2 47-4c24-12 84 4 84 23 0 7-8 15-17 17-16 3-15 6 5 23 12 11 22 30 22 43 0 22-4 24-35 20-19-2-35 0-35 4s-13 8-30 8c-16 0-30-4-30-10zM1650 1845c-30-24-68-47-83-50-20-5-27-11-22-22 3-10-3-22-15-30-11-8-20-22-21-31 0-10-3-12-6-4-12 31-53-6-57-53-1-5-10-11-21-13s-24-8-29-13c-15-14-36-11-36 6 0 20-20 19-49-1-20-14-22-22-17-58 4-22 12-44 19-48 7-5 2-8-13-8-20 0-22-2-10-10 26-17 60-12 60 9 0 10 9 21 20 24s20 12 20 21c0 10 9 16 25 16 18 0 25 5 25 20 0 14 7 20 24 20 13 0 26 7 30 15 3 8 14 15 25 15 33 0 51 11 51 32 0 25 23 48 50 48 11 0 23 7 26 15 4 8 12 15 19 15 15 0 55 64 55 88-1 40-15 40-70-3zM2242 1730c4-24 0-31-16-36-12-4-24-12-28-18-5-7-8-6-8 4 0 9-6 6-16-9-13-17-14-28-6-44 6-12 12-29 15-37 3-9 18-17 38-18 19-1 39-9 45-17 6-9 27-15 48-15 32 0 36 3 36 25 0 20 5 25 24 25 21 0 23-3 17-32-5-26-12-34-34-36-24-3-25-5-13-18 8-8 19-14 24-14s13-11 16-25c4-16 11-22 21-19 9 4 15 0 15-10 0-24 47-21 60 4 6 11 10 35 8 55-3 44 6 52 29 26 9-12 23-21 30-21s13-5 13-10c0-6 10-15 23-20 12-5 16-9 10-9-16-1-17-47-2-57 6-3 15-1 19 6 13 21 32 0 27-29-5-21 2-34 29-60 18-18 31-37 28-42s-9-7-13-4c-9 5-8-49 3-112 7-36 5-43-9-43-9 0-32-16-51-35-32-33-34-40-33-98 1-85 10-111 38-115 27-4 61 28 61 58 0 16 6 20 35 20 19 0 35 5 35 10 0 6 9 20 20 32s20 28 20 35c0 24 34 48 70 48 31 0 35 3 38 28 2 19-1 27-12 27-8 0-21 6-28 13s-26 19-43 27l-30 15 43 3c28 2 42 8 42 18 0 8 9 14 19 14 26 0 33 21 37 128 4 100 16 161 41 199 12 18 14 40 10 91-3 37-9 75-12 85-10 25-51 22-58-5-4-12-4-24-2-27 3-2 5 1 5 7 0 7 4 12 9 12 14 0 8-49-6-55-7-2-13 0-13 6 0 5-6 4-13-3-13-12-17-24-18-60 0-10-4-18-10-18-5 0-19-11-30-24-17-20-29-24-61-21-26 3-41-1-44-10-3-7-12-16-19-19-14-5-14 8 1 82 4 19 0 22-31 22-33 0-48 14-24 22 20 7 0 48-23 48-30 0-98-22-98-32 0-4-7-8-15-8s-15-9-15-20-4-20-9-20-11-6-13-14c-2-10-9-11-28-3-20 8-22 11-7 14 9 3 17 11 17 18 0 8 9 19 20 25 29 16 26 58-5 66-13 3-29 12-36 20-6 8-22 14-35 14-19 0-24-5-24-25 0-29-12-32-30-9-16 18-87 54-108 54-10 0-13-9-10-30zm501-250c4-14 0-20-12-20-25 0-33 11-20 27 16 18 26 16 32-7zM1289 1650c-31-26-15-26 18 0 14 11 21 20 15 20-5 0-20-9-33-20zM2010 1630c0-17-7-20-46-20-40 0-45-2-34-15 7-8 24-15 37-15 14 0 37-8 51-19 30-20 66-21 85-1 9 10 9 13 0 17-15 6-17 33-3 33 20 0 9 28-12 34-48 12-78 7-78-14z"/></g><g fill="#606466" style="transform:none"><path d="M1052 1672c-15-2-22-9-18-17 6-16-68-70-83-60-7 3-11-2-11-14 0-13-12-26-37-38-52-24-69-41-54-56 8-8 11-8 11 2 0 7 5 9 11 6 6-4 16 1 23 11 8 10 20 15 29 11 9-3 17-2 19 4 2 5 14 11 27 14 14 2 57 21 98 41 65 33 73 40 73 65 0 16-6 29-12 30-7 0-22 2-33 3s-30 0-43-2zM1150 1449c0-6 7-17 15-25 8-9 15-20 15-25 0-12-17-12-25 1-9 15-25 2-18-16 6-17 54-44 78-44 9 0 13 5 10 10-3 6 4 10 16 10 23 0 48 25 49 50 0 11-13 15-52 17-34 1-56 7-64 17-13 18-24 21-24 5zM1358 1393c-25-10-38-22-38-34 0-13 5-17 17-12s14 3 7-8c-13-22-17-109-5-109 6 0 11-9 11-19 0-25 29-31 58-13 26 17 29 47 5 60-15 9-14 12 5 33 26 27 28 42 7 59-9 7-12 16-8 19s14 14 22 24c12 15 11 17-15 16-16 0-46-7-66-16zM2344 1302c-1-16-4-41-8-57-6-23-9-26-17-14-6 10-9 3-9-23 0-37 1-38 36-38 39 0 72 14 91 39 15 19 17 71 3 71-5 0-10 9-10 20s-7 20-15 20-15-5-15-12c0-6-7-4-18 5-27 24-37 21-38-11zM1077 1160c-3-10 1-24 9-31 21-17 17-29-11-29-23 0-24-2-15-20 6-11 19-20 30-20 10 0 23-7 28-17 8-14 12-14 24-2 13 12 13 15-6 24-17 9-20 18-18 54 3 29-1 47-10 52-20 13-25 11-31-11zM1486 1161c-3-5-25-6-49-4-35 4-45 2-50-11-4-10-1-19 8-22 8-4 15-14 15-25 0-13 10-20 38-24 79-13 92-17 92-26 0-6 5-7 10-4 17 10 11 50-10 68-11 9-20 26-20 37 0 20-24 28-34 11zM2230 1150c0-5-15-10-32-10-39 0-98-44-81-61 5-5 20-11 32-12 11-1 21-8 22-17 0-9 2-10 5-3 6 13 32 6 52-13 15-16 16-34 1-34-6 0-8-7-5-16 3-8 1-24-4-34-7-12-7-27 0-45l10-26 24 25c15 17 34 26 52 26 19 0 24-3 16-8-25-17-2-42 39-42 21 0 39-4 39-10 0-5 11-10 25-10 15 0 25 6 25 14s5 16 11 18c19 6 0 100-22 105-11 3-19 8-19 12s-7 16-16 27c-14 18-15 18-8-6 6-22 5-23-9-12-12 10-16 10-19 0-3-9-12-8-34 7-44 28-50 37-58 80-7 37-20 54-38 55-5 0-8-4-8-10zM1653 1139c-27-10-30-43-8-65 8-9 15-26 15-39 0-19 6-24 38-27 20-3 74-3 120 0 78 5 82 6 82 28 0 13-6 25-12 25-48 5-58 7-75 14-10 4-22 9-28 9-18 3-70 30-90 47-14 12-26 14-42 8z"/><path d="M2090 1063c0-8-13-13-29-13-17 0-32-4-36-10-3-5-11-7-19-4-14 6-36-37-35-69 0-12 3-16 6-9 7 17 23 15 23-3 0-8 5-15 10-15 6 0 10 5 10 10 0 6 10 8 23 5 18-5 26 0 37 19 14 28 36 34 42 14 3-8 9-4 17 10 10 18 10 27 1 38-7 7-16 11-21 9-4-3-12 3-18 12-6 10-11 12-11 6zM2550 977c0-8-11-22-25-31-18-12-25-25-25-49 1-52 19-67 83-67 60 0 77 13 77 61 0 17-3 19-14 10-18-15-26-3-30 46-3 34-7 38-35 41-22 2-31-1-31-11zM1670 908c0-4 5-8 11-8 7 0 9-9 6-21-5-17 2-24 36-40 23-10 52-19 64-19s25-4 28-10c8-14 45-13 45 1 0 6 7 9 15 5 23-8 18 7-6 23-16 10-23 10-29 1-5-8-9-4-13 11-4 13-9 20-13 16-4-3-15 5-26 18-23 29-35 32-41 8-4-15-5-16-6-2-1 11-13 18-36 21-19 2-35 0-35-4zM2896 873c-2-10-8-42-11-71-4-28-11-50-16-46-5 3-6-1-3-9 3-10-4-14-25-15-17 0-36-4-43-9-24-14-52-14-61 2-5 10-16 14-28 10-11-4-19-2-19 5 0 9-13 10-47 4-27-4-67-6-90-5-30 1-43-2-43-11 1-17 25-49 33-42 3 3 12-3 19-15s22-21 33-21c12 0 26-5 32-11s25-12 41-14c39-3 56-21 69-70 10-35 11-36 12-12 1 25 3 26 21 17 11-6 20-8 20-5s10 1 22-6c18-10 20-9 15 5-9 23 7 20 40-8 21-18 33-21 50-15 13 5 25 4 29-2 3-5 14-7 24-4s21 1 25-5c3-5 22-10 41-10 32 0 35 2 32 28-2 19 1 26 11 24s12 5 7 29c-3 17-6 38-6 45 0 8-9 14-20 14s-20 5-20 10c0 6-18 10-39 10-29 0-47 7-70 29-17 16-31 33-31 37s5 3 12-4c17-17 53-15 90 4 27 14 30 19 25 52-4 19-10 38-15 41s-12 18-16 34c-6 24-11 27-51 27-33 0-45-4-49-17z"/></g><g fill="#766A4F" style="transform:none"><path d="M1723 2053c-29-30-53-61-53-69 0-9 5-12 11-8 6 3 15 0 20-7 7-11 9-11 9-1 0 7 3 11 8 8 10-6 37 15 45 34 3 8 6 1 6-16 1-16-5-36-11-43-11-10-9-15 6-27 47-34 92-7 83 50-4 24-1 39 9 47 8 6 14 26 14 44 0 28-4 33-31 39-52 10-62 6-116-51zM2790 2085c0-17-4-18-82-19-38-1-59 3-63 12-7 18-95 16-95-2 0-8-16-20-36-26-33-11-36-15-31-43 2-19-3-43-17-66-18-31-25-36-53-33-20 2-37 11-43 23-13 24-80 28-80 4 0-8-6-15-14-15s-18-9-21-20-11-20-16-20-9-9-9-20-4-20-10-20c-5 0-10-7-10-15 0-16-10-18-77-15-33 1-43-2-43-14 0-9-4-16-10-16-5 0-10-16-10-35s-4-35-10-35c-5 0-10-7-10-15 0-11-11-15-36-15-34 0-35-1-32-32 3-28 7-34 32-36 20-3 26 0 21 9-6 9-1 10 21 4 49-13 57-11 63 13 3 13 11 24 16 25 6 1 9 19 9 40-2 39 6 46 25 23 16-19 61-8 61 15 0 18 2 17 25-3 14-12 33-23 43-24 9-2 27-15 40-29 30-35 72-28 72 12 0 24 1 25 18 11 9-9 27-19 40-23 17-5 20-10 12-20-7-9-7-15 2-22 17-13 78-22 78-11 0 4 3 7 8 6 4-1 20 4 36 11 24 10 30 9 42-6 13-17 16-16 44 15 17 18 28 37 25 42-6 9 8 14 28 11 4 0 7 4 7 9 0 6 7 10 15 10 7 0 18 7 23 16 7 13 15 12 58-11 27-14 53-30 58-35s15-2 24 7c11 10 17 12 20 4 10-29 20-4 27 64 8 90 2 115-30 115-18 0-24 7-27 30-3 17-1 30 4 30s8 15 6 33c-2 24-8 33-25 35-16 2-23 10-23 25 0 13-9 30-20 40-25 21-70 23-70 2zM311 2023c-1-7-7-13-14-13-8 0-21-8-31-19-16-17-15-19 6-33 39-25 68-31 85-16 15 11 16 11 10-4-3-10-2-18 3-18 13 0 60 45 60 59 0 6 6 11 13 12 31 1-33 18-75 18-27 1-48 6-51 14-4 10-6 10-6 0z"/></g><g fill="#6D6C63" style="transform:none"><path d="M1605 2239c-63-36-95-64-95-81 0-15 5-18 20-13 21 7 28-10 8-18-7-3-1-6 13-6 15-1 47 11 73 25 38 21 54 25 84 19 20-4 69-8 107-8 69-2 70-2 73 26 6 47-14 55-144 62-82 4-125 2-139-6zM855 2044c-11-3-47-9-80-15-101-18-117-27-113-63 3-27 6-31 28-27 14 1 27 6 30 10s16 6 30 4c48-4 141 10 155 23 7 8 25 14 39 14 22 0 26 4 26 30 0 29-1 30-47 29-27-1-57-3-68-5zM2468 1659c-10-5-18-17-18-24 0-8-7-15-15-15s-15-6-15-14-16-16-42-19c-24-3-44-11-46-16-2-6-17-11-33-11-19 0-29-5-29-15 0-8 7-15 15-15 9 0 18-6 21-13 5-14 51-19 92-11 20 4 23 9 18 29-3 13-2 27 4 30 5 3 10-1 10-11 0-13 3-14 15-4 8 7 15 11 16 9 5-36 3-89-3-89-4 0-7-6-5-12 1-7-6-12-15-12-13 1-18-5-18-22 0-13 5-24 10-24 6 0 10-7 10-16 0-21 18-36 58-51 30-10 32-10 32 10 1 20 2 20 11 5 12-22 29-23 29-3 0 9 9 15 25 15 14 0 25 5 25 11s-9 8-20 4c-24-8-28 13-4 22 9 3 14 13 11 24-3 12 0 19 9 19 7 0 11 6 8 14-10 26 39 24 60-2 10-13 25-21 32-18 8 3 14-1 14-8 0-19 32-30 41-14 4 6 6 15 3 19-2 4 3 9 12 11 14 3 13 7-6 30-12 15-22 37-23 48-2 24-13 26-25 5-10-18-49-28-57-14-10 15-45 10-45-6 0-18-42-15-48 3-2 7-8 12-14 12-12 0-58 41-58 53 0 4 7 7 16 7 11 0 14 6 9 20-4 14-2 20 8 20 8 0 17 7 21 15 4 11-2 15-24 15-16 0-32 5-35 10-8 12-15 12-37-1zM1460 1625c0-8-4-15-10-15-5 0-10-11-10-26 0-19-8-28-36-40-19-8-44-12-55-9-11 4-19 2-19-5 0-8-11-11-31-8-22 4-34-1-44-16-13-18-12-21 13-38 15-10 36-15 47-12 19 5 19 4 3-9-10-8-18-17-18-21 0-10 88-7 95 4 3 6 15 10 26 10 10 0 19 4 19 9 0 4 27 14 60 20 40 8 60 17 60 27 0 7 7 14 15 14 9 0 15 9 15 25 0 14 5 25 10 25 13 0 13 36 0 61-9 16-22 19-75 19-51 0-65-3-65-15zM2948 1560c-9-10-15-20-12-22 2-2-1-20-6-39s-12-54-15-79c-4-25-7-47-8-50 0-3 3-15 7-28 12-36 37-22 52 28 14 47 19 211 7 209-5 0-15-9-25-19zM2905 1259c-6-17-9-19-16-8-8 12-11 12-19-1-5-8-10-21-10-27 0-26-123-7-142 21-5 8-8 7-8-1 0-7-9-13-20-13s-20-7-20-15-7-15-16-15-27-12-40-27c-20-23-24-25-24-10 0 10-4 15-10 12-5-3-10-17-10-31 0-17-5-24-20-24-11 0-20-4-20-10 0-5-11-10-25-10-21 0-25-5-25-27 0-49-11-71-37-78-18-4-22-9-15-18 13-17 21-67 11-67-5 0-4-9 3-20 19-29 66-27 78 4 5 14 18 30 30 36 11 6 20 17 20 25s5 15 10 15c6 0 10-5 10-11 0-8 5-7 15 1 9 7 14 19 11 27-3 7-1 13 4 13 6 0 10 7 10 15s-4 15-10 15c-5 0 6 16 24 35 19 19 41 35 49 35 21 0 25 18 16 60-4 19-5 38-1 42 14 13 60-4 70-27 6-13 21-26 33-30 13-4 29-14 37-21 7-8 21-14 30-14 11 0 13-3 5-11s-17-8-31 0c-30 16-39 14-45-10-4-15-11-20-23-15-13 5-15 2-10-18 3-14 2-28-4-31-5-3-10-15-10-26 0-14 7-19 25-19 14 0 25 5 25 10 0 6 14 10 30 10 17 0 30 5 30 10 0 6 7 10 15 10s15 5 15 10c0 6 18 10 39 10 22 0 42 4 45 8 3 5 19 7 36 4 27-4 30-2 30 21 0 14 5 29 10 32 18 11 11 57-9 62-11 3-22 11-25 19s-17 14-31 14-25 5-25 10c0 6-9 10-20 10-16 0-20 7-20 30 0 35-15 40-25 9z"/></g><g fill="#676C6E" style="transform:none"><path d="M1216 1766c6-16-7-21-47-18-9 1-19-7-22-18-3-12-14-20-27-20-15 0-20-5-17-15 4-8 2-17-3-20-15-9-12-25 5-25 18 0 20-16 3-23-7-3-3-6 10-6 13-1 40 10 60 24s41 25 46 25 24 11 43 26c34 26 47 74 19 74-7 0-28 3-45 6-26 6-30 4-25-10zM2440 1380c0-6 7-18 15-27 8-8 12-20 8-26-4-7-10-6-16 5-16 24-42-9-45-57-2-29 1-36 7-25 15 22 24 5 10-18-13-21-50-42-73-42-8 0-17 11-20 24-7 29-33 29-60 1-10-11-22-19-27-18-5 2-9-13-9-32s4-35 9-35c15 0 25-42 12-50-16-9 5-63 22-58 6 3 19 16 27 31 13 24 13 27-8 45-12 11-22 21-22 24 0 7 71 3 103-6 26-8 39-36 16-36-6 0-8-9-3-22 4-13 8-34 10-46 3-32 9-36 49-36 43 0 46 3 52 59 5 36 8 43 19 34 16-13 34-4 34 19 0 12 3 13 12 4 13-13 48-17 48-6 0 33-31 94-62 122-28 25-36 38-30 50 5 10 10 34 11 55 2 28-2 38-16 43-10 3-30 12-45 20-19 10-28 11-28 4zM1548 1249c-5-16-14-29-19-29s-9-7-9-15c0-9-6-12-17-8-12 5-15 2-11-9 4-9 1-21-5-27-8-8-8-11 1-11 7 0 12-9 12-19 0-11 8-27 18-37 9-10 18-21 18-26 1-4 2-11 3-15 0-5 12-9 25-9 14-1 38-8 54-16 19-10 35-12 46-6 20 11 21 52 1 71-8 8-11 17-8 21 4 3-1 6-10 6-21 0-34 66-19 91 9 14 8 21-3 33-8 8-15 19-15 24s-12 10-26 10c-20 0-28-8-36-29zM1265 1231c-4-17-13-31-21-31-19 0-18-16 1-24 8-3 15-13 15-22 0-12 6-15 25-10 14 4 25 2 25-3 0-6 6-8 14-5s17 0 21-5c10-17 25-3 25 24 0 12 7 25 15 29 8 3 15 16 14 28 0 13-3 17-6 11-8-20-23-15-23 7 0 13-7 20-19 20-10 0-32 3-49 6-27 6-31 3-37-25zM1880 1046c0-10-11-19-30-22-26-6-30-11-30-39 0-32 13-45 47-45 9 0 13 6 9 15-7 20 11 19 22-1 5-9 23-17 40-18 29-2 34 3 57 46 28 53 28 52-42 62-23 3-48 9-57 12-11 4-16 1-16-10zM2667 955c3-19 1-35-4-35s-17-16-26-34c-15-32-20-35-56-33-31 1-43 7-52 25-10 17-19 22-35 18-14-4-24-1-28 9-7 19-36 8-37-14 0-11-3-8-10 7-6 15-13 21-21 15-7-4-25-8-41-9-15-1-30-4-34-8-11-11 38-55 66-58 15-2 30-12 36-25 5-13 17-23 25-24 10 0 11-2 3-6-7-2-13-11-13-18 0-16 40-46 51-39 4 2 17-8 30-23 20-26 21-26 16-5-6 26 1 28 30 7 19-13 23-13 36-1 8 8 17 12 21 9 5-5 43 9 65 24 2 2-10 21-28 43-30 38-31 41-17 62 13 19 16 19 16 5 0-21 16-22 36-2 20 19 38 19 31 0-4-8-2-17 2-20 5-3 11 2 15 10 9 24 52 17 83-13 15-16 34-49 41-74 7-24 22-51 33-58 10-8 19-20 19-28 0-7 4-11 9-7 5 3 13 0 16-6 4-5 13-8 20-5 8 3 16 0 19-7 5-9 7-9 12 1 10 21 26 13 19-10-6-19-5-21 6-11 21 21 38 15 34-10-5-27 32-58 41-34 2 7 3 78 2 157l-3 145-27 3c-24 3-28 0-28-22 0-16-6-26-15-26-14 0-19-14-18-48 1-7-12-19-28-28-28-14-32-13-56 5-21 17-23 22-9 27 17 7 22 44 6 44-6 0-8 11-4 26l7 27-49-7c-27-4-57-9-66-12-13-4-18 0-18 15 0 11-7 26-15 35-8 8-15 28-15 45 0 21-5 31-16 31-8 0-12-5-9-10 7-12-39-9-51 3-16 16-22 5-17-28z"/></g><g fill="#7F7258" style="transform:none"><path d="M2576 2203c-17-9-51-15-79-14-48 1-49 0-45-27l4-27-88-3c-58-3-88 0-88 7 0 19-38 12-64-13-15-13-26-34-26-50 0-14-4-26-10-26-5 0-10-9-10-20 0-29-20-47-46-42-41 8-64-14-64-63 0-35-4-45-20-50-24-8-28-56-6-75 8-6 16-21 18-33 2-14 11-23 27-25 15-2 21 0 17 7-4 6-2 11 3 11 6 0 11 8 11 18 1 15 2 15 15-2 14-18 15-18 15-2 0 10 5 14 11 11 18-11 79 5 79 20 0 8 5 15 10 15 6 0 10 7 10 16 0 8 6 22 14 30 8 7 17 19 19 26 4 10 8 9 16-2 9-12 11-10 11 12 0 31 17 31 48 0 15-15 30-21 42-17 10 3 21 1 25-5 13-21 34-8 60 38 16 29 25 57 22 74-3 24 1 29 30 39 19 6 33 18 34 27 0 11 2 13 6 4 4-10 8-10 19-2 16 14 37 3 30-16-6-16 10-29 19-14 4 6 11 8 16 4 5-3 17 0 26 8 14 11 15 10 8-11-6-21-5-22 17-16 12 4 25 12 26 16 2 5 12 9 22 9 29 0 50 11 50 26 0 18 6 18 30-3 22-19 27-43 8-43-22 0 9-23 33-24 12 0 24-7 27-14 2-7 0-12-5-11-19 3-21-3-12-37 8-25 7-39-2-50-9-12-6-14 18-14 19 0 39 10 56 28 23 24 27 37 27 83 0 29-4 59-8 66-4 6-35 15-68 18l-62 7-4 48c-3 27-12 55-21 64-20 20-61 21-80 1-20-20-74-9-82 16-8 24-48 25-89 2zM1817 2133c-4-3-7-17-7-30 0-16 6-23 20-23 11 0 20-6 20-13 0-8-9-22-20-32-22-20-26-50-9-60 6-4 8-13 5-21-4-10 2-14 19-14 14 0 25 5 25 10 0 6 7 10 16 10s23 8 30 18c15 19 19 82 5 82-5 0-13 10-17 23-14 45-63 74-87 50zM1711 1437c-15-7-28-26-34-47-5-19-13-39-18-44-16-18-11-103 8-122 10-9 25-31 33-48s23-32 33-34c23-5 22 9-3 36-11 12-20 26-20 32s-6 21-14 33c-16 24-18 95-4 114 6 7 7 17 4 22-8 12 32 51 51 51 7 0 13 5 13 10 0 13-20 12-49-3zM1924 1149c-3-6-32-10-63-9-72 3-81 2-81-9 0-12 76-26 119-22 30 3 61 20 61 34 0 11-30 15-36 6z"/></g><g fill="#79776A" style="transform:none"><path d="M1260 2485c-47-18-119-45-160-60-41-14-111-44-155-66-45-21-85-39-89-39-5 0-33-11-63-25-73-35-71-55 8-55 55 0 106 14 214 60 11 5 49 13 85 20 36 6 74 15 85 19 11 5 42 17 70 27 85 30 115 52 115 85 0 16-4 29-9 29s-11 9-13 19c-3 18-8 17-88-14zM580 2209c0-3-8-9-17-13-10-3-25-10-33-16-8-5-40-21-70-34-31-14-64-34-74-45-11-12-24-21-30-21s-11-11-11-25c0-29 25-33 65-10 14 8 39 21 57 30 17 8 34 19 38 25 3 5 31 17 61 26 54 15 74 35 74 72 0 14-7 19-30 19-16 0-30-4-30-8zM570 2019c-11-8-8-9 15-4l29 6-26-26c-44-44-11-87 49-64 14 5 29 7 34 3 5-3 9 6 9 20s5 26 10 26c6 0 10 5 10 10 0 6-11 10-24 10s-26 7-30 15c-6 17-54 20-76 4zM1993 1993c-14-2-23-12-23-23 0-10-9-22-21-25-11-4-28-20-38-36-17-28-31-29-31-2 0 7-10 24-21 37l-22 25-18-22c-10-12-18-17-19-12 0 6-11 12-25 13-18 1-25-3-25-16 0-9-14-25-31-34-41-24-36-52 11-56 38-4 50-15 50-49 0-19 5-23 34-23 18 0 54-3 80-6 42-6 48-10 53-36 4-19 13-30 29-34 14-4 33-18 44-31 11-14 20-20 20-14 0 8 8 10 21 6 18-6 20-4 14 14-3 12-3 21 2 21 4 0 14 9 21 21 11 18 11 24-4 40-10 11-19 27-20 35-1 9-11 25-21 36-12 14-14 22-6 25 6 2 21 12 33 23 16 14 19 23 13 37-13 26-10 40 12 57 11 8 17 18 13 22-9 9-95 14-125 7zM2951 1929c-13-17-35-35-48-40-33-12-18-33 18-25 22 4 29 1 34-14 11-33 21-23 35 34 19 79 3 97-39 45zM1574 1745c-4-8-13-15-21-15-11 0-14-7-11-25 5-25 1-29-39-26-14 2-24-5-28-18-5-16-15-21-39-21-41 0-51-9-28-27 15-12 14-13-11-7l-28 7 24-27c27-28 67-35 67-11 0 8 5 15 10 15 6 0 10 7 10 15 0 17 25 20 35 5 4-6 13-5 26 3 17 10 22 9 35-8 13-18 13-20-1-23-8-2-13-8-10-13 8-12 65-12 65 0 0 5 11 12 25 15 14 4 25 13 25 21s9 15 20 15c15 0 20 7 20 29 0 32-13 46-52 56-15 4-34 18-43 31-17 27-43 32-51 9zM2981 1568c0-78-4-144-9-147-16-11-44-116-49-181-3-49-2-61 6-50 10 13 13 13 22-3 7-11 17-16 29-12 11 3 22 0 27-8 4-7 17-17 27-21 15-5 17-9 8-18-7-7-12-22-12-33 0-18-5-21-29-17-16 2-32-1-35-7-4-6-15-11-26-11-10 0-21-7-24-16-10-27-7-54 8-54 7 0 19-7 26-15s25-15 41-15c29 0 40 15 17 23-16 5 36 49 66 57 21 6 21 13 24 312 1 184-2 316-8 332-8 23-15 26-59 26h-49l-1-142zM2331 1621c-19-12-3-58 22-65 12-3 24-2 27 2 9 14 50 9 50-6 0-7 4-10 10-7 5 3 8 20 7 38-2 25-7 32-22 30-11-1-23 4-28 10-7 9-10 9-14 0-3-9-10-10-22-4-9 5-23 6-30 2z"/></g><g fill="#747776" style="transform:none"><path d="M1368 1603c0-5-2-12-3-18-2-5-3-14-4-19 0-6-8-1-16 10-13 18-14 16-15-22 0-35 3-42 23-46 12-2 45 5 72 16 46 19 49 23 40 44-5 12-15 20-20 18-6-2-19 2-30 10-20 15-44 18-47 7zM1330 1326c-6-8-18-12-26-9-10 4-12 0-8-11 4-10 0-18-10-22-45-17 4-70 55-59 30 7 38 20 17 27-10 4-10 10 0 32 6 15 12 33 12 41 0 19-24 19-40 1zM1600 1228c-16-14-21-22-12-25 17-6 15-23-2-23-21 0-30-20-17-33 8-8 11-6 11 6 0 31 18 18 24-19 8-40 33-56 48-30 5 9 13 14 18 11 13-8 23 14 12 28-6 7-21 33-34 58l-23 47-25-20zM2883 1055c-3-9-12-14-19-11-8 3-14-1-14-9 0-10-10-15-29-15-16 0-32-6-34-12-3-7-6-4-7 7l-1 20-15-20c-8-11-18-19-22-18s-6-6-5-15-4-20-10-25c-9-6-9-10 1-14 6-2 12-11 12-20 0-8 8-22 17-31 16-16 16-17 0-20-55-11 30-34 95-26 18 2 40 5 48 5 8 1 18 7 23 13 5 7 12 5 21-7 14-18 14-18 19 0 3 13 7 9 12-14 4-18 11-33 16-33s9-7 9-15c0-21 30-19 31 3 0 10 3 12 6 5 7-19 43-16 43 3 0 8-5 24-11 36-9 18-8 19 10 13 12-3 21-2 21 3 0 17-65 105-85 115-11 6-27 14-35 19s-23 11-32 14c-14 5-15 10-7 26 13 23 10 27-25 34-18 3-28-1-33-11z"/></g><g fill="#877A68" style="transform:none"><path d="M1480 2570c-8-5-40-17-70-27-61-19-112-43-92-43 6 0 12-9 12-19 0-11 6-21 13-24 9-3 9-7-2-20-12-15-10-17 17-17 16 0 44 3 61 6 27 6 31 10 31 40 0 27 6 36 30 49 21 11 30 23 30 40 0 27-7 30-30 15zM2384 2386c-23-6-47-16-55-22-15-12-110-32-169-36-25-2-38-9-44-25-9-19-27-27-104-49-7-2-19-19-27-38-15-36-42-53-59-36-11 11-49 14-60 3-3-4-16-8-28-10s-24-6-27-8c-7-8 19-56 28-51 10 7 47-32 38-41-4-3 3-15 15-25 18-16 20-22 11-37-10-16-8-20 10-25 37-10 64-7 77 9 17 20 30 19 30-2 0-13 8-18 28-19 15-1 48-5 75-9 30-4 47-3 47 3s14 9 30 7c28-4 29-3 19 18-7 12-17 25-23 29-7 5-4 8 7 8 9 0 17 4 17 9s3 17 7 27c4 12 3 15-5 10-21-13-13 6 12 29 19 18 26 20 30 9s16-13 46-8c27 4 45 2 56-7 10-8 18-9 22-2 12 17 36 20 50 6 21-21 45 3 40 39-5 29 9 39 18 13 5-13 10-13 33-1 41 21 103 47 105 44 32-53 39-60 46-48 6 9 11 8 19-6 9-13 14-15 17-7 4 8 15 11 30 7 19-5 23-3 18 9-3 10 2 18 15 22 27 8 28 45 1 52-11 3-20 12-20 19 0 8-9 14-20 14s-20 5-20 10c0 6-11 10-25 10s-25-4-25-9-16-12-35-15c-21-4-35-13-35-21s-4-15-9-15c-15 0-41 42-41 67 0 13-5 23-10 23-18 0-48 34-55 63-8 30-28 33-101 13zM2855 2170c-3-11-12-20-20-20-10 0-12-11-8-42 4-24 10-45 15-46 4-2 14-10 22-17 10-10 16-11 25-2 8 8 11 7 11-6 0-9 2-17 4-17s11-3 20-6c11-4 16-1 16 10 0 9 5 16 10 16 6 0 10-4 10-10 0-5 5-10 11-10 21 0 3 69-37 143-19 34-69 39-79 7zM650 2133c-8-4-22-14-31-24-8-10-28-21-43-25-16-4-31-15-33-25-3-11-10-19-15-19s-2-7 7-16c11-11 25-14 45-11 23 5 33 1 48-20 13-18 24-24 38-19 39 12 67 100 48 150-6 16-35 20-64 9z"/></g><g fill="#858175" style="transform:none"><path d="M2180 2671c0-25 6-32 35-42 19-7 37-21 40-30 9-27 106-42 120-19 3 6 17 10 31 10 20 0 24 5 24 28 0 47-18 60-103 71-43 6-94 11-113 11-31 0-34-3-34-29zM2935 2629c-22-4-94-6-159-3-131 6-136 4-136-52 0-26 6-34 40-49 36-16 49-17 172-5 99 10 133 10 136 1 7-20 59-13 65 9 3 12 14 20 26 20 18 0 21 6 21 45v45l-62-1c-35-1-81-5-103-10zM1518 2529c-10-5-36-8-58-5-32 3-42 0-50-14-7-13-6-19 5-24 18-7 20-32 3-39-40-16 68-3 129 15 68 20 73 24 73 50s-3 28-42 28c-24 0-51-5-60-11zM2461 2414c-15-16-21-28-14-32 6-4 14-18 18-32 8-28 38-60 55-60 7 0 10-6 7-12-6-16 33-89 44-82 4 2 10 0 14-5 9-15 35-1 35 19 0 21 41 35 52 17 4-7 10-3 16 13l9 25 7-23c6-19 10-21 22-11 11 9 14 8 14-5 0-9 5-16 11-16 14 0 69-56 69-69 0-5 8-12 17-15 17-7 37 10 46 38 3 7 9 7 20-3 15-12 17-11 17 10 0 27-45 96-72 110-10 5-18 18-18 28 0 20-19 31-50 31-10 0-27 11-38 25-25 31-98 36-109 8-10-25-25-38-51-45-19-5-22-3-17 10 16 40 18 84 4 93-29 18-83 10-108-17zM1355 2131c-50-6-50-6-50-43 0-33-3-38-37-49-59-19-49-39 20-39 60 0 102 19 102 46 0 8 7 14 15 14s15 4 15 9 11 12 24 15c28 7 42 36 24 48-14 8-35 8-113-1zM1090 2099c-19-4-57-12-85-16-55-9-67-27-44-70 13-24 15-25 94-18 89 8 145 33 145 67 0 43-34 55-110 37zM1986 2030c-22-23-34-28-57-23-21 4-30 1-35-11-4-11-13-15-25-11-13 5-19 1-19-10 0-9-4-13-10-10-17 10-11-33 7-51 16-15 16-17 0-29-21-15-22-35-2-35 8 0 15 5 15 10 0 7 6 7 19 0 30-15 38-12 45 16 4 14 20 33 36 42 17 9 30 25 30 35s8 17 20 17c13 0 24 10 30 26 13 34 13 44-4 44-8 0-16 4-18 9-1 5-16-3-32-19zM3042 1974c-18-20-32-42-32-49s-7-18-15-25c-10-8-15-30-15-61 0-30-4-49-11-49-19 0-2-88 22-118 20-25 22-26 16-4-6 26 1 28 19 5 13-17 13-17 14 0 0 23 21 22 27-2 3-11 11-22 19-25 12-4 14 25 14 179 0 206-2 212-58 149zM1550 1924c-95-61-120-85-120-120 0-33 42-32 86 1 18 14 37 25 42 25 11 0 76 77 105 123 17 27 17 27-5 26-13 0-61-25-108-55zM1692 1855c3-17-32-75-46-75-8 0-16-6-19-14-4-9-14-12-27-9l-21 6 21-36c12-21 32-38 48-42 47-12 72-45 33-45-27 0-32-35-9-59 22-24 60-27 78-6 6 7 33 17 58 20 83 11 92 14 92 35 0 11 1 20 3 20 1 0 27-7 57-15 64-17 82-18 58-4-10 5-18 15-18 21s6 5 16-3c13-10 17-10 25 2 5 8 9 17 9 20 0 10-34 36-56 43-14 4-24 18-28 36-3 17-12 30-20 30s-17 6-19 13c-4 9-8 9-15-2-6-8-12-9-16-3-3 5-26 8-51 6-41-4-45-2-45 18 0 40-16 53-65 53-25 0-44-4-43-10z"/></g><g fill="#928564" style="transform:none"><path d="M1915 2741c-3-5-19-12-35-16-17-4-30-11-30-17s-6-8-14-5-17 3-21-1-10-7-13-7c-4-1-16-6-27-12s-51-23-90-38c-38-14-86-33-105-40-19-8-45-17-57-20-14-4-23-14-23-26 0-17 7-19 66-19s128 19 144 41c3 3 23 12 45 19s45 16 50 20c15 11 140 60 153 60 18 0 15 57-4 64-22 8-32 8-39-3zM3055 2378c-10-24-20-37-22-30-3 6-19 12-37 12-27 0-34-5-44-33-16-44-15-69 3-93 8-10 15-26 15-34s7-28 15-44c9-17 12-32 7-35-6-3-9-40-7-81 4-129 21-147 80-82l35 37v213c0 174-2 212-14 212-8 0-22-19-31-42zM2017 1494c-3-4 12-27 34-52s42-56 45-69c9-34 34-29 34 6 0 38-9 61-24 61-7 0-22 14-34 30-22 29-41 37-55 24zM1782 1388c-25-32-50-88-42-93 6-4 10-1 10 5s5 8 10 5c6-3 10-15 10-25 0-26 48-80 71-80 28 0 23 17-15 50-48 42-54 76-21 110 23 24 24 28 10 34-22 8-21 8-33-6zM2010 1178c-13-15-33-23-52-23-17 0-33-6-35-12-9-25 73-15 106 13 17 14 29 30 25 35-9 15-22 11-44-13z"/></g><g fill="#82888A" style="transform:none"><path d="M2312 2421c-66-25-100-104-47-109 14-1 25 3 25 9s6 9 14 6 26 3 39 13c13 11 26 17 29 15 8-8 112 36 124 53 10 14 10 18-4 24-31 12-136 6-180-11zM1301 1873c-1-7-6-13-12-13s-30-14-53-32c-22-17-42-33-44-34s9-14 23-28c20-20 32-25 48-20 19 6 20 5 8-10-12-14-11-16 3-16 11 0 15-5 10-12-4-7 9 2 28 20s38 29 43 25c4-5 5-3 2 3-4 7 0 17 8 24s15 23 15 36c0 20-5 24-30 24-22 0-33 6-40 23-5 12-9 16-9 10z"/><path d="M1530 1843c-8-3-27-14-42-24-34-24-41-24-28 2 11 19 9 20-17 17-16-2-32-12-38-24s-17-30-25-40c-14-17-14-18 2-6 10 8 23 12 29 10 17-6-53-58-140-106-79-42-109-73-69-68 29 3 75 24 114 53 16 12 46 30 65 38 63 30 82 43 131 95 58 61 60 69 18 53z"/><path d="M1225 1679c-16-10-26-19-22-19 11 0 67 29 67 35 0 9-15 4-45-16zM1898 1673c-10-2-18-13-18-23s-7-20-15-24c-8-3-15-12-15-20 0-10 6-13 16-9 9 3 20 0 24-7 5-7 13-9 21-5 7 5 36 7 65 6 32-1 55 2 59 10 10 15-30 47-67 55-16 4-28 10-28 15 0 9-13 10-42 2zM1660 1627c0-9-11-19-25-23-14-3-25-10-25-15s-12-9-26-9c-23 0-25-3-20-26 6-21 4-25-8-21-11 5-16 0-16-13 0-25-8-25-27-2-13 16-14 15-8-5 5-20 2-23-22-25-15 0-36-1-45 0-10 1-18-5-18-13s-6-12-13-9c-8 3-20-2-27-11-7-8-27-15-45-15s-43-8-56-18-33-22-43-26c-19-6-19-7 0-21 10-8 29-15 40-15 12 0 25-7 28-16 6-15 8-15 25 0 10 9 44 27 77 40 149 59 210 89 206 104-1 7 7 12 18 12s20 5 20 10c0 6 6 10 14 10 20 0 66 39 66 56 0 8-4 13-8 10-11-6-25 4-45 34-13 19-17 20-17 7zM940 1210c0-27 30-80 46-80 11 0 15 6 11 20-4 16 0 20 19 20 14 0 34-9 46-20 28-26 38-25 38 3 0 27-35 48-88 53-19 2-42 6-53 9-11 4-19 2-19-5zM1671 1068c0-9-10-20-21-23s-20-10-20-15c0-11 63-60 76-60 5 0 21-6 35-14 41-21 79-28 79-14 0 9 3 9 11 1 12-12 49-6 49 7 0 5-9 12-20 15s-20 13-20 21 5 12 10 9c6-3 10-2 10 4s-12 13-27 17c-16 3-38 9-49 14-13 5-26 4-31-1-7-7-16-4-28 8-13 13-20 14-23 5-7-21-21-13-25 16-2 15-5 19-6 10z"/></g><g fill="#AFA44A" style="transform:none"><path d="M1862 1528c-21-21-13-29 24-23 34 5 85-6 126-26 26-13 38-11 32 6-4 8-12 15-20 15s-14 4-14 8c0 9-80 32-113 32-13 0-28-5-35-12zM1844 1415c-10-8-27-15-36-15-10 0-18-7-18-15 0-19 10-19 46 0 40 20 118 20 139-2 25-25 36-62 29-98-3-19-1-35 5-39s11-3 11 2 10 12 22 15c20 6 21 8 6 24-8 10-18 35-21 57-6 38-30 64-72 78-36 11-91 8-111-7z"/><path d="M2085 1403c19-46 24-88 11-103-6-8-21-34-32-57-10-24-22-43-26-43-5 0-8-7-8-15s4-15 9-15c13 0 61 48 61 60 0 7 9 23 20 37s20 35 20 47c0 35-32 106-47 106-11 0-13-5-8-17z"/></g><g fill="#928F83" style="transform:none"><path d="M2062 2711c-19-5-48-16-65-24-31-14-71-31-112-47-30-12-103-30-165-41-30-6-59-14-65-18-5-5-29-15-52-22-44-12-59-39-23-39 22 0 27-16 8-23-28-10 5-20 77-25 71-4 75-3 75 16 0 15 13 27 47 42 43 19 49 19 79 5 52-24 74-20 74 14 0 17 5 33 10 36 6 3 10-2 10-13 0-17 10-20 87-25 50-3 89-10 91-16s16-11 32-11c23 0 29 5 34 33 6 30 8 31 21 14 20-27 79-20 83 11 2 14-2 22-12 22-8 0-17 8-20 18-4 10-22 24-41 31-32 11-48 31-25 31 15 0 12 17-5 24-29 11-111 15-143 7zM2476 2671c-4-6-16-11-27-11-26 0-47-21-41-39 3-10-1-12-17-8-15 4-21 1-21-12 0-24 31-51 58-51 12 0 22-5 22-11 0-10 218-3 230 8 2 2-2 8-9 12-8 5-11 17-6 30 3 12 11 18 17 15 6-4 9-1 6 7-3 9-20 14-47 14-30 0-50 7-68 23-30 27-87 40-97 23zM3085 2580c-3-5-15-10-27-10-11 0-22-8-25-20-6-23-23-27-23-6 0 7-6 18-13 24-10 9-17 6-30-8-14-17-15-22-1-50 17-33 46-39 78-15 11 8 28 15 38 15 14 0 18 8 18 40 0 41-4 48-15 30zM2540 2421c0-5 4-11 9-13 13-4-10-90-27-104-10-7-3-10 27-10 23 1 41 5 41 9 0 5 4 6 9 3 9-6 56 31 56 44 0 5 3 12 8 16 15 16 6 33-23 39-16 4-32 11-35 16-8 12-65 12-65 0zM2170 2379c-36-11-82-24-104-30-47-12-162-65-171-79-3-5-17-10-31-10-34 0-41-26-14-50 18-15 20-23 11-33-15-18-2-30 17-15 11 10 18 8 33-10 10-13 19-24 21-25 9-6 62 47 77 75 16 32 53 49 107 50 16 0 20 5 17 18-3 10 1 22 9 26 12 8 24 10 85 13 14 1 29 15 46 46l26 45-32-1c-18 0-61-9-97-20zM730 2263c-14-7-30-11-37-8-6 2-13 1-15-3-7-15-67-42-82-36-9 3-16 1-16-4 0-6-8-13-18-16-9-3 0-4 21-1 34 3 36 2 27-16-10-17-7-19 33-19 23 0 47 4 52 9 6 4 33 14 60 21 60 16 75 26 75 51 0 15-7 19-34 19-19 0-36 4-38 8-1 4-14 2-28-5zM1580 2153c-25-15-51-33-59-41-8-7-24-20-37-29-13-8-24-21-24-28 0-12-58-65-71-65-4 0-10-8-13-17-3-10-21-34-38-54-65-72-67-99-5-99 16 0 26-4 22-10-3-6 4-10 18-10s46 20 82 53c32 28 64 56 71 60 8 4 14 14 14 22 0 7 4 15 9 17 11 4 64 45 104 81 17 15 40 30 49 33 14 4 18 16 18 50 0 40-2 44-25 44-14 0-25 5-25 10 0 18-45 10-90-17zM731 2153c-19-3-40-11-47-18-16-15-19-29-5-21 5 3 12-2 15-11 4-9 1-20-6-25-11-6-10-8 0-8 9 0 11-7 7-19-12-38 47-37 183 5 16 5 22 2 22-10 0-10 9-16 25-16 14 0 25-4 25-10 0-5-16-10-35-10s-35-4-35-10c0-5-11-10-25-10s-25-4-25-10c0-17 199-5 216 13 11 11-2 20-29 20-30 0-55 34-32 43 28 11 15 24-24 24-30 0-40 4-44 20-4 15-14 20-39 20-22 0-38 7-48 20-14 20-27 21-99 13zM1211 2125c-35-8-66-17-69-20-3-2 5-14 18-25 20-17 20-20 6-26-9-3-16-15-16-26 0-17 5-20 35-16 19 2 36-1 38-6 4-11 98 21 109 38 4 5 2 19-4 30-8 15-7 22 8 33 9 7 15 15 12 18-13 13-78 13-137 0z"/></g><g fill="#A2967A" style="transform:none"><path d="M2688 2924c-29-6-73-17-98-23s-85-18-135-27c-108-18-107-18-122-27-7-5-16-6-20-4-5 3-39-3-78-14-38-10-86-18-106-18-20-1-52-8-72-16-19-8-37-12-40-9s-26-6-51-19c-44-23-46-26-30-42 15-14 15-18 3-26-32-20 65-8 123 16 34 14 70 25 80 25s28 8 38 18c21 19 236 64 299 62 18 0 38 3 45 8 17 15 158 34 281 39 61 3 116 9 123 15 6 6 12 21 12 33 0 23-2 23-99 22-55-1-124-7-153-13zM2856 2552c-3-6-19-8-35-6-16 3-32 0-36-6-9-14-62-13-68 3-3 6-6 0-6-15-1-19 4-28 14-28 8 0 15-4 15-10 0-5 6-10 14-10s16-6 19-14 19-17 36-21 31-11 31-16 11-15 25-21c15-7 25-20 25-32 0-27 9-40 37-55 30-15 53-14 53 4 0 8 7 15 15 15s15-9 15-20 5-20 10-20c6 0 10 5 10 11 0 8 5 8 15-1 8-7 16-10 16-6 1 3 3 11 4 16 1 6 3 17 4 26 0 8 5 13 10 9 6-3 10 3 11 12 1 10 4 55 6 101 6 92 13 87-64 49-32-16-33-16-42 8-6 16-18 26-32 27-13 0-35 2-50 3-16 1-28-3-28-9s-4-5-9 3-11 9-15 3zM470 1590c-11-7-4-10 27-10 23 0 45-5 49-11 4-8 9-7 16 2 5 8 11 10 14 4 4-10 151-12 160-2 2 2-44 7-103 11-60 3-117 9-128 11-11 3-27 1-35-5z"/></g><g fill="#A6A295" style="transform:none"><path d="M3015 2793c-65-8-104-40-105-85v-28h80c47 0 80-4 80-10 0-5 7-10 15-10 13 0 15 12 13 68-3 74-6 76-83 65zM2225 2745c-16-13-38-24-47-25-26 0-22-29 5-34 37-8 99-16 152-21 38-4 54-11 71-32 20-25 23-26 29-10 4 9 18 17 30 17 13 0 26 4 30 10 8 12 31 2 63-27 22-20 35-24 77-21 33 2 50-1 50-9 0-6 3-15 8-19 4-4 7 0 7 8 0 16 28 28 68 28 13 0 22 6 22 15s-9 15-24 15c-36 0-56 10-56 29 0 9-6 30-12 45l-13 28-98-7c-54-3-109-10-123-15-32-12-114-1-114 15 0 13-50 35-79 35-9 0-29-11-46-25zM2356 2605c-4-11-14-14-35-10-20 3-31 0-35-10-7-19-32-20-39-1-8 20-47 27-54 10-4-11-9-12-19-3-18 15-20-11-2-29 6-6 9-15 5-19-4-3-14 2-22 13-8 10-15 15-15 9 0-5-5-3-10 5-8 12-10 12-10 1s-3-11-15-1c-8 6-19 9-25 5-5-3-10 2-10 12 0 15-2 16-10 3-6-10-10-11-10-2 0 6-5 12-11 12s-9-7-5-15c4-11-2-15-25-15-20 0-29 4-26 13 2 6 11 11 21 9 9-2 16 2 16 8 0 17-90 12-96-5-4-10-13-13-25-10-14 5-17 2-13-9 3-9 12-16 20-16s14-4 14-10c0-10-18-5-59 16-20 11-31 10-60-2-20-9-46-20-58-25-13-5-23-16-23-26 0-14-9-18-40-19-22-1-40 2-40 6 0 9-77-5-137-25-24-8-58-17-74-19-16-1-32-6-36-9-3-4-15-7-25-7-11 0-33-8-51-17s-34-18-37-18c-3-1-17-7-33-15-29-14-29-39-1-67 16-17 54-17 54 0 0 14 51 42 90 51 70 15 129 32 141 42 8 6 37 14 64 17 28 3 92 12 143 20 77 12 94 12 103 0 6-7 27-13 45-13 27 0 34 4 34 20 0 13 7 20 19 20 11 0 22 4 25 8 7 12 68 2 84-14 16-17 72-19 72-3 0 34 77 52 100 24 7-8 19-15 27-15 7 0 16-7 19-15 4-8 17-15 31-15 13 0 31 7 39 15 9 8 24 15 35 15 10 0 19 5 19 10 0 6 16 10 35 10 40 0 105 28 105 46 0 7-12 11-30 10-17-1-32 4-35 12s-12 11-23 8c-12-4-27 3-42 19-27 29-36 31-44 10zM1481 2571c-11-7-11-9 0-13 9-3 2-11-19-22-40-20-33-36 15-36 49 0 183 49 183 67 0 8-5 11-10 8-20-12-130-17-130-6 0 13-20 14-39 2zM2730 2472c0-24 7-32 40-48 56-27 54-48-2-29-24 7-59 18-79 24-65 20-137 9-107-17 7-6 25-13 40-17 19-5 25-11 21-23-5-14-3-15 8-4 18 16 29 15 29-3 0-8 5-15 10-15 6 0 10 7 10 16 0 12 6 10 21-10 11-14 30-26 42-26 27 0 51-15 44-26-3-5 1-18 9-29 8-10 14-15 14-11 0 5 7 3 15-4 13-11 15-7 15 24 0 20 4 36 10 36 16 0 45-63 52-115 14-107 29-135 71-135 14 0 17 5 12 20s-3 18 9 14c22-9 21 34-1 66-10 14-17 26-16 27 4 5-8 37-24 67-9 15-12 31-7 35 21 15 13 39-16 51-30 12-34 19-31 52 1 10-11 24-28 33-17 8-31 20-31 24 0 5-14 12-31 16s-33 13-36 21-18 14-34 14c-25 0-29-4-29-28zM1633 2184c-18-8-16-24 2-24 8 0 15-4 15-10 0-5 10-10 23-10 17 0 23-6 23-22 0-13-5-27-10-31-6-4 6-7 27-5 25 2 41-3 48-12 8-13 11-13 20 3 6 10 17 16 27 13 23-8 45 39 31 65-5 11-16 19-24 19s-15 6-15 13c0 8-4 7-10-3-7-10-12-12-17-4-8 11-118 17-140 8zM1388 2152c-61-10-88-19-88-28 0-11 19-14 90-13 50 1 90 6 90 10 0 5 11 11 24 15 14 3 27 12 30 20 7 18-26 17-146-4zM363 2051c-54-27-76-57-52-72 8-4 19-3 28 4 11 9 15 9 18 0 6-16 33-17 33-2 0 8 4 8 13 1 8-7 17-7 28 1 18 14 14 98-5 96-6-1-35-13-63-28zM689 2071c11-7 10-14-5-37-10-16-26-34-34-41-27-20-2-26 42-10 24 9 61 18 83 21 22 2 42 6 45 7 9 4 24 7 43 8 11 1 17 9 17 26 0 23-3 24-45 23-25-1-45-5-45-9s-9-5-20-2-20 1-20-5-9-8-19-5c-12 3-17 11-14 19 3 10-2 14-18 14-17 0-20-3-10-9zM1190 2044c0-17-17-19-23-1-3 9-7 9-20-1-9-8-36-16-59-18-70-8-78-10-90-22-9-9-4-12 23-13 18-1 37-1 40-1 3 1 44 3 91 6 87 5 158 26 158 46 0 12-36 4-57-12-7-6-13-7-13-2s-11 14-25 21c-20 9-25 8-25-3z"/></g><g fill="#97A3AD" style="transform:none"><path d="M1109 2346c-2-2-26-7-52-10-27-4-56-11-65-16-30-16-150-60-164-60-7 0-19-9-26-20-12-19-10-20 38-20 27 0 50 4 50 9 0 11 54 22 102 21 20 0 39 4 43 10 3 5 18 10 33 10 37 1 62 22 62 54 0 23-9 33-21 22zM2902 2163c7-16 17-35 24-43 19-25 43-112 44-160 1-25-4-80-10-124-11-77-9-170 3-183 9-9-3-211-15-253-5-19-16-49-24-66-17-38-24-196-8-201 6-2 15 33 23 87 7 50 18 96 24 103 7 6 13 25 14 41 0 16 6 32 13 36 14 9 24 288 11 305-18 22-21 63-6 69 12 4 14 15 9 46-5 29-2 45 8 58 21 24 32 62 18 62-6 0-9 4-6 9s-1 14-9 21c-18 15-20 34-3 24 8-5 9 0 5 17-4 13-7 33-7 45s-10 25-25 32c-14 7-25 20-25 31 0 37-22 71-46 71-22 0-23-2-12-27zM1270 1734c-30-24-59-44-63-44s-46-25-92-55c-47-30-89-55-95-55-5 0-10-4-10-10 0-23 65 2 137 52 27 18 68 43 93 55 40 21 110 76 110 87 0 19-34 6-80-30zM1755 1029c-9-13 20-27 67-33 52-6 107 9 92 24-11 11-153 20-159 9z"/></g><g fill="#B1B0A6" style="transform:none"><path d="M2909 2776c-2-3-56-7-119-10-146-6-200-15-200-32 0-10 13-14 40-14 22 0 40-4 40-10 0-5-6-10-12-11-7 0-2-5 11-10 19-7 22-12 13-21-7-7-12-15-12-19 0-14 103-7 126 8 16 10 42 14 86 11 60-3 63-2 66 21 2 15 0 21-7 17-6-4-11-4-11 1 1 14 24 39 43 46 30 11 18 27-21 27-21 0-41-2-43-4zM2808 2633c-41-5-50-18-18-28 35-11 173-5 186 8 24 23-50 32-168 20zM2507 2553c-13-3-17-11-14-24 6-24-11-25-29-1-11 14-13 14-14 2 0-13-1-13-10 0-8 11-12 12-18 3-4-7-22-10-41-8-28 4-31 2-21-10s8-15-11-16c-13-1-27-1-31 0-5 0-8-6-8-14 0-21-13-19-28 5-7 12-16 18-21 16-5-3-16 3-26 14-13 14-25 18-42 13-16-3-28-1-33 7-6 10-12 7-26-9-10-11-24-21-31-21s-10-7-7-15c9-22-12-18-34 5-11 12-26 18-35 14-8-3-25 0-37 6-19 10-26 9-42-8-20-20-20-20 1-41 12-11 21-27 21-35s5-18 10-21c6-3 10-22 10-42v-36l59 6c65 7 140 32 157 53 6 8 28 14 48 14s36 5 36 10c0 6 11 10 25 10 16 0 25-6 25-16s4-12 13-7c6 4 47 8 89 8 62 1 78-2 81-14 4-13 5-13 6 1 1 11 6 15 16 12 12-5 15 2 15 30 0 25 4 36 15 36 8 0 15-9 15-20 0-24 31-58 48-52 7 2 12 0 12-5s17-10 37-11c21-2 40-6 43-10s14-9 25-10c11-2 21-7 23-12 2-4 12-6 22-3 16 4 20 0 20-20 0-14 4-28 9-32 6-3 9-13 8-23-2-26 63-112 85-112 18 0 22 12 18 64-2 33-21 67-62 110-15 17-28 36-28 43 0 8-4 11-10 8-5-3-10 2-10 12-1 21-77 63-114 63-30 0-42 26-15 33 21 6 26 42 7 46-29 6-184 9-201 4zM1830 2420c-14-16-30-30-37-30-14 0-18-47-5-67 4-6 20-15 35-18 18-5 27-14 27-27 0-15 6-19 28-16 21 2 28 9 30 31 2 15 8 27 13 27 19 0 39 29 39 56 0 34-42 74-78 74-18 0-36-10-52-30zM1195 2373c-11-3-24-9-29-14-6-5-20-9-33-9-14 0-23-6-23-16 0-9-10-24-22-34-21-17-21-18-2-23 10-3 44-8 74-12 51-5 58-4 80 20 13 14 29 25 37 25s13 11 12 28c-1 16-3 20-6 10-4-16-6-16-19-3-9 8-12 19-9 25 6 10-23 12-60 3zM949 2213c-61-3-80-8-94-23-10-11-26-20-35-20-27 0-31-25-8-53 16-20 27-25 48-20 15 3 31 0 34-6 4-7-1-11-12-11s-35-7-53-15c-33-14-26-20 16-15 16 1 18-1 8-11-7-7-13-16-13-20 0-12 74 11 86 26 6 8 33 19 60 26 52 13 84 34 84 56 0 7 9 13 20 13 15 0 20 7 20 28 0 37-17 52-54 50-17-1-65-4-107-5z"/></g><g fill="#AEBBC8" style="transform:none"><path d="M1735 2120c-4-6-23-19-43-29s-49-30-63-42c-35-31-89-73-100-77-5-2-9-10-9-17 0-8-6-18-14-22-7-4-36-28-64-53s-69-60-91-78c-46-37-51-52-20-52 26 0 71 26 116 66 19 17 78 59 131 92 53 34 120 82 149 107 45 40 52 51 51 80-1 26-6 35-19 35-10 0-21-5-24-10zM1870 1631c-8-6-18-7-23-4-17 10-103-21-146-54-24-18-50-33-57-33-8 0-14-4-14-10 0-5-6-10-12-10-7 0-40-11-73-25l-60-25h54c51 0 109 20 193 65 14 8 34 15 43 15 20 0 113 60 119 77 6 15-3 16-24 4z"/></g><g fill="#C2C0B1" style="transform:none"><path d="M3042 2974c-12-8-32-17-45-20-54-11-137-19-194-18-37 1-60-2-57-8 3-5 36-9 72-8 105 2 106 2 93-14-9-10-44-16-124-19-108-4-246-21-277-34-8-3-31-7-50-8-85-6-281-49-300-67-11-11-24-17-29-14s-35-6-67-20-68-27-79-29c-11-1-29-6-40-10-102-38-152-59-162-67-7-6-13-7-13-3s-6 2-13-4c-8-6-24-12-36-14-13-2-26-8-29-13-4-5-19-15-35-23-18-10-24-18-18-24 7-7 15-6 23 0 7 6 36 14 63 17 28 4 69 14 93 22 23 7 49 14 57 14 9 0 23 4 33 9 9 5 28 13 42 18 14 6 47 20 73 33 34 15 68 22 115 23 58 0 72 4 101 28 28 23 37 26 62 17 15-5 29-17 31-26 5-24 65-23 71 0 3 9 18 20 33 23 16 3 50 10 77 16 26 6 84 10 129 10 47-1 87 4 95 11 8 6 49 11 98 10 47 0 85 3 85 6 0 4 37 8 82 10 46 2 86 6 90 8 12 8 10 184-2 184-5 0-10-6-10-12 0-10-2-10-8-1-6 10-13 9-30-3zM2701 2536c-7-8-19-12-28-9-25 10-33-18-15-49 15-25 22-28 67-27 27 0 44 3 38 6-21 8-14 25 7 18 14-5 20-2 20 9 0 9-7 16-15 16s-15 5-15 10c0 6-7 10-15 10-7 0-18 7-23 16-8 14-10 14-21 0zM1886 2512c-2-4-1-14 5-22 21-34-7-43-35-11-21 23-56 34-56 18 0-7-10-13-22-13-13-1-45-4-73-8-27-4-60-7-72-7-13-1-23-5-23-10 0-4-18-7-39-6-21 0-47-5-56-13s-23-15-31-16-38-10-67-19-57-15-62-14c-15 4-75-34-75-48 0-6-5-13-11-15-16-5 0-34 27-47 46-20 91-14 124 19 17 16 39 30 49 30s26 10 34 23c12 19 22 22 51 19 26-3 37 0 42 12 8 20 34 21 34 2 0-21 76-32 106-15 13 7 24 19 24 28 0 10 3 12 8 5 4-6 19-14 35-18 22-5 32-1 51 19 13 14 26 25 29 25 11 0 57-47 57-58s88-27 98-18c3 3-3 6-14 6-19 1-19 1 0 15s18 15-8 42c-17 17-23 29-16 31 7 3-1 16-20 33-17 16-35 27-40 24s-11-1-15 5c-7 12-32 13-39 2zM675 2190c-3-5-19-10-35-10s-31-4-35-9c-3-5-29-17-59-25-29-9-59-23-66-31s-18-15-25-15c-16 0-78-50-71-58 3-3 12 1 21 8 12 10 15 10 15-2 0-8-5-19-11-25s-8-16-5-22c9-14 76-14 76 0 0 6 7 8 15 5 9-3 18 1 22 9 3 10 12 13 23 10 12-4 20 1 24 17 5 14 9 18 13 11 7-18 23-16 23 3 0 10 6 14 15 10 9-3 15 1 15 11 0 13 2 14 17 2 15-13 16-12 11 9-6 20-2 24 27 22 12-1 35 29 35 45 0 15-22 45-34 45-3 0-8-4-11-10z"/></g><g fill="#C8C9C3" style="transform:none"><path d="M2900 2818c0-10-21-13-78-13-42-1-86-4-97-9-11-4-57-9-102-11s-103-8-130-14c-26-6-59-13-73-16-43-8-57-22-44-42 8-13 23-18 55-17 61 2 151 15 169 24 24 13 91 21 201 26 124 5 168 9 192 19 9 4 28 4 42 1 16-4 25-2 25 5s8 5 20-6c20-18 20-17 20 25 0 39-2 42-24 36-34-8-152-10-165-2-6 4-11 1-11-6zM2928 2693c-6-7-15-10-22-6-20 13-90 10-121-5-16-8-48-16-69-16-48-1-58-22-19-37 30-13 222-19 336-11 64 5 67 6 67 31 0 14-4 32-8 38-11 17-150 22-164 6zM2480 2541c-8-6-18-7-22-5-4 3-8-4-8-15 0-12-5-21-12-21-20 0 2-14 25-15 55-3 77-16 77-46 0-23 5-29 23-31 12-1 31-2 42-3s25 2 31 7c7 5 16 7 20 6 5-2 11 1 14 6 3 6-10 14-27 18-34 9-43 23-21 30 9 3 8 9-5 22-10 11-24 15-37 11-11-3-20-2-20 4 0 7-55 42-64 41-1 0-8-4-16-9zM1616 2431c-4-6-13-8-21-4-9 3-15-1-15-10 0-23-15-29-44-17-23 8-29 6-48-20-12-17-30-30-40-30-9 0-31-13-48-30-33-32-77-42-66-15 3 8 1 15-3 15-5 0-11-5-13-11-3-8-9-7-19 3-27 27-44 26-76-5-26-24-33-27-33-14 0 9-4 17-10 17-5 0-10-5-10-11s-9-9-19-6c-23 6-31-10-31-60v-36l63 7c156 15 170 19 193 43 21 23 27 24 106 19 46-3 107-8 136-11 44-6 52-4 52 9 0 9 8 16 20 16 11 0 23 6 26 14 4 10 16 12 44 9 46-6 77 14 53 35-19 18-16 29 8 35 25 7 20 30-7 36-10 2-22 8-26 15-11 18-48 16-48-3 0-9-8-21-18-28-22-13-72-5-72 12 0 18-27 38-34 26zM870 2252c0-5-14-9-31-10-17 0-36-5-43-11s-15-9-18-6-18-1-34-10c-16-8-37-15-46-15-11 0-18-8-18-20 0-11 5-20 11-20s3-7-6-17c-16-15-16-17 0-26 10-5 20-6 24 0 3 5 15 8 26 8s28 3 39 8c13 6 21 5 27-4 6-11 9-10 15 4 3 9 14 17 23 17 22 1 80 52 63 58-6 2-12 15-12 28s-4 24-10 24c-5 0-10-4-10-8z"/></g><g fill="#CBD0D2" style="transform:none"><path d="M2310 2460c-8-5-24-7-34-4-15 5-18 3-13-10 7-19-9-22-16-3-4 9-7 9-15-1-5-7-13-12-18-11s-18 1-29 0c-16-1-17-3-6-10s5-13-25-26c-58-24-135-39-143-27s-71 21-71 10c0-19-28-37-51-32-14 3-20 2-14-3 12-9 13-48 3-59-5-4-8 2-8 14 0 13-6 22-15 22-8 0-15 3-15 8 0 4-11 8-25 8-14 1-25-2-25-7s-20-6-43-3c-35 5-45 3-50-10-4-9-16-16-27-16s-20-7-20-15c0-19-32-19-68-2-15 7-56 13-92 12s-71 2-77 8c-9 6-13 6-13-1 0-6-7-9-15-6-10 4-15 0-15-11 0-9-5-13-10-10s-10-3-10-13c0-16 13-24 56-38 31-9 62-23 69-31 21-20 55-15 93 14 23 17 37 23 40 15 2-8 9-9 21-2 10 5 62 7 115 4 65-3 102-1 111 6 8 7 23 9 33 6 13-4 22-1 25 8 7 18 117 71 178 86 65 16 74 18 77 20 1 2 5 3 10 4 138 36 177 52 180 75 2 13-2 21-11 21s-17 4-19 10-9 6-18 0zM1055 2292c-16-2-35-8-42-13-7-6-12-6-15 1-2 8-17 7-48-4-25-9-52-16-61-16-10 0-19-12-23-32-3-17-4-33-2-35 9-10 176-9 179 1 5 14 39-4 45-23 3-9-2-11-17-6-16 5-21 2-21-13 0-27-28-49-73-57-41-8-71-31-61-47 4-6 9-6 13-2 7 10 5 10 95 18 98 9 118 15 113 35-3 14 13 23 79 46 70 24 84 33 84 51 0 26-32 58-46 45-12-13-56-17-71-8-7 5-13 4-13-1s-7-9-15-9c-12 0-15 10-13 36 3 33 1 35-27 36-16 1-43 0-60-3z"/></g><g fill="#D2DFE9" style="transform:none"><path d="M1345 2260c-6-19-12-21-45-15-44 7-60-7-36-34 14-16 10-19-69-46-47-17-85-33-85-37 0-3-14-9-30-13-34-7-32-26 2-20 12 3 27 0 33-5s27-5 50 0c50 11 93 19 142 25 147 18 215 36 263 69 53 37 80 61 80 71 0 15-75-8-107-33-25-18-37-22-42-14-4 7-34 22-67 33-32 11-64 25-71 30-8 7-13 4-18-11zM1920 1240c-8-15-6-21 10-30 40-21 77 9 48 38-18 18-46 14-58-8z"/></g></svg>