<svg class="img-fluid" xmlns="http://www.w3.org/2000/svg" style="transform:none;transform-origin:50% 50% 0;cursor:move"
     width="300" height="300" viewBox="0 0 3000 3000">
    <path d="M1684 1298c-35-31-36-34-32-85 3-33 12-61 24-74 41-46 164-79 164-44 0 11 12 15 44 15h45l6 55c9 69 1 115-26 143-17 19-30 22-104 22-81 0-86-1-121-32z"
          fill="#1A1B1C" style="transform:none"/>
    <g fill="#393936" style="transform:none">
        <path d="M263 1800c-5-19-11-20-64-14-33 4-59 3-59 0 0-59 170-100 210-51 6 8 27 19 46 25 22 8 34 18 34 29 0 14-11 20-52 25-90 10-109 8-115-14zM258 1505c-1-1-23-5-47-8-27-3-50-12-58-23-26-36-7-161 31-206 36-41 152-118 215-142 31-13 74-34 96-48 49-30 218-118 229-118 4 0 6 15 4 33-3 29-10 35-83 72-121 61-121 61-117 106 4 35 2 39-19 39-17 0-28 10-39 33-13 27-21 33-60 38-33 4-40 7-27 13 9 5 17 19 17 32 0 20 5 24 33 24 64 0 77 9 77 50 0 30-5 40-20 45-11 3-20 15-20 26 0 14-7 19-27 20-82 3-159 9-170 13-6 3-13 3-15 1zM1638 1478c-21-6-38-16-38-23s-16-19-35-25-40-20-45-31c-8-14-21-19-50-19-22 0-48-4-58-9-9-5-30-13-47-18-26-7-30-13-33-51s-1-42 20-42c22 0 23-3 19-57-4-68 10-83 79-83h46l27-58c22-49 33-62 69-78 24-10 45-21 48-25 9-11 134-29 203-29 51 0 67 3 67 14 0 17 22 26 60 26 21 0 39 11 63 36 61 65 67 74 67 94 0 11 5 20 10 20 6 0 10 9 10 20 0 17 7 20 39 20 26 0 41 5 45 16 10 25 7 74-4 74-18 0-10 18 10 23 15 4 20 14 20 40 0 47-15 58-192 136-32 14-68 21-112 21h-66v-35c0-29 6-38 45-65 25-17 45-38 45-46s8-18 18-21c9-4 20-11 24-17 11-16 9-84-2-91-6-4-17-21-25-38-16-37-59-87-75-87-5 0-10-7-10-15s-7-15-15-15-15 8-15 19c0 12-12 23-32 32-18 7-37 19-41 26s-26 13-48 13c-30 0-46-6-64-26l-24-26-17 33c-9 18-23 39-30 47-17 17-17 25 5 86 9 27 26 54 37 60 10 6 21 14 24 17 11 13 50 29 70 29 13 0 24 8 27 20 3 11 12 20 19 20 10 0 14 13 14 44 0 37-4 45-22 50-32 8-86 6-130-6zM903 1453c-28-3-43-9-43-18s-20-15-67-20c-92-8-123-15-123-25 0-5-16-12-35-16-34-6-35-8-35-49 0-30 5-45 16-49 22-8 184 5 184 15 0 5 16 9 35 9 21 0 44 8 56 19 20 18 48 25 152 37l47 6v85l-52 7c-29 3-62 5-73 4s-39-3-62-5zM780 953c1-13 24-28 78-52 42-18 103-46 135-61l57-28v34c0 30-5 36-44 54-24 11-46 23-48 27-5 13-104 43-142 43-28 0-36-4-36-17zM1922 460c2-18 24-29 123-66 66-24 123-44 128-44 4 0 7 14 7 30 0 17-4 30-10 30-5 0-19 8-30 17-20 18-101 40-178 50-41 5-43 4-40-17zM2222 353c2-13 31-28 93-49 50-18 93-32 98-33 9-1 9 51-1 64-8 12-113 35-161 35-25 0-32-4-29-17zM2670 271c0-10-7-24-15-31-29-24-16-39 54-60 37-11 71-20 75-20 14 0 5 54-16 90-20 35-27 40-60 40-31 0-38-4-38-19z"/>
    </g>
    <g fill="#474643" style="transform:none">
        <path d="M240 1973c-51-29-97-69-111-96-15-27 15-122 38-123 10-1 41-5 70-9 49-7 51-6 55 16 2 14 11 25 23 28 16 3 17 1 7-12-8-9-9-18-3-21 5-3 11-1 13 5 5 14 68 21 68 7 0-5 5-6 11-2 30 18 329 70 462 80l87 7v60l-97-7c-54-3-136-10-183-16-47-5-123-12-169-15s-88-8-92-11c-5-2-25 3-46 11-26 12-53 15-85 10-54-6-61 4-22 32 20 15 25 26 22 51l-3 32-45-27zM1616 1929c-11-10-29-19-41-19-26 0-45-18-45-43 0-11-8-27-17-36-40-36-64-82-61-114 3-28 7-32 36-35 19-2 38 3 48 12 8 9 22 16 30 16s14 3 14 8c0 4 8 12 18 17 51 28 82 51 82 61 0 6 7 17 15 24 10 8 15 31 15 71v59l-37-1c-24 0-45-8-57-20zM965 1650c-10-11-22-20-27-20-10 0-75-45-93-64-22-23-74-55-99-62-14-3-28-10-31-14-6-10-176-11-253-2-35 5-65 5-68 0-3-4 7-8 22-8 22 0 25-2 14-15-15-18-1-40 31-50 10-4 19-10 19-15s-7-7-15-4c-25 10-18-34 7-47 28-15 48-35 48-47 0-11 48-22 101-22 39 0 53 15 24 26-27 11-16 32 19 38 19 4 36 11 38 17s30 13 63 15c52 4 88 8 118 13 4 0 7 7 7 15 0 9 11 12 37 10 21-1 41 2 45 9 5 9 10 9 19 0 7-7 24-9 40-6 23 4 29 2 29-12 0-10-5-15-14-12-7 3-31 1-52-4-44-12-72-17-95-18-8-1-25-10-37-21-16-15-29-19-48-14-18 5-31 2-38-7-6-8-18-14-26-14-19 0-26-35-8-46 24-15 178-9 219 9 37 16 39 19 39 59v43h50c28 0 50 5 50 10 0 6 14 10 30 10 19 0 30 5 30 14 0 8 7 16 15 20 8 3 15 12 15 20 0 10 19 18 58 26 117 24 162 66 162 153 0 36-1 37-37 37-21 0-48-6-60-13-173-98-176-99-246-101l-67-1v58c0 61-7 68-35 37zM1708 1512c-31-19-41-69-12-58 23 9 64-4 64-20 0-8-7-14-15-14s-15-4-15-9c0-10 188-26 197-17 3 3-5 15-18 26-24 21-24 21-1 15 52-15 82 24 45 57-38 33-202 47-245 20zM2156 1435c-3-8-12-15-21-15-23 0-19-47 6-60 11-7 18-18 15-25-3-8-1-17 4-20 6-4 10 1 10 11 0 13 3 14 15 4 19-16 12-27-25-35-17-4-30-9-30-11 0-7 33-58 42-64 4-3 3-12-1-19-12-18-60-6-68 17-7 17-22 32-35 32-14 0-8-58 7-74 19-19 19-26-1-26-11 0-13-6-9-19 6-20 2-27-63-96-24-26-37-33-42-25-5 7-17 10-29 7-14-3-21 0-21 9 0 8 7 14 15 14s15 7 15 15c0 19-60 21-78 3-22-22-14-48 13-48 14 0 25-4 25-10 0-5-4-10-10-10-5 0-10-7-10-15s-7-15-15-15-15-6-15-14c0-15 28-21 153-31l77-7v40c0 26 5 42 15 46 9 3 15 18 15 34 0 40 19 53 89 59 81 8 86 18 78 170-3 67-10 119-16 121s-13 19-17 38c-6 32-9 34-44 34-24 0-40-5-44-15zM1341 1321c-17-11-8-100 12-113 14-9 63-11 54-2-4 4 1 19 10 34 22 38 12 58-26 54-34-4-41 9-13 25 16 10 15 10-3 11-11 0-26-4-34-9zM2490 1311c0-16-9-21-45-27l-45-6v-82c0-44 4-87 9-95 11-17 135-27 164-13 12 6 31 12 42 14 17 3 20 12 23 64 3 60 2 61-32 85-27 18-36 31-36 52 0 25-3 27-40 27-33 0-40-3-40-19zM413 1293c-18-7-16-40 1-46 8-3 20-16 27-28 9-19 9-21-4-16s-27-10-27-30c0-3 20-3 44-1 35 4 43 2 39-8-3-8-9-14-14-14s-9-6-9-14c0-20 53-56 144-100 44-22 81-46 83-56 4-17 72-45 82-34 3 3 6 33 6 67v62l-52 3c-42 2-53 7-53 20 0 10-9 24-20 32s-20 22-20 32c0 15-9 18-45 18-45 0-45 0-45 34 0 58-79 103-137 79z"/>
        <path d="M2170 1001c0-31 6-55 15-65 8-8 15-19 15-25 0-13 79-14 99-2 10 6 12 23 9 60-7 69-19 81-84 81h-54v-49zM2533 1015c-7-8-13-32-13-54 0-46 18-61 73-61 31 0 35 4 41 31 3 17 6 47 6 65 0 34 0 34-47 34-29-1-53-7-60-15zM1155 855c-5-2-27-6-47-10-29-4-38-11-38-26 0-14 12-25 38-35 20-8 67-30 103-49 37-19 72-35 78-35s39-13 74-29c87-41 274-121 284-121 12 0 222-84 262-104 26-14 35-15 41-6 4 7 13 9 19 6 15-10 14 35-2 55-8 11-36 19-80 24-37 4-67 11-67 16s5 9 10 9c6 0 10 22 10 49 0 44-3 50-27 59-34 13-190 15-198 2-4-6-14-5-25 3-14 8-20 23-20 49 0 21-4 38-10 38-5 0-10 7-10 15 0 11-12 15-50 15s-50 4-50 15c0 10-10 15-29 15-39 0-61 9-61 26 0 10-12 14-40 14-30 0-40-4-40-16 0-13-5-12-29 5-26 19-68 26-96 16zM2560 781c0-6-13-11-30-11-29 0-30-2-30-42 1-56 44-108 90-108 24 0 30-4 30-21 0-20 4-21 60-17 33 2 60 1 60-4 0-4 16-8 36-8h37l-5 65c-6 72-19 95-53 95-33 0-55 10-55 25 0 12-26 20-102 32-25 3-38 1-38-6zM2270 430c0-5-9-10-20-10s-20-7-20-15c0-10-11-15-35-15-28 0-35-4-35-19 0-20 33-33 90-36 14-1 49-5 78-9 46-8 57-15 53-38 0-6 54-28 70-28 5 0 9 29 9 65 0 71 6 66-82 80-24 4-38 11-38 20 0 10-11 15-35 15-19 0-35-4-35-10zM2618 390c-7-16-18-30-24-30-7 0-14-7-18-15-3-8-11-15-18-15-8 0-20-9-28-20s-22-20-32-20c-11 0-18-7-18-19 0-15 19-25 93-48 85-27 94-28 115-14 13 9 20 23 18 34-7 29 8 19 31-22 16-28 19-41 10-44s154-61 241-85c9-3 12 21 12 96v100h-95c-52 0-95-5-95-9 0-5-7-9-15-9-11 0-15 12-15 45s-4 45-15 45c-8 0-15 7-15 15s-7 15-15 15c-9 0-18 7-21 15-4 10-20 15-44 15-33 0-40-4-52-30z"/>
    </g>
    <path d="M1758 1427c-14-6-29-20-32-31s-8-17-12-13c-7 6-74-18-84-31-3-4-14-12-24-18-30-16-60-115-51-170 3-24 10-44 14-44 5 0 14-14 21-30 7-17 22-37 34-45 23-17 82-20 91-5 3 6-3 10-14 10-26 0-26 5-1 30s36 25 49 3c9-15 10-14 11 11 0 21-10 38-35 60-52 46-54 76-10 114 31 28 43 32 90 32 77 0 111-41 99-121-6-38-17-49-29-29-4 6-12 4-21-5-9-8-22-15-30-15s-14-5-14-11c0-5-4-7-10-4-20 13-9-45 14-69 24-26 69-35 81-16 3 5 13 10 21 10 19 0 61 46 79 87 8 17 19 34 25 38 5 3 10 37 10 75 0 63-2 71-25 86-14 9-25 22-25 29 0 22-57 56-118 71-66 15-68 15-104 1z"
          fill="#5F5231" style="transform:none"/>
    <g fill="#4B4E4E" style="transform:none">
        <path d="M1474 1405c-10-8-27-15-36-15-13 0-18-8-18-30 0-34 2-35 30-17 17 10 26 9 51-5l30-18 11 30c5 17 19 35 29 41 10 5 19 14 19 19 0 16-94 12-116-5zM372 1383c-4-10-8-25-8-33 1-8-7-22-18-31s-16-21-12-27c11-18 73-15 80 3 3 10 19 15 42 15 35 0 36-1 32-30-3-21 1-35 14-47 22-20 23-33 2-33-10 0-14-6-10-15 3-8-2-21-10-30-10-9-13-22-9-33 4-10 9-12 12-6 2 7 13 10 23 7 14-4 20 0 20 11 0 19-3 18 37 7 22-7 33-6 37 2 2 7 5 4 5-7 1-10 11-27 23-37 20-18 20-20 4-38-20-22-16-36 14-44 15-4 20-1 18 11-2 14 5 17 42 16h45l-2-39c-2-21-7-41-13-45-5-3 6-12 25-19s39-10 45-6c11 7 113-26 118-38 2-4 25-17 50-29 26-11 41-23 34-26-7-2 8-15 34-29 32-17 49-21 54-14 3 6 23 14 44 16 21 3 42 7 46 10 13 8 62-45 56-60-3-9 1-15 9-15s15 5 15 10c0 6 11 15 24 21 14 7 22 17 19 25s0 14 6 14 11-5 11-10c0-12 50-70 61-70 4 0 11 10 15 22l7 23 9-25c13-36 0-100-20-100-16-1-16-1 0-11 31-18 65-1 72 36 4 18 4 40 0 49-7 19 12 22 19 4 4-10 8-9 16 2 9 13 11 13 11-2 0-10 5-18 10-18 26 0 1-40-32-53-10-3-18-11-18-16 0-14 45-25 66-17 10 4 18 0 21-13 8-31 30-32 62-5 24 20 34 23 50 15 25-14 84-14 76-1s-2 13 30-2c14-6 25-20 25-30 0-11-4-16-10-13-5 3-10 1-10-5s-7-18-15-27c-11-11-13-19-5-27 5-7 7-16 3-19-7-7-2-8 62-13 78-6 89-9 110-31 23-21 82-43 121-43 11 0 30-9 42-20s27-20 34-20c10 0 10-2 0-9-22-14 11-21 68-14 33 4 50 11 50 19s9 14 19 14c11 0 22 6 24 13 4 7 6 6 6-4 1-9 11-19 22-22 17-5 20-11 17-31-4-22-1-26 17-26 16 0 21 6 21 21-1 25 13 33 34 19 12-8 13-12 1-19-10-6-11-13-2-29 15-28 14-32-6-33-10-1 7-9 37-18 30-10 57-14 58-9 2 4 11 8 21 8 9 0 23 9 31 20s20 20 27 20c6 0 17 8 22 17 10 16 11 16 17-5 5-16 14-22 35-22 29 0 38 13 18 25-6 4-8 13-5 21 4 9-2 14-16 14-16 0-18 3-9 14 18 21 2 45-36 52-37 7-106 1-137-12-19-7-19-7-3 16 29 42 15 110-22 110-6 0-11 5-11 10 0 6-6 10-14 10-9 0-17 15-21 40l-7 40h-53c-47 0-54-3-57-22-3-21-3-21-28 5-14 15-30 27-36 27-7 0-14 9-17 19-4 15-17 21-61 26-31 4-65 5-76 2s-30 3-43 13c-17 14-41 19-89 19-74 0-117 9-136 28-15 15-8 20 38 25 22 3 25 9 28 44l3 41-90 7c-50 4-93 11-96 16-3 4-16 10-29 14-13 3-47 22-76 41-58 39-75 41-156 20-64-17-84-7-84 39 0 21 5 26 26 26 17 0 28 6 31 20 3 12 14 20 27 20 27 0 56 46 56 89 0 34-13 40-29 14-9-15-12-15-19-5-5 8-13 13-18 13s-8 13-8 29c1 21-4 31-17 35-11 4-19 15-19 26 0 14-7 19-30 19-20 0-30-5-30-15 0-8-6-15-12-15-17 0-38-46-38-82 0-16 9-36 20-45 11-10 20-28 20-42 0-23-2-23-52-17-29 4-53 8-54 9s2 25 6 52c5 28 9 65 9 83 1 28-2 32-24 32-16 0-25 6-25 15 0 8-8 16-17 16-10 1 4 5 30 9 74 13 97 32 97 81v41l-143-5c-78-3-150-9-160-12-19-8-22-21-7-30 17-11 11-30-14-41-18-8-28-8-35-1-8 8-11-1-11-31 0-37 3-42 23-43 12 0 31-5 42-10 13-5-12-7-70-3-73 5-93 9-104 25-10 14-26 19-62 19-43 0-49 3-49 20 0 12-6 20-12 18-7-1-37 1-65 5-37 5-53 12-53 22 0 8-4 15-10 15-5 0-10 8-10 17s-3 14-6 10c-4-3-20 1-37 9-24 13-31 14-38 2-8-11-10-11-18 1-7 11-9 11-14 0-4-10-6-10-6-1-1 18-29 15-39-5zm1248-603c30-7 64-19 75-26 19-14 19-14-3-14-12 0-22-5-22-11 0-13-53-2-58 12-2 5-21 9-43 9-37 0-39 2-39 30 0 26 3 29 18 21 9-5 42-14 72-21zM2170 1140c0-14-43-35-48-22-1 5-13 0-26-13-17-17-22-31-19-49 4-18 0-28-11-32-27-10-18-24 17-24 58 0 77 10 77 39 0 18 7 29 23 36 29 13 33 47 7 63-11 7-20 8-20 2zM2878 415c-7-16-19-25-35-25-12 0-23-4-23-10 0-5-22-10-49-10-44 0-49-2-53-25-4-21-2-24 13-20 15 5 17 1 14-34-2-23-6-45-10-50-8-15 17-51 36-51 9 0 21 12 28 26 7 17 17 24 26 20 10-3 15 1 15 12 0 12 4 10 13-8 7-14 21-26 31-28 12-3 16 0 11 8-4 7-1 16 6 21 8 4 16 4 20-2 4-7 12-5 22 5 8 9 25 16 36 16 19 0 21 6 21 68 0 106-4 112-61 112-43 0-51-3-61-25zM2665 246c-11-20-24-36-30-37-5 0-1-4 10-8 13-5 28-3 42 8 26 19 28 30 10 55-12 16-15 15-32-18z"/>
    </g>
    <g fill="#555755" style="transform:none">
        <path d="M1515 2151c-59-14-75-29-75-67v-36l123 7c170 9 167 8 167 54v38l-52 7c-65 7-123 6-163-3zM1224 1686c-16-7-42-25-58-39-15-14-51-37-81-52-36-17-55-33-55-45 0-9-7-23-15-30-27-22-16-32 11-11 32 25 54 27 54 5 0-8-4-13-9-10-4 3-16-3-26-14s-13-20-7-20 14 5 17 10c3 6 15 10 26 10 10 0 19 5 19 11 0 5 4 8 9 5 8-5 184 88 215 114 9 7 16 28 16 46 0 33-1 34-42 34-24-1-57-7-74-14zM873 1534c-3-9 0-20 8-25 10-6 10-9 2-9-7 0-13-5-13-11s14-9 33-7c27 2 33 8 35 30 3 21 0 27-11 22-8-3-18-1-22 5-9 16-25 13-32-5zM1295 1531c-6-6-26-11-45-12-45-2-90-20-90-37 0-7-7-15-15-18-8-4-15-12-15-20s-7-14-15-14-15-9-15-20c0-18 7-20 80-20s80 2 80 20c0 11 7 20 15 20 9 0 15 9 15 24 0 13 5 26 11 28s9 16 7 31c-2 19-6 25-13 18zM2222 1370c-10-17-10-20 4-20 12 0 14-3 6-13-7-8-6-19 3-37 19-33 19-51 0-44-20 8-19-10 1-27 8-7 13-21 11-31-4-15 1-18 34-18 38 0 39 1 39 34 0 19 5 38 10 41 6 3 10 24 10 45s-4 42-10 45c-5 3-10 15-10 26 0 28-80 28-98-1zM1271 1314c-39-17-71-24-117-24-35 0-64-4-64-9 0-20 13-41 25-41 7 0 15-10 18-21 4-16 11-20 26-16 12 3 21 1 21-4s-9-9-19-9c-11 0-23-4-26-10-4-6 6-10 24-10 39 0 61 9 61 26 0 18 14 18 51-2 29-14 31-14 36 5 3 12 11 17 19 14 9-3 14 2 14 16 0 12 6 20 13 19 8-2 11 8 9 30-1 22 3 35 13 38 26 10 16 24-17 23-18 0-57-11-87-25zM720 1313c-82-12-93-15-82-22 9-5 7-13-8-26-11-10-20-22-20-26s33-7 73-6c53 1 71-1 70-10-6-29 16-10 27 23 11 32 10 38-9 55-11 10-21 18-23 18-2-1-14-3-28-6zM2085 943c-11-3-33-14-49-26-26-18-28-24-24-68 4-37 2-49-8-49-8 0-14-9-14-20s-4-20-10-20c-5 0-10-15-10-34 0-25 7-40 25-54 14-11 25-24 25-29s8-9 18-10c9-1 24-3 32-5s14 2 15 9c0 19 13 26 32 17 10-4 27-8 38-8 13-1 21-9 23-24 2-13 9-22 16-19 6 3 25-8 41-25 25-25 28-32 17-48-13-21-12-21 25-24 7-1 19-10 26-20 20-27 53-27 68 0 13 24 39 40 39 24 0-6 5-10 11-10s17-7 25-15c13-12 13-16-3-32-10-10-18-29-18-43 1-14-4-28-10-32-6-5-5-12 5-19 11-8 12-12 3-16-20-7-15-23 6-23 10 0 22 7 25 15 9 25 87 56 104 43 10-9 16-8 22 1 5 9 9 10 14 2 4-6 11-9 16-6s11-4 15-15c3-11 11-20 16-20 6 0 8 3 5 8-2 4 2 16 10 27 14 19 16 19 25 3 6-10 17-18 26-18 11 0 14-6 10-21-4-16-2-19 11-13 9 4 39 8 65 8 26 1 51 6 55 11 4 6 13 10 20 11 26 2 29 5 40 30 7 14 17 22 22 19 17-11 11 15-9 36-11 12-37 22-69 26-29 3-57 12-63 19-7 8-31 14-58 14-29 0-57 7-76 20l-30 20 63-6 62-7v41c0 46-16 57-69 47-24-4-31-2-31 11 0 17-36 54-53 54-5 0-4-7 3-15 10-12 10-15 0-15-7 0-19 8-26 18-12 15-13 13-14-19 0-22 8-45 20-59 26-30 25-30-9-30-19 0-32 6-36 18-6 18-108 73-135 72-9 0-22 9-30 20s-22 20-32 20c-9 0-20 5-23 10-3 6-18 10-32 10-19 0-24 4-19 16 3 9 6 22 6 30s7 14 15 14c11 0 15 11 15 41 0 53-28 78-87 79-41 0-43 1-43 30 0 27-3 30-32 29-18-1-42-4-53-6zm285-353c0-5-5-10-12-10-6 0-3-7 8-15 16-12 17-14 2-15-11 0-18-10-20-27l-3-28-15 30c-22 43-15 75 16 75 13 0 24-4 24-10z"/>
        <path d="M2320 865c0-76 22-100 82-92 52 7 78 35 78 85 0 48-22 61-97 62h-63v-55zM2507 882c-11-12-17-36-17-65v-46l45-7c25-3 45-11 45-18 0-8 3-7 8 1 12 19 35-1 35-31 0-33 15-34 23-1 7 27 24 34 24 10 0-8 5-15 11-15s9-6 6-14 1-17 9-20c27-11 44-6 44 11 0 15 2 15 19-1 15-13 20-14 24-4 4 8 8 5 12-9 6-19 14-23 49-23s44 4 59 29c21 35 22 94 3 110-8 6-36 14-62 17-48 6-49 5-63-26-8-20-16-28-21-20-4 6-39 16-78 22-65 9-72 13-72 33 0 12-3 37-6 54-6 28-10 31-44 31-23 0-43-7-53-18z"/>
    </g>
    <g fill="#645A47" style="transform:none">
        <path d="M1388 2080c-25-16-50-35-55-42-4-8-21-22-37-32s-39-29-50-41c-23-25-49-29-236-41-63-4-109-12-117-20-19-19-16-24 15-25 15 0 21-3 15-6-7-2-13-9-13-15s19-7 53-2c63 9 207 13 225 6 17-6-6-32-73-82-70-53-151-131-147-142 1-6-3-17-10-26-10-12-10-16 0-19 17-6 15-23-4-23-36 0-4-25 35-28 36-3 43 0 48 17 3 12 12 21 19 21 8 0 17 6 20 14s18 16 35 20c24 5 29 10 29 35 0 22 9 35 38 56 43 32 73 65 120 129 19 25 41 48 50 51 10 2 24 16 32 29 18 29 105 104 137 119 14 6 23 19 23 33 0 21-4 22-37 18-36-5-37-5-19 10 19 15 18 16-15 16-20 0-53-12-81-30zM1451 1760c-34-5-51-16-77-46-39-45-47-89-14-79 14 4 20 2 20-9 0-8-4-17-9-20s-7-15-4-26c7-28 73-29 73-1 0 25 18 38 67 46 23 3 47 13 54 21 6 8 17 14 24 14 16 0 35 44 35 82 0 29-1 30-32 24-18-4-34-11-36-16-2-6-10-10-17-10-8 0-20-7-29-15-8-8-17-11-20-6s1 14 9 21c16 13 20 31 8 29-5-1-28-5-52-9zM2754 1735c-12-18-20-22-28-15-7 5-46 8-87 7l-74-2v-48c0-46 0-47-32-47-31 0-33-2-33-34 0-19-4-38-10-41-5-3-10-22-10-41 0-27 4-34 19-34 10 0 24-7 31-15s19-15 26-15c10 0 14-13 14-40 0-39 1-40 34-40 19 0 41 7 50 15 8 8 32 15 55 15 22 0 42 4 45 9s26 6 51 3l45-5v38c0 21-7 46-16 56-13 14-13 20-2 38 7 12 18 21 25 21 10 0 13 23 13 83 0 70-3 85-20 100-30 26-76 22-96-8zM2145 1580c-3-5-13-10-21-10-17 0-38-18-47-40-3-9-6-10-6-2-1 6-6 12-12 12s-17 7-26 16c-10 10-29 14-57 12-38-3-41-5-44-35-2-25-8-33-23-33-10 0-19-2-19-4 0-9 59-63 64-59 4 4 49-14 142-58 49-23 54-23 54-4 0 8 7 15 15 15 7 0 18 8 24 17 12 23 21 14 24-26 1-17 8-31 15-31 6 0 12-6 12-12 1-8 6-6 14 5 18 23 40 22 33-2-3-14-1-18 9-14 25 9 18 86-10 112-14 14-26 38-29 64-3 23-13 46-21 53-9 6-16 16-16 23 0 14-66 15-75 1zM716 1493c-8-8-11-9-43-12-15-2-14-4 5-13 24-12 30-28 10-28-8-1-6-6 5-14 9-7 17-18 17-25 0-6 6-11 14-11 25 0 46 12 46 26 0 10-8 13-27 8-20-4-24-3-14 4 7 5 11 14 7 20-3 6-2 13 4 17 15 9 12 35-3 35-8 0-17-3-21-7zM1608 1082c-4-13 1-26 11-35 16-14 102-39 109-32 10 10-9 35-27 35-11 0-23 5-26 10-3 6-13 10-22 10s-21 7-28 16c-11 15-12 15-17-4zM2901 941c-20-28-29-91-13-91 4 0 21-21 37-45 21-31 37-45 53-45 21 0 22 3 22 105v105h-39c-32 0-43-5-60-29z"/>
    </g>
    <g fill="#585D5F" style="transform:none">
        <path d="M830 1450c-8-5-39-15-67-21-63-14-74-42-21-53 17-3 33-4 36-1s0 5-6 5c-7 0-12 4-12 10 0 5 7 7 15 4 8-4 15-1 15 5s16 17 35 25 35 20 35 25c0 13-10 14-30 1zM1065 1410c-5-15-12-19-25-15-27 8-33-11-13-36 39-47 66-66 84-62 26 7 24 21-6 35-14 6-25 14-25 18 0 10 87 23 100 15 11-7 13 35 2 50-4 6-30 11-59 13-45 2-52 0-58-18zM465 1343c-48-3-74-8-82-19-7-10-13-12-18-4-3 5-12 7-18 3-12-8-17-9-37-12-18-2 52-81 72-81 10 0 18 5 18 11s9 8 21 4c14-5 19-3 15 3-12 19 19 19 47 0 15-11 34-18 41-15 8 3 19 0 25-6 15-15 13 4-3 25-7 10-16 15-19 11-4-3-7-1-7 5 0 7 6 12 14 12 20 0 45 32 29 37-7 3-13 11-13 19s-3 13-7 12c-5-1-39-3-78-5z"/>
        <path d="M880 1321c0-5 6-11 13-14 6-2 9-7 6-11s-17-3-30 2c-14 6-34 6-48 1-13-5-32-7-42-4-24 8-46-40-28-61 6-8 8-14 3-14s-3-4 5-9c12-7 12-13 3-24-16-19-9-24 33-19 21 3 35 10 35 18 0 25 29 15 63-21 30-32 35-34 47-20 11 13 10 18-6 30-18 13-18 14-1 15 9 0 23-11 29-25s15-25 19-25c5 0 8-10 6-22-1-16 5-23 27-29 16-5 32-13 36-19s23-15 44-20c28-6 36-5 36 6 0 22 27 17 33-6 9-36 23-21 19 20-3 25 0 40 7 40 6 0 11 6 11 13s9 18 20 25c19 11 20 10 20-28 0-22 5-40 11-40 14 0 39-25 39-39 0-16 59-13 76 3 16 16 19 51 4 41-6-4-8-10-5-15 8-14-9-20-25-9-12 8-12 12-2 16 19 8 14 27-18 63-23 25-27 36-19 47 9 10 7 13-10 13-14 0-21 6-21 20 0 11-7 20-15 20-20 0-19 10 3 26 16 12 15 13-5 14-13 0-23 5-23 10 0 6-18 10-40 10-33 0-40-3-40-20 0-13 7-20 20-20s20-7 20-19c0-32-11-51-30-51-28 0-32-14-9-33 21-19 23-26 9-47-7-12-13-12-27-4-10 6-30 10-45 10-30-2-39 21-13 29 51 16 51 15 21 40-16 14-32 22-37 20-4-3-10-1-14 4-3 6-11 8-19 5s-12 3-12 18c1 19-6 25-41 32-24 6-43 15-43 21 0 12-32 45-43 45-4 0-7-4-7-9zM625 1261c-4-3-17-6-28-6-17 0-23-7-25-30-1-16 1-25 5-20 4 6 22 11 38 13 17 2 34 8 40 13 5 5 19 9 32 9s23 5 23 12c0 6-2 9-6 6-3-3-20-2-39 2s-37 5-40 1z"/>
        <path d="M949 1087c4-11 20-24 34-28 38-10 34 5-7 29l-35 21 8-22zM1120 1003c-24-23-25-23-32-3-6 17-11 18-33 8-14-6-25-18-25-27-1-14-2-14-13-1-16 20-47 24-47 6 0-15 52-46 77-46 7 0 13-6 13-12 0-8 3-9 8-3 12 17 31 15 37-4 4-14 15-18 53-17l47 1-1 39c0 23-6 42-14 44-7 3-20 12-29 21-16 16-18 15-41-6zM1370 1021c0-6-13-11-30-11-21 0-30-5-31-17-4-55 14-83 53-83 13 0 29-5 36-12 9-9 12-8 12 5 0 14 6 16 25 11 15-4 25-2 25 5 0 6 7 8 15 5 8-4 15-1 15 5 0 9 5 9 20 1 19-10 20-8 20 34 0 51-3 53-95 62-46 5-65 3-65-5z"/>
        <path d="M1582 965c4-40 2-65-4-65s-5-7 2-15c8-9 16-12 19-7 3 6 40 13 81 17l76 7-4-39-4-38 47 3c37 3 46 1 43-9-6-18-48-25-48-8 0 6-9 0-21-15-19-25-22-25-47-12-38 20-62 29-97 33-47 6-55 11-55 33 0 11-4 20-10 20-5 0-7-7-4-14 5-13 1-13-24-4-23 9-37 9-56 0-32-15-33-29-2-43 21-10 24-17 19-45-5-33 9-48 20-21 3 7 6 5 6-5 1-13 9-18 31-18 24 0 30-4 30-22 0-17 3-19 9-9 7 11 14 11 41-3 22-11 37-13 45-6 6 5 15 7 18 3 4-3 7 1 7 11 0 13 5 16 19 11 15-4 21 0 24 17l4 23 2-22c1-25 16-31 24-10 2 6 8 0 12-15 7-29 25-38 25-14 0 12 5 12 31-1 22-11 33-12 38-5 10 17 48 3 54-19 8-29 37-24 37 7 0 21 3 24 14 15 20-17 43 13 26 34-9 10-9 15-1 15 6 0 11 8 11 18 0 9 10 22 22 27 30 13 34 41 11 67-17 20-17 21 11 43 30 24 76 38 76 24 0-5-7-9-16-9-8 0-12-4-9-10 3-5 15-10 26-10 16 0 19 7 19 40 0 55-29 80-91 80-53 0-70-13-39-30 11-6 20-15 20-20s-12-2-27 5c-18 9-29 11-33 4-8-12-252 6-279 21-10 5-21 6-25 2-4-3-10-2-14 3-7 10-77 45-89 45-3 0-3-29-1-65zM2290 896c0-8-7-21-15-29s-13-27-12-43c2-22-3-29-23-34-18-4-21-8-12-14 10-6 9-11-5-22-10-7-13-14-7-14s9-13 6-30c-4-28-2-30 26-30 17 0 34-4 37-10 3-5 14-10 23-10 10 0 24-9 32-20s18-20 22-20 8 9 8 20 5 20 11 20c8 0 10 17 5 54-3 33-2 57 4 61 5 3 10 13 10 21s-4 13-8 10c-14-8-42 32-42 60 0 19 4 25 15 20 9-3 15 0 15 9 0 11-12 15-45 15-32 0-45-4-45-14zM2470 580c0-12 5-17 14-14 17 6 28-20 21-49-7-28 29-56 39-31 3 9 4 20 1 24-9 15 15 22 30 10 13-10 15-8 15 17 0 39-31 63-80 63-33 0-40-3-40-20zM2717 569c-14-52-8-89 16-98 12-5 34-21 50-36 20-19 27-22 27-10 0 17 25 20 35 4 4-6 13-8 21-5s17-1 20-9c4-11 17-14 40-11 19 2 34-1 34-6 0-14 27-38 34-31 3 4 6 34 6 67 0 56-2 62-27 74-15 6-41 12-59 12s-34-6-37-12c-3-8-8-6-13 7-17 42-51 67-96 72-41 5-46 3-51-18z"/>
    </g>
    <g fill="#736748" style="transform:none">
        <path d="M2440 1961c0-49-1-50-32-53l-33-3v-58c0-31-3-57-7-57-5 0-8 14-8 30 0 27-3 30-34 30-18 0-39-7-46-15-10-12-30-15-84-13l-71 3-3-30c-4-45-23-75-46-75-37 0-66-12-66-26 0-8-7-17-15-20-10-4-15-19-15-43 0-29 5-38 27-48 47-22 117-13 184 23 27 14 27 13 38-31l11-45h48c26 0 53 5 60 12 9 9 15 9 24 0 7-7 22-12 34-12 17 0 23-7 26-27 3-24 8-28 40-31 38-3 78 11 78 28 0 6-10 10-22 10h-22l22 20c23 22 29 40 12 40-5 0-10 7-10 15 0 20 28 8 35-16 7-19 32-21 28-2-1 5 2 27 7 48 6 26 5 44-2 53-8 9-8 16 0 24s14 4 21-15c11-28 31-37 31-14 0 7 9 18 19 24 17 10 24 8 49-19l30-30 21 40c21 41 41 62 41 43 0-23 18-9 23 18 4 18 14 32 27 36 17 5 20 15 20 65v59l-56 7c-35 4-64 14-76 26-27 27-107 36-123 14-12-16-45-13-45 5 0 5-7 9-15 9-9 0-15 9-15 25 0 24-3 25-55 25h-55v-49zM1585 1318c-44-122-46-162-10-204 29-34 43-25 27 19-18 50-24 117-11 117 6 0 9 9 6 20s1 27 9 34c18 19 18 26-1 26-9 0-18-6-20-12zM1716 1134c-7-17 29-53 75-76l34-17-40-1c-40-1-40-1-15-15 27-15 61-18 98-9 22 6 31 34 11 34-7 0-22 11-35 25l-23 25h24c31 0 35 36 5 45-24 7-40-1-40-20 0-12-9-11-44 5-37 16-45 16-50 4z"/>
    </g>
    <g fill="#6B6759" style="transform:none">
        <path d="M1147 2380c-37-15-79-31-92-34-17-4-25-13-25-27 0-21 3-21 81-14 102 8 119 18 119 67 0 21-3 38-7 37-5 0-39-13-76-29zM1733 2093c-14-3-23-12-23-23 0-28-11-50-24-50-7 0-38-25-69-55-41-40-57-63-57-82 0-21 3-24 12-15 7 7 22 12 34 12 13 0 26 5 29 10 4 6 11 8 16 5 5-4 9 1 9 9 0 9 5 16 10 16 14 0 8-59-7-72-29-24-14-38 42-38h55v43c0 39 4 47 40 76l41 33-3 66-3 67-40 1c-22 1-50 0-62-3zM390 1953c0-14-53-33-92-33-27 0-38-4-38-15 0-8-7-15-15-15-9 0-15-10-15-26 0-21 4-24 20-19 11 4 20 2 20-4 0-16 27-13 33 3 5 12 11 13 36 3 17-6 31-17 31-24 0-9 7-10 24-3 13 5 34 6 46 3 18-5 21-3 15 7s-4 12 10 7c28-11 45 11 45 59 0 37-3 44-20 44-11 0-20 5-20 10 0 6-18 10-40 10s-40-3-40-7zM2846 1825c4-8 1-15-4-15-19 0-42-31-42-56 0-13 9-32 20-41 26-22 30-129 5-119-9 3-15 0-15-8 0-7-6-19-14-25-25-21-25-58 0-82 13-13 24-27 24-33s-5-5-12 2c-17 17-58 15-79-4-16-14-23-15-48-4-32 13-51 7-51-15 0-7-6-15-14-18-10-4-12 4-8 39 4 38 2 44-12 38-10-4-25 1-36 11-12 11-31 16-57 13-35-3-38-1-41 25-2 15-9 27-18 27-8 0-14 6-14 13 0 8-3 7-10-3-8-12-10-12-15 2-5 13-15 15-43 11-20-3-41-10-46-14-27-24-63 2-50 36 4 8 1 15-5 15-19 0-12 32 9 37 24 6 25 15 4 54-10 20-20 29-30 25-9-3-20-6-25-6s-9-15-9-34c0-28-6-38-35-55-23-13-37-16-41-9-5 8-11 6-18-4-23-31-55-31-105 0-3 1 5 9 17 18 12 8 20 20 17 25-4 5-1 9 4 9 17 0 13 25-10 54-16 20-29 26-60 26-32 0-39-3-39-20 0-11-6-20-14-20-31 0-36-77-6-103 11-9 30-17 41-17 18 0 20-4 14-29-5-24-2-30 14-36 12-3 21-11 21-16s4-9 10-9c20 0 58-42 53-58-4-10-2-13 5-8 7 4 12 1 12-8 0-10 10-17 28-18 40-2 46-3 59-11 6-4 14-1 16 5 4 10 8 9 16-2 9-13 11-13 11 3 0 9 4 17 8 17 18 0 53-49 55-76 1-16 9-35 17-41 13-12 13-15-4-27-23-19-14-34 27-41 20-4 37-15 42-28 6-13 21-23 38-25 24-3 27 0 27 29 0 28 2 30 16 18 13-11 17-10 25 4 6 9 19 17 29 17 13 0 20 7 20 20 0 11 5 20 10 20 6 0 8-10 5-23-5-19 1-29 33-51 34-23 40-33 38-59-1-21-6-31-15-29-7 1-24-4-37-13-27-17-74-20-74-4 0 6-8 8-19 4-12-3-21 0-25 10-10 27-26 16-26-19 0-25 7-40 25-54 14-11 25-25 25-32 0-13 70-10 103 4 13 6 17 3 17-13 0-12 6-21 16-21 12 0 14-7 9-33-4-17-9-33-10-35-8-8-45 20-45 34 0 8 5 12 10 9 6-3 10 1 10 9 0 13-13 16-65 16-37 0-65 4-65 10s-18 10-40 10c-45 0-46-3-34-94 6-43 9-47 29-44 12 3 30-1 40-8 17-13 17-14 0-40s-17-28 1-41c21-15 114-18 114-3 0 6-7 10-15 10-22 0-18 34 6 56 16 14 23 15 26 7 5-14 83-18 83-5 0 4 14 15 30 24 18 10 30 25 30 38 0 11 7 20 15 20s15-4 15-10c0-13 40-13 96 1 32 8 44 16 44 30 0 10 5 21 10 24 6 3 10 26 10 51 0 24-4 44-10 44-5 0-10 9-10 20 0 13-7 20-20 20-23 0-25 17-10 70 37 126 45 215 41 495-1 137-5 155-31 155-13 0-17-5-14-15zm-640-300c6-5 15-20 19-32 6-20 3-23-24-23-17 0-31 4-31 8s-14 13-31 19c-28 11-30 14-16 28 9 8 22 12 30 9s18 3 22 13c6 15 8 15 13 3 3-8 11-19 18-25zM1422 1638c-7-7-13-21-13-32-1-17-2-18-6-3-2 9-8 17-13 17-11 0-54-60-43-60 4-1-7-7-24-15-49-21-40-35 22-35 30 0 55 5 55 10 0 6 18 10 40 10h40v45c0 25-4 45-10 45-5 0-10 7-10 15 0 18-21 20-38 3zM1315 1460c-3-5-24-10-45-10-37 0-39-2-46-37-5-25-3-38 5-41 6-2 11-9 11-17 0-13 42-25 86-25 13 0 24 4 24 9s18 12 40 16l40 7v48c0 45-1 48-31 54-46 9-77 7-84-4z"/>
    </g>
    <g fill="#65696C" style="transform:none">
        <path d="M1085 1690c-3-5 1-10 9-10 9 0 16-6 16-14 0-16-27-29-41-20-5 3-12-2-15-11-4-9-17-21-30-26s-23-14-22-21c3-12-2-14-46-17-11-1-16-6-13-15 4-9-1-17-11-20-22-7-116-95-109-102 16-16 146 39 246 104 35 23 70 42 76 42 21 0 65 52 65 76 0 19-5 24-24 24-14 0-28 5-31 10-3 6-19 10-35 10s-32-4-35-10zM1230 1457c0-37-1-38-32-36-51 3-107-2-83-8 11-3 30-17 43-30 18-20 29-24 53-19 33 6 39-8 9-26-11-7-20-16-20-20 0-11 92-10 108 1 24 15 9 44-26 53-22 6-32 14-32 28 0 11 5 20 10 20 6 0 10-5 10-11 0-5 5-7 10-4 15 9 12 47-5 69-14 19-15 19-15 1s-1-18-15 1c-13 18-14 17-15-19zM1538 1442c-17-10-28-25-28-38 0-20 3-21 43-13 59 11 77 19 77 35 0 8 7 14 15 14s15 5 15 10c0 17-93 11-122-8zM1070 1322c0-4 5-13 12-20 9-9 9-12-3-12-8 0-20 5-26 11s-16 8-23 4c-14-9 40-57 57-51 6 3 14 0 17-7 3-9 7-9 13-1 14 19 76 23 89 6 10-14 14-13 35 1l23 17h-27c-15 0-27 5-27 11 0 20-27 37-52 32-14-3-29 0-32 6-8 13-56 15-56 3zM2293 1282c-7-4-10-21-8-40 4-31-9-45-18-19-7 19-18 2-21-34-5-55-14-69-40-59-17 6-25 4-34-11-7-10-19-19-27-19-10 0-15-10-15-29 0-23-5-30-27-36-16-3-43-16-62-27-31-20-32-22-16-34 10-8 28-11 40-8 14 4 30-3 48-22 31-30 34-44 12-44-14 0-13-4 2-25s24-24 58-20c29 3 46-1 63-14 29-25 28-41-3-41-14 0-25-3-25-7 1-19 29-43 49-43 12 0 33-11 47-25s30-25 37-25c9 0 9-2 1-8-33-20-10-84 27-77 11 2 19-1 19-6 0-6 5-7 10-4 6 3 13 0 16-9 3-8 12-12 20-9 7 3 16-1 19-9 4-10 15-13 29-11 16 4 34-4 56-24 18-15 36-27 41-25 5 1 9-5 9-14 0-8 5-12 10-9 6 3 13-1 16-9 3-9 10-14 14-11 5 3 11 2 13-2 5-7 26-8 86-4 18 1 19 4 9 31-13 38-5 62 19 53 23-8 64-49 56-56-3-4 1-12 8-20 25-24 46-26 69-5 20 19 22 19 40 3 12-11 26-14 39-10 20 6 21 14 21 131 0 106-2 124-16 124-8 0-22 7-30 15-27 26-58 18-78-20-11-19-25-35-33-35s-12 4-8 9c3 5-4 16-15 24-18 13-19 17-7 40 10 20 17 23 25 15 9-9 12-8 12 4 0 9-7 19-16 22-24 9-90 7-118-4-30-11-35-40-8-46 20-6 65-71 57-84-3-5-1-11 5-15 5-3 10-15 10-26 0-18-2-18-14-6-17 17-76 11-76-9 0-7 8-17 17-23 25-14 9-25-16-11-12 6-26 8-31 5-6-3-10-1-10 5s-4 8-10 5c-5-3-10-2-10 2 0 9-26 44-72 99-36 40-36 58-3 50 18-5 27-2 31 9 3 8 11 12 16 9 6-4 8 2 3 15-5 18-2 22 23 27 23 5 31 13 36 36 14 73-1 99-38 63-20-20-42-19-64 3-13 13-29 18-51 14-18-2-38 1-48 9-13 11-17 11-20 2-3-7-13-13-23-13-13 0-19 10-22 38-5 37 1 58 9 35 3-7 11-13 18-13 8 0 21-8 30-17 16-16 18-16 27 1 6 11 16 15 30 10 26-8 38 10 38 59 0 25-4 37-14 37-8 0-17 6-19 13-3 7-6 5-6-5-1-19-21-25-21-7 0 6-11 20-24 30-29 23-43 68-24 81 10 8 10 11 1 15-7 2-13 9-13 15 0 5-10 18-22 29-20 16-21 20-8 29 8 5 12 10 8 11-5 1-11 2-15 3-5 1-14 5-20 9-8 5-13 4-13-2 0-7-8-7-26-1-30 12-26 12-41 2zm-35-274c19-25 25-60 11-69-19-12-39-11-39 2 0 6-7 17-15 25-24 24-19 54 9 54 13 0 28-6 34-12zm169-132c3-3 19-6 35-6s39-5 50-11c14-8 23-8 31 0 17 17 24 13 30-16 9-47 1-52-55-37-28 7-56 18-61 23-8 8-16 6-29-5-9-9-29-16-43-16-15 0-28-7-31-14-14-46-12-45-39-22-25 21-34 58-15 58 5 0 12 11 16 24 3 14 13 26 22 28 25 6 82 2 89-6zM1233 1223c-8-21-40-53-53-53-5 0-10-9-10-19 0-31-11-51-28-51-14 0-14-2 0-17 9-10 17-25 20-33s20-15 43-17c21-1 41-7 45-14 6-8 9-8 12 1 6 20 48 2 48-20 0-14 10-21 38-25 20-3 47-8 60-11 26-5 28 4 5 23-16 13-16 13 7 7 22-6 38-9 73-13 4-1 7-11 7-23 1-16 14-31 46-50 50-31 84-36 84-13 0 8 5 15 12 15 6 0 3 6-7 14-14 10-20 26-20 54 0 33-4 43-22 51-13 6-23 15-23 20 0 6-7 8-15 5-8-4-15-2-15 4s4 12 10 14c14 4-21 78-37 78-7 0-10 6-7 13 3 9-4 13-21 12-19 0-30-10-46-42-12-24-25-40-30-37-10 6-50-14-46-24 2-8-7-12-28-12-8 0-15 7-15 15s-5 15-11 15-9 9-6 20c6 22-8 28-16 8-2-7-8-9-13-5s2 29 16 54c23 44 24 46 5 59-26 19-54 18-62-3zM840 1101c0-22-14-28-25-11-9 14-35 13-35-2 0-6 3-8 7-5 3 4 13-2 20-13 8-11 20-19 26-18 7 1 22-3 34-10 23-13 40-1 28 18-3 6-1 10 4 10 6 0 11 9 11 20 0 13-7 20-19 20-11 0-26 3-35 6-12 4-16 0-16-15zM1830 910c0-16 5-30 10-30 6 0 10 7 10 16 0 8 4 13 9 10 4-3 7-18 5-33-2-16-1-22 2-15 8 17 34 15 34-3 0-16 16-20 24-6 3 5 15 7 26 4 12-3 20 0 20 7s10 21 22 32c23 19 23 20 4 34-26 18-66 18-66 0 0-13-4-13-35 0-52 21-65 18-65-16zM1756 781c-4-6-16-11-27-11-10 0-19-4-19-10 0-5-7-10-15-10-21 0-19-9 8-31 24-20 67-26 67-8 0 5 4 8 9 5s11 4 15 17c6 25-27 67-38 48z"/>
    </g>
    <g fill="#807151" style="transform:none">
        <path d="M2590 2080c0-5-22-10-48-10s-52-4-57-9c-6-4-45-4-89 2-49 7-81 7-83 1-2-5-28-7-59-5-63 3-74-4-74-54-1-54-11-75-36-75-15 0-27-9-36-27-12-26-17-28-64-25-36 3-55-1-66-12-19-19-34-154-19-169 8-8 11-5 11 11 0 29 14 28 39-5 14-17 19-33 15-47-6-18-5-19 9-7 9 7 14 17 11 22-5 9 12 12 56 10 20-2 28 5 38 31 7 18 18 41 23 51 6 11 6 17-2 17-5 0-8 4-4 10 7 11 36 1 50-17 8-11 15-10 39 2 15 8 33 15 39 15s19 7 29 17c17 15 18 15 18-10 0-15 10-37 22-49 19-19 22-20 33-5 7 10 18 17 24 17 7 0 11 10 10 23-2 12 0 28 4 35 5 7 3 12-7 12-9 0-16 8-16 19 0 23 19 38 29 23 6-10 25-15 49-13 14 1 17 41 2 41-5 0-10 19-9 43 1 36 2 38 9 17l8-25 7 23c10 31 26 28 23-5-2-20 2-28 12-28 8 0 24-9 35-20s25-20 30-20c24 2 54 17 58 30 13 33 90-18 80-53-8-33 18-38 43-9 13 16 26 23 29 17 4-6 16-8 27-4 17 5 19 3 13-15-7-24-5-25 30-9 21 9 25 18 25 52 0 81-5 86-74 86h-62l-13 45c-12 42-16 45-47 45-18 0-36 5-39 10-3 6-22 10-41 10s-34-4-34-10zM2940 2024c-14-35-12-88 2-102 7-7 22-12 35-12 22 0 23 4 23 70 0 68-1 70-25 70-18 0-28-7-35-26z"/>
        <path d="M2480 1792c-54-8-69-57-25-86 27-18 39-21 31-7-3 5 1 26 10 46 18 45 16 51-16 47zM1655 1254l-28-53 37-37c30-30 36-33 36-16 0 10-5 34-11 51-11 30-9 35 20 65 17 17 31 34 31 36 0 3-13 5-29 6-25 1-32-6-56-52zM2487 1213c-10-3-17-12-15-20 5-23 43-34 64-18 15 11 16 15 5 29-14 16-21 17-54 9zM1580 1123c0-23 36-83 50-83 15 0 12 15-11 60-22 42-39 52-39 23zM1850 1048c-25-5-69-7-98-5-74 5-91-17-24-32 65-14 142-6 165 18 25 24 12 30-43 19z"/>
    </g>
    <g fill="#787568" style="transform:none">
        <path d="M1185 2356c-23-15-125-29-125-17 0 11-167-49-211-75-19-11-57-29-84-39-28-10-68-29-90-41s-59-28-82-35c-35-10-43-17-43-36 0-20 5-23 40-23 21 0 63 8 92 18 29 11 71 24 93 30s73 22 114 36c40 14 89 26 107 26s36 5 39 10c3 6 16 10 28 10s31 7 41 15c11 8 28 15 39 15 10 0 32 8 48 17 25 15 29 23 29 60 0 46-5 50-35 29zM2350 2320c-8-5-25-10-37-10-20 0-23-5-23-44v-45l45-6c25-4 66-3 92 1 45 9 48 11 51 42 3 24-3 38-20 52-25 21-83 26-108 10zM445 2090c-3-5-20-16-38-24-95-41-184-96-157-96 6 0-2-13-20-30-18-16-35-30-37-30-3 0-11-8-18-17-11-14-9-20 10-35 13-10 29-18 37-18 24 0 68 24 68 37 0 7 7 10 15 7 8-4 15-1 15 5s-7 11-15 11-15 3-15 8c1 9 78 58 108 66 12 4 22 11 22 16s10 12 22 16c34 10 48 29 48 63 0 24-4 31-19 31-11 0-23-4-26-10zM1187 2034c-4-4-7-22-7-41 0-27 5-35 26-43 63-24 118 3 112 56-3 28-5 29-63 32-34 2-64 0-68-4zM1988 1944c-9-9-48-21-87-27-68-11-71-12-71-39 0-15-4-28-10-28-5 0-10-9-10-20s-4-20-10-20c-5 0-10 5-10 11 0 13-38 49-52 49-4 0-8-7-8-15 0-11-11-15-40-15-28 0-40-4-40-14 0-8-8-17-17-21-24-7-73-51-73-64 0-6 7-8 15-4 13 5 14 2 4-21-7-14-18-26-24-26-7 0-18-7-25-15-6-7-31-17-55-21-33-4-45-11-49-27-3-14 0-26 9-33 23-17 19-37-4-24-30 15-49 12-56-10-5-14-15-20-38-20-33-1-77-29-77-49 0-6 14-14 30-18 21-4 32-13 36-30 5-16 10-21 18-14 7 6 18 6 26 1s18-6 22-4c4 3 8-9 8-25 0-29 3-31 35-31 28 0 35 4 35 20 0 11 7 20 15 20s15 6 15 14 9 18 20 21 20 10 20 15c0 4 9 10 21 13 11 3 23 15 26 26 3 12 12 21 19 21 8 0 14 7 14 15 0 9 9 15 25 15s25 6 25 15c0 8 5 15 10 15 15 0 12 87-2 93-7 3-4 6 7 6 11 1 30 4 43 7 20 6 22 3 22-39v-46l43-8c33-7 43-13 45-31 2-12 8-22 13-22s9-5 9-12c0-16 49-58 67-58h21c4-1 9 14 12 32 3 23 10 33 23 33 26 0 46 44 35 77-11 30-38 45-50 26-6-10-8-8-8 4 0 10-3 17-7 15-9-2-13 6-13 24 0 6 7 9 15 5 10-3 15 1 15 13 0 10 7 32 16 49 8 18 12 36 9 42-9 15 3 47 22 54 9 4 24-1 34-10 18-16 20-16 39 1 12 11 20 31 20 50 0 59-82 99-122 59zM635 1933c-72-17-85-27-85-66v-30l48 7c26 4 56 7 67 6 11 0 48 5 83 11 61 11 62 12 62 44 0 28-4 33-31 39-43 8-74 6-144-11zM1475 1853c-22-15-58-37-80-49-37-20-40-26-43-68-3-44-2-46 23-46 15 0 38 9 52 20s34 20 44 20c11 0 27 13 38 30 10 16 21 27 24 23 4-3 7 1 7 10 0 10 5 17 10 17 6 0 10 10 10 23s5 28 12 35c26 26-56 13-97-15zM2886 1768c-15-76-19-109-19-158 0-30 1-109 1-175 1-69-3-122-8-125-30-18-75-250-49-250 4 0 10-8 12-18 3-9 5-2 6 16 1 34 21 46 21 12 0-11 5-20 10-20 15 0 12-26-4-40-8-6-12-18-9-27 4-11 2-14-8-11-20 7-38-21-39-59 0-48 9-62 46-69 19-3 34-12 34-20 0-10 13-14 40-14 22 0 40 3 40 6 0 12-35 64-43 64-18 0 35 59 56 62l22 3 3 293c1 192-1 292-8 292-5 0-10 16-10 35s5 35 10 35c6 0 10 31 10 73 0 90-17 117-73 117-30 0-37-4-41-22zM2367 1570c-9-11-17-24-17-29 0-15-43-21-59-8-12 10-14 9-8-5 3-10 2-20-3-23-6-4-10-1-10 4 0 6-12 11-26 11-24 0-25-3-19-27 8-33 4-29 33-37 13-5 22-3 22 3 0 17 40 13 46-4 5-12 10-12 32 3 14 9 29 16 32 16 3-1 3 3 1 10-6 19-4 60 4 84 9 27-5 29-28 2zM2514 1426c-6-26-24-36-24-14 0 9-3 9-11 1-19-19-4-38 32-41 18-1 39-8 47-14 10-9 16-8 23 3 5 8 7 20 4 27-3 8-5 18-5 23s-5 9-12 9c-6 0-19 7-29 16-17 15-19 14-25-10zM2400 1373c0-38 15-58 43-58 20-1 24 4 23 22 0 14-6 21-14 18-9-3-10 3-6 20 5 22 3 25-20 25-22 0-26-4-26-27zM2714 985c4-10-1-15-14-15s-20-7-20-19c0-11-9-26-20-34-51-35 15-62 90-36 31 11 32 14 27 51-5 39-29 67-56 68-8 0-11-6-7-15z"/>
    </g>
    <g fill="#877961" style="transform:none">
        <path d="M2205 2270c-27-3-61-12-75-18s-44-16-67-22c-32-8-43-16-43-30 0-17-7-20-45-20h-45v-40c0-29-4-40-15-40-10 0-15-10-15-29 0-28-1-28-44-24-44 5-45 5-48-28-2-26-12-40-45-64-43-30-67-75-45-83 7-2 12-11 12-19 0-23 84-8 129 23 19 13 38 20 41 15 11-19 109 4 124 28 4 6 16 2 31-11 22-19 23-22 8-45-11-17-13-27-5-35 16-16 64 12 81 46 13 28 14 28 27 11 12-16 14-16 14-3 0 9 5 18 11 20 5 2 14 29 18 61 7 51 21 90 21 58 0-8 5-9 19-2 14 8 22 6 35-8 9-9 16-22 16-28 0-13 25-24 34-16 3 4 6 22 6 40 0 31 2 34 23 27 12-4 33-8 47-9s35-8 47-15c20-13 25-12 46 8 24 23 57 30 57 12 0-11 51 9 62 25 4 5 10 2 14-8 3-9 10-15 14-12 5 3 12 1 15-5 5-8 11-7 21 1 16 13 16 14 32-24 7-16 10-33 6-38-3-5 3-12 13-16s21-11 25-17 11-6 20 2c10 8 18 8 25 1 8-8 13-8 17 0 10 16 36 13 36-4 0-8 5-15 11-15 8 0 10 18 7 55-6 70-28 97-77 93-33-3-38 0-55 35-18 38-19 38-75 37-31-1-78 1-105 5-33 6-50 4-55-4-6-9-18-9-54 0-26 6-47 15-47 20s-7 9-15 9-15 5-15 10c0 6-15 10-33 10-32 0-32 0-29 45l4 45-33-1c-19-1-56-5-84-9zM2896 2158c-18-84-18-107-2-123 18-18 22-70 6-80-14-9-12-102 3-116 7-7 11-30 9-58-2-33 0-42 7-31 8 12 14 10 33-13 43-49 48-38 48 101 0 70-4 121-9 114-6-10-10-10-20 1-12 16-1 59 18 72 6 3 11 40 11 86v79h-49c-47 0-49-1-55-32z"/>
    </g>
    <g fill="#757A7B" style="transform:none">
        <path d="M1635 2510c-27-10-59-19-71-19-11-1-24-4-28-8-4-5-24-13-44-18-34-10-37-14-40-53l-3-42h36c19 0 61 9 92 20 32 11 65 20 75 20s45 7 78 17l60 16v87l-52-1c-29-1-75-10-103-19zM1137 1728c-48-35-54-44-39-49 10-4 23-14 30-22 8-9 22-13 35-9 22 5 22 5 3-16-17-20-17-22-2-22 9 0 33 11 54 24 20 14 51 28 67 32 27 7 29 6 16-9-7-9-28-26-47-38-20-12-34-29-34-40 0-18 3-17 51 8 83 45 91 50 115 77 27 29 35 88 9 66-12-10-15-10-15 3 0 9 8 21 18 26 14 9 11 10-16 11-21 0-50-11-78-30-31-22-44-27-44-17 0 8-11 18-25 21-14 4-25 11-25 16 0 17-14 11-73-32zM1840 1541c0-11-6-21-12-24-22-8 7-29 51-37 32-6 44-4 56 10 22 25 18 40-10 40-14 0-28 7-31 15-9 23-54 19-54-4zM1320 1515c0-12-5-13-17-7-27 14-43 4-43-26 0-25-1-25-15-6-11 15-14 16-15 3 0-8 10-29 23-46 19-26 25-29 47-20 60 23 71 31 64 46-4 9-6 26-5 39 0 13-3 20-9 17s-10-1-10 4c0 6-4 11-10 11-5 0-10-7-10-15zM1530 1503c-8-4-20-12-27-19s-17-14-23-16c-5-2-7-19-3-40 5-32 10-38 30-38 13 0 42 10 63 23 31 17 40 28 40 50 0 17-5 27-15 27-8 0-15 5-15 10 0 11-26 12-50 3zM1200 1185c-7-8-16-12-21-9s-9-4-9-16c0-22 40-43 74-38 24 4 34 28 11 28-13 0-16 6-11 25 5 20 3 25-13 25-10 0-24-7-31-15zM2380 1186c0-19-5-20-31-6-40 22-80-30-45-59 8-7 28-16 45-21 24-7 31-6 31 6 0 8 7 14 15 14 11 0 15 9 13 37-3 35-28 61-28 29zM2570 1120c0-11-6-20-14-20-7 0-16-10-20-22-4-17-8-20-15-10-6 10-10 8-14-9-4-13-2-26 4-29 11-7 1-41-14-51-5-4 0-10 12-14s28-2 35 4 16 8 19 4c4-3 7 1 7 10 0 10 8 17 19 17 24 0 32 22 21 57-4 15-11 40-14 56-7 31-26 37-26 7zM1493 1123c-7-2-13-9-13-14 0-6 4-8 9-4 12 7 20-22 16-62-4-41 21-66 40-40 7 10 17 16 23 15 16-5 13 13-11 64-17 37-23 44-29 30-6-16-7-16-7 1-1 17-6 19-28 10zM2750 951c0-24-6-31-32-40-23-8-34-8-39 0-10 16-52-8-45-26 3-8 1-17-5-21-6-3-8-12-5-20 3-9-1-14-14-14-10 0-25-9-33-20s-17-17-20-13c-4 3-7 0-7-8 1-21 31-56 37-43 4 11 77 10 110-1 7-2 26 3 43 11 18 9 41 13 55 10 16-4 25-2 25 5s8 5 20-6c13-12 20-14 20-5 0 10 3 10 15 0 9-7 14-19 11-27-3-7 1-13 10-13 11 0 14-6 9-22-6-22-5-22 8-5 9 11 16 14 19 7 2-6 18-13 36-15 32-4 32-4 32 41 0 36-7 56-32 91-18 24-34 40-36 34-5-16-22-13-22 3 0 8-15 17-34 20-40 8-52 30-32 61 13 19 12 23-5 33-14 9-19 9-19 1s-4-8-14 0c-11 10-17 8-25-6-10-17-10-17-11 0 0 9-4 17-10 17-5 0-10-13-10-29zM1540 940c-12-9-9-15 20-40 19-16 40-30 45-30 6 0 24-7 40-16 17-8 44-16 62-17 18-2 35-5 38-9 11-10 35 3 35 18 0 8 5 14 11 14s9 9 6 20-1 20 4 20 9-4 9-10c0-5 9-10 20-10s20 7 20 15 5 15 10 15c6 0 10 6 10 14 0 12-19 14-105 11-58-2-110-7-116-10-6-4-19 1-30 11-18 16-19 16-19-6 0-19-2-20-15-10-8 7-15 9-16 4 0-5-3-1-7 8-5 13-11 15-22 8zM2493 743c-17-6-16-23 1-23 8 0 13-8 12-17-1-12 5-17 17-15 11 2 17-4 17-17 0-11 6-21 13-24 10-4 10-7 0-18-19-19-16-34 4-18 13 11 17 11 20 2 7-20 23-15 23 5 0 10-15 36-33 58-19 21-36 47-40 57-7 17-12 19-34 10zM2851 658c-1-10-7-15-15-12-7 3-16-2-19-10-4-9-13-16-22-16-20 0-19-24 1-41 12-10 22-10 48-1 42 15 46 15 46-3 0-8 7-15 15-15 18 0 20 30 3 31-7 0-5 4 5 8 17 6 16 9-7 34-15 16-30 26-35 23-5-4-12 0-14 6-3 8-6 6-6-4z"/>
    </g>
    <g fill="#857E71" style="transform:none">
        <path d="M1987 2614c-16-16-6-71 16-92 25-24 72-28 175-16l52 7v39c0 33-4 40-27 50-32 12-206 22-216 12zM2607 2533c-38-4-38-5-35-45 2-24 9-44 18-48 8-4 24-12 36-17 12-7 95-11 197-12h177v129l-177-2c-98-1-195-3-216-5zM1330 2450c-132-48-177-69-152-69 27-1 28-9 5-27-11-8-13-13-5-14 17 0 15-27-3-34-8-3-15-10-15-16 0-15 61-12 90 5 14 8 35 14 48 15 12 0 22 5 22 10 0 6 16 10 35 10s43 4 53 9c9 5 25 12 35 15 12 4 17 16 17 41 0 30-3 35-24 35-18 0-25 6-28 24l-3 23-75-27zM2171 2316c-7-8-11-29-9-47 3-32 5-33 52-36 27-2 55 2 62 8 24 20 15-4-12-32-25-26-25-54-1-46 6 2 23-2 36-9 20-11 27-11 34-1 7 9 10 9 14 0 2-7 11-13 19-13s14-4 14-10c0-5 16-12 35-16 19-3 35-11 35-16 0-6 6-8 14-5s16 1 18-4c4-13 58 9 58 23 0 12 40 0 61-18 14-12 21-12 53 1 35 15 39 15 52-2 8-10 17-28 20-40 3-13 10-23 14-23s12-15 17-32l10-33 18 37c18 36 20 37 37 21 17-15 18-14 18 25 0 22-3 42-7 44-5 2-18 21-30 43-15 27-32 43-52 49-25 7-31 14-31 37 0 24-4 29-24 29-13 0-29 7-36 15-7 9-29 15-51 15s-39 5-39 10c0 6-7 10-15 10s-15 5-15 10c0 16-67 12-74-5-3-8-16-15-28-15-22-1-22-1-4-15 11-8 18-15 15-16-2 0-13-2-24-4s-31-7-44-11c-18-5-22-4-17 5 6 8 1 10-18 5-20-5-26-2-26 10 0 11 9 16 28 17 15 0 21 3 15 6-7 2-13 13-13 24 0 17-8 19-84 19-60 0-87-4-95-14zM2006 2231c-4-6-25-15-46-21-22-6-40-17-40-24 0-8-8-16-17-18-10-3-25-18-33-34s-22-34-30-41c-13-10-16-6-20 25l-5 37-69-3c-43-2-73-8-83-17-13-13-11-15 11-15 36 0 33-19-4-26-23-5-30-12-30-30 0-20 5-24 30-24 17 0 30-4 30-10 0-5 12-10 26-10 21 0 24 3 19 21-6 19-4 21 13 17 12-3 23-1 25 5 7 21 27-4 27-34 0-27 14-40 22-20 5 15 53 1 66-20 14-22 1-59-21-59-7 0-30-12-51-26-32-22-42-25-58-15-14 9-18 8-18-4 0-8-4-15-9-15-18 0-18-38 0-51 23-16 24-29 4-29-17 0-20-35-4-46 19-11-13-24-33-13-14 7-18 6-18-6 0-19-32-19-70 0-28 14-30 14-41-7-7-13-16-26-21-29-13-9 24-72 50-85 37-19 35-23-7-17-45 6-49 2-25-21 11-12 12-16 2-16-7 0-18-11-24-24-27-57 65-90 120-43 23 20 35 23 82 19 49-4 54-3 54 16 0 14 8 22 23 24 17 2 23 10 25 39 3 35 2 36-37 43-24 4-41 12-41 19 0 24 13 28 37 12 13-9 23-11 23-5 0 5-4 10-9 10s-7 8-4 19c3 10 0 22-6 25-6 4-11 0-11-8 0-9-5-16-11-16s-9 6-6 14c3 7-5 23-19 35-13 11-24 25-24 31 0 13 26 13 51 0 15-8 19-7 19 5 0 8 7 15 16 15 11 0 14 6 9 20-7 23-6 24 29 10 16-6 28-6 31 0 8 13-25 61-36 54-5-3-9 0-9 5 0 6 15 11 33 11 29 1 30 2 15 14-26 19-22 28 9 24 30-3 44 18 16 25-15 4-14 5 4 6 12 0 25-3 28-9 11-18 30-10 75 33 25 23 56 49 70 58 22 14 24 20 14 45-20 57-83 12-93-67-1-3-11-5-23-3-13 1-26 3-30 3-12 1-48 40-48 50 0 5 9 11 21 14 17 5 19 10 13 43l-7 37 52-7c51-7 52-6 45 18-4 19-1 26 16 31 35 11 21 40-22 43-20 2-39-2-42-7zm-375-578c16-10 29-23 29-30 0-19-14-16-35 7-10 11-24 20-32 20-7 0-13 5-13 10 0 15 18 12 51-7zM542 2128c-6-6-19-12-29-13-46-5-106-45-68-45 15 0 15-2 1-15-8-8-20-15-26-15s-10-6-8-12c8-24 67-21 113 6 24 14 49 26 55 26 18 0 40 27 40 48 0 15-5 19-20 15-11-3-20 0-20 6 0 14-23 14-38-1zM2900 2055c0-16-6-25-16-25-13 0-15-10-13-52 3-74 0-100-10-94-14 9-19-42-9-85 7-27 16-39 28-39 23 0 30 20 30 81 0 29 4 49 11 49 6 0 9 6 6 13s4 24 14 38c19 25 26 69 10 69-5 0-11 13-14 29-8 38-37 50-37 16zM1043 2017l-53-11v-43c0-39 2-43 25-43 14 0 25-5 25-11 0-15 94-6 132 13 23 11 28 20 28 51 0 26-4 37-15 37-8 0-15 5-15 10 0 12-56 11-127-3zM470 1990c0-5-9-10-20-10s-20-7-20-15-4-15-10-15c-5 0-10-10-10-22 0-19 2-20 11-8 8 11 12 12 16 3 2-7 13-13 24-13 20 0 27-26 8-32-7-2-9-13-5-25 5-16 14-20 41-20 19 1 35 4 35 8s8 5 19 2c13-3 20 2 24 19 22 80-9 138-75 138-21 0-38-4-38-10zM773 1962c-59-17-70-39-23-48 31-7 42-24 15-24-8 0-15-5-15-11 0-8 20-10 68-5 75 8 92 21 92 73 0 32-1 33-42 32-24-1-67-8-95-17zM2965 1649c4-5-4-19-16-30-20-17-21-22-9-30 12-7 13-11 2-18-27-17-5-62 36-75 22-7 22-5 22 78 0 80-1 86-21 86-11 0-17-4-14-11zM2876 1364c-12-30-6-75 10-81 9-3 19-1 23 6 5 8 14 5 29-9l22-21v23c0 13 0 34 1 47 0 39-18 48-41 21l-20-23v26c0 30-14 36-24 11z"/>
    </g>
    <g fill="#9D9253" style="transform:none">
        <path d="M1860 1407c0-8 18-19 40-26 22-6 47-23 56-36 24-37 47-33 28 4-25 50-124 96-124 58zM1630 1350c0-5-6-10-14-10-18 0-39-26-31-39 4-7 14-3 27 9 12 11 29 20 39 20 9 0 19 7 23 15 4 11-1 15-19 15-14 0-25-4-25-10zM1900 1244c6-15 8-41 4-59-3-19-1-35 5-39s11-3 11 2 10 12 21 15c19 5 20 7 7 21-9 8-19 31-22 51-4 21-13 35-21 35-12 0-12-6-5-26zM1670 1185c0-25 50-85 70-85s9 32-20 57c-16 13-30 31-30 39s-4 14-10 14c-5 0-10-11-10-25zM1972 1156c-18-48-79-106-114-106-15 0-29-4-32-9-8-12 56-21 69-10 5 5 15 9 23 9 12 0 56 45 75 76 4 8 4 27 0 45l-8 31-13-36z"/>
    </g>
    <g fill="#98886B" style="transform:none">
        <path d="M2130 2729c-36-10-82-18-102-18-59-1-88-19-88-54v-30l61 6c33 4 94 17 135 28 73 22 74 23 74 56 0 18-3 32-7 32-5-1-37-10-73-20zM1805 2642c-27-15-53-30-56-35-3-4-13-5-22-1-10 3-17 1-17-5s-3-10-7-9c-5 1-23-6-41-15-18-10-37-15-42-12-6 3-10 2-10-3s-8-12-17-15c-10-3-43-15-73-27s-76-28-102-37-45-20-42-24c2-5-4-17-16-29l-20-20h35c19 0 43 4 53 9 9 5 42 14 72 21 58 12 112 30 120 40 3 3 46 18 95 34 188 60 195 64 195 120 0 33-2 36-27 35-16 0-50-13-78-27zM2853 2403c-24-13-43-31-43-39s-7-14-15-14c-25 0-21-105 5-127 11-10 20-28 20-42 0-13 11-39 25-57s25-37 25-43c0-20 38-12 45 9 3 11 10 20 14 20 5 0 6 10 4 23-4 20-1 23 24 22 16 0 27-6 26-13-2-7 2-12 7-12 6 0 10 53 10 140 0 118-2 140-15 140-8 0-15 5-15 10 0 19-75 8-117-17z"/>
    </g>
    <g fill="#8E897D" style="transform:none">
        <path d="M2928 2865c-13-13-198-37-253-33-38 3-40 2-43-29l-3-31 75-7c54-5 99-2 165 10l91 18v38c0 36-15 51-32 34zM1950 2623c-8-3-34-14-57-24-23-11-49-19-57-19-20 0-36-31-36-69v-31h68c37 0 72 4 78 9 5 5 28 11 51 13 32 3 43 0 46-13 3-9 20-19 41-23 20-4 36-11 36-16 0-6 18-10 40-10 29 0 40 4 40 15 0 9 9 15 25 15 14 0 25 5 25 11 0 7 12 0 26-15 22-21 36-26 78-26 28 0 92-7 141-16 170-29 175-29 175-3 0 33-15 53-33 46-8-3-20 0-26 6-13 13-15 31-3 23 4-2 14-1 22 5 10 6 11 9 3 9-7 0-13 6-13 14 0 10-22 15-87 18-54 3-88 9-91 16-2 7-25 12-56 12-29 0-56 4-61 9-6 5-43 12-82 16-55 5-73 4-73-5 0-7 8-19 17-26 25-18 17-21-63-27-65-5-74-4-93 17-22 23-19 39 5 29 9-3 14 2 14 15 0 29-53 42-100 25zM2396 2324c-5-14 27-53 45-54 11 0 1-54-10-58-24-8-8-18 31-21 43-2 62-10 42-18-14-5-5-63 11-69 13-6 65 40 65 56 0 14 17 12 23-2 3-7 6-3 6 9 1 12-3 23-8 25-4 2-11 13-15 25-5 16-2 23 14 28 13 4 20 15 20 32 0 24-2 25-45 21-34-4-45-2-45 8 0 32-122 48-134 18zm131-54c26 0 8-25-20-27-24-2-25 0-14 24 6 14 13 20 15 14s10-11 19-11zM2095 2293c-126-31-141-36-172-51-18-9-33-20-33-24 0-5-7-8-15-8s-15-8-15-18c0-20-38-42-70-42-11 0-24-9-30-20-6-12-7-20-1-20 5 0 11 6 14 13 3 8 7 7 12-5 4-11 1-24-9-34-9-8-13-20-10-26 4-6 9-5 15 3 6 11 12 10 27-4 23-21 36-21 52-2 7 8 22 15 33 15 16 0 18 3 10 11-14 14 11 59 33 59 8 0 14 7 14 16 0 8 5 12 10 9 6-3 10-1 10 4 0 6 8 11 18 11s27 7 39 15c12 9 24 11 27 6 7-11 61 1 119 26 38 16 45 27 26 38-7 5-4 14 7 26 16 18 16 19-17 18-19 0-61-8-94-16zM867 2275c-18-13-18-14 1-24 21-11 42 2 42 26 0 17-20 16-43-2zM2666 2248c-7-29-5-34 11-30 26 6 12-20-17-31-16-6-30-15-30-20 0-4 4-6 9-3s11-1 15-9c6-17 36-20 36-4 0 15 52 2 66-17 6-7 14-14 18-14 13 0 5 63-14 106-18 39-24 44-54 44-27 0-35-5-40-22zM1460 2095c-25-17-49-24-86-24-28-1-71-8-94-16s-66-15-94-15c-51 0-76-12-76-37 0-7 7-10 15-7 8 4 15 1 15-5s7-11 15-11 15-3 15-7c0-12-51-33-62-27-5 4-8-4-6-17 3-23 6-24 75-23 68 2 74 4 109 38 20 20 41 36 45 36 5 0 18 11 31 24 13 14 54 45 93 70 38 26 63 46 55 45-8 0-31-11-50-24zm-175-94c3-6-2-14-12-19-21-11-67 3-58 18 8 13 62 13 70 1zM1483 2062c-36-24-100-79-143-124-8-9-34-36-58-60-48-48-59-76-42-107 8-16 20-21 51-21 36 0 40 3 46 30 4 24 11 30 31 30 25 0 25 0 19 75-5 65-3 78 14 97 14 16 22 19 25 11 6-14 47-16 118-7l46 7v48c0 49 0 49-32 48-18 0-52-12-75-27zM588 2047c-32-6-58-14-58-19 0-4-7-8-15-8-26 0-16-43 15-70 17-13 30-33 30-43 0-18 5-19 51-14 66 8 109 27 109 49 0 10 7 18 15 18 22 0 20 63-3 83-20 19-56 20-144 4zM929 2000c-64-8-75-13-89-41-10-18-9-19 16-13 24 6 25 5 15-15-7-12-21-21-35-21-26 0-96-27-96-37 0-12 321 24 335 39 12 12-9 38-31 38-15 0-24 6-24 15 0 8 7 15 15 15s15 7 15 15c0 16-25 18-121 5zM1900 1950c0-5-17-17-37-26-28-12-33-18-20-21 9-3 17-9 17-14s15-9 33-9c26 0 36 6 45 25 15 33 15 35-3 35-8 0-15 5-15 10 0 6-4 10-10 10-5 0-10-4-10-10zM2877 1838c6-100 16-125 38-94 8 10 19 15 25 11 9-5 10-1 5 14-3 11-2 21 3 21 11 0 2 63-11 71-5 4-11 17-12 30s-3 27-4 32c0 4-12 7-25 7h-25l6-92zM1691 1728c0-12-9-18-26-18-41 0-29-13 43-47 68-32 82-31 62 7-9 17-14 19-26 9-10-8-14-8-14 0 0 6-6 11-14 11s-17 12-19 28c-2 15-5 19-6 10zM1810 1698c0-10-7-18-15-18s-15-5-15-11c0-5 4-8 9-5s20-3 33-13c14-11 30-16 36-12 14 9 6 41-10 41-6 0-17 8-24 18-13 16-13 16-14 0zM2964 1657c3-12 6-28 6-34 0-7 7-13 15-13 10 0 15 10 15 33 0 26-4 33-21 34-17 2-20-2-15-20zM1570 1642c0-14 33-38 68-50 41-14 41-4-2 31-34 26-66 36-66 19zM1810 1612c0-6 6-13 13-16 8-3 7-9-7-20-21-17-14-33 19-46 34-13 64-2 58 21-3 10-9 19-14 19s-6 7-3 15c5 12 10 12 27 3 12-6 25-15 28-21 4-5 9-5 12 0 3 4-1 16-8 26-14 20-125 36-125 19z"/>
    </g>
    <g fill="#B0A849" style="transform:none">
        <path d="M1768 1429c-33-19-19-29 31-23 31 4 51 2 55-5 10-16 46-14 46 2 0 8-21 18-51 25-60 14-59 14-81 1zM1966 1351c-4-6 2-28 13-47 27-46 26-79-3-140-13-27-22-52-19-56 5-9 43 13 43 25 0 5 9 21 21 35 18 23 20 35 14 81-8 67-14 81-31 81-7 0-17 7-22 16-7 12-11 13-16 5zM1725 1304c-21-15-34-29-27-32 6-2 22 4 34 12 35 25 122 21 148-6 11-12 20-28 20-35 0-8 4-11 10-8 19 12 9 50-17 69-15 11-48 21-77 23-43 4-57 0-91-23z"/>
    </g>
    <g fill="#8A8F90" style="transform:none">
        <path d="M2227 2343c-4-3-7-15-7-25 0-18 21-23 78-18 12 1 22-4 22-10s15-10 35-8c19 1 35 6 35 11s7 6 16 3c18-7 44 15 44 38 0 14-17 16-108 16-60 0-112-3-115-7zM1208 1789c-40-43-41-65-2-75 26-7 31-23 12-42-25-25 41-12 81 16 36 24 40 32 41 69 0 48-17 65-37 37-14-19-14-19-29 0-8 11-14 23-14 28 0 16-16 6-52-33zM2860 1731c-7-41-9-95-4-133 4-34 6-87 5-115-2-47 0-53 18-53 26 0 36 59 22 133-9 52-6 97 8 97 3 0 6 32 6 70 0 65-1 70-22 70-19 0-23-8-33-69zM1637 1603c-4-3 6-12 23-19 26-11 43-44 23-44-5 0-21-11-37-25s-32-25-35-25-15 13-26 30c-19 28-20 28-27 9-5-12-17-23-28-26-26-7-26-23 0-23 11 0 20-4 20-10 0-5 8-10 18-10 15-1 15-2-2-15-19-14-18-15 16-15 20 0 40 5 43 10 3 6 17 10 31 10 13 0 24 5 24 10 0 6 10 10 23 10 12 0 32 7 44 15 16 11 36 14 77 9 64-6 86 1 59 22-17 13-17 13 0 14 24 0 14 15-22 33-38 19-81 11-81-14 0-11-7-19-16-19-10 0-14 7-12 22 2 16-2 23-15 23-10 0-21 5-25 11s-14 11-22 11-22 4-31 7c-8 4-18 3-22-1zM1477 1472c-11-2-16-9-13-18 3-8-1-14-9-14-9 0-15-10-15-22-1-21-2-21-11-5-13 23-29 22-29-3 0-20-17-26-62-22-10 1-18-5-18-14 0-8-5-12-10-9-6 3-17-1-26-9-8-9-24-16-35-16-16 0-103-35-119-47-7-7 24-23 44-23 10 0 24-6 30-14 9-13 25-8 101 29 50 24 100 44 112 44 12 1 26 7 30 14 4 8 27 22 51 32 27 12 42 25 42 37 0 11-5 15-15 12-11-5-15 1-15 19 0 29-7 35-33 29zM2851 1353c-6-27-13-57-15-68s-9-39-15-62c-17-62-19-185-3-190 7-3 12 5 12 23 0 51 22 155 36 169 8 8 14 18 13 22-4 21 2 33 17 33 13 0 15 8 9 43-10 63-15 77-30 77-7 0-18-20-24-47zM850 1102c0-6 7-12 15-16 8-3 14-13 12-23-1-10 3-18 8-18 6 0 9 6 9 13-3 21 46 13 74-13 24-23 27-23 34-7 11 28 10 31-24 48-37 19-128 30-128 16z"/>
    </g>
    <g fill="#9D9683" style="transform:none">
        <path d="M2605 2829c-128-28-145-40-109-76 13-14 28-14 115-4 140 16 149 15 149-10 0-31 56-49 155-49h85v55c0 54 0 55-29 55-17 0-33-4-36-10-3-5-31-8-63-5-31 3-93 8-137 11-76 6-78 7-50 19 26 12 27 13 8 14-12 1-27 3-35 5-7 2-31 0-53-5zM2409 2786c-3-3-28-8-57-11-28-3-70-12-93-20s-45-13-49-10c-5 3-19 1-32-4-12-6-17-10-10-10 17-1 15-21-3-21-8 0-15-7-15-15 0-24 79-16 213 22 52 15 57 19 57 45 0 28-2 32-11 24zM1945 2691c-11-5-25-6-31-4-17 6-79-31-82-50-3-14 1-16 22-7 34 12 33 3-1-26l-28-24h42c47 0 87 13 109 34 16 17 19 46 4 46-14 0-12 27 3 33 8 4 7 5-3 6-8 0-24-4-35-8zM2123 2663c-7-2-13-13-13-24 0-10-4-19-10-19-5 0-10-9-10-21s5-19 13-16c6 2 26 0 42-5 17-5 55-12 85-15 36-3 63-12 78-26 12-11 22-16 22-10s17 10 40 10c22-1 40-5 40-9 0-5 9-8 19-8s21-7 25-15c6-17 36-21 36-5 0 6 6 10 13 9 44-5 87 2 87 16 0 8 7 15 15 15 16 0 19 27 8 80l-6 33-113-7c-63-4-132-13-155-21-59-21-72-19-91 15-15 27-22 30-65 29-26 0-54-3-60-6zM2011 2546c-6-8-20-12-29-9-10 2-31-1-47-8-17-7-33-13-37-13-14-2-19-16-13-36 7-21 11-22 93-18 53 3 87 9 90 16 2 7 12 12 23 12 10 0 19 4 19 9s-8 8-17 7c-10 0-17 5-15 12 1 6-3 12-10 12-6 0-19 7-28 15-15 13-19 14-29 1zM2220 2513c0-7-10-13-21-13-19 0-21-4-14-37 4-21 8-40 10-42s43 0 90 4c81 6 85 8 85 30 0 28-19 43-31 24-6-11-9-10-15 4-3 9-10 15-14 12-5-3-11 3-15 14-4 14-14 19-40 18-22-1-35-6-35-14zM2637 2449c5-18 3-20-16-14-17 5-21 2-21-18 0-19 8-26 38-35 42-13 102-63 102-86 0-12 10-16 35-16 28 0 35 4 35 20 0 11 7 20 15 20s15 6 15 14c0 17 91 70 99 58 3-5 18-12 34-16 27-6 27-6 27 40 0 40-2 45-15 34-10-9-15-9-15-1 0 15-37 14-43-1-4-10-8-9-16 2s-11 12-11 2-10-12-37-7c-66 12-97 12-121 2-18-8-25-8-32 3s-11 11-24 1c-13-11-17-11-22 3-9 25-33 20-27-5zM2460 2316c0-8 11-17 25-20 14-4 25-11 25-16 0-6 6-10 14-10s16-5 18-11c3-9 10-9 26 0 18 10 22 9 22-3 0-10 6-13 15-10 18 7 20 55 3 72-18 18-148 16-148-2zM2825 2093c9-99 28-143 62-143 22 0 24 3 19 26-6 21-4 25 8 21 13-5 16 2 16 33 0 23-5 40-11 40s-9 7-5 15c3 8 1 15-4 15-6 0-10 6-10 13-1 22-38 57-60 57s-22-2-15-77zM1397 1995c-37-32-68-105-46-105 5 0 9-7 9-15 0-11 12-15 53-15 83 0 97 7 97 46 0 28 4 33 28 36s27 8 30 41l3 39-55-4c-31-2-56-1-56 4 0 17-27 6-63-27zM500 1983c1-5 14-19 30-33 33-27 38-40 15-40-22 0-18-33 5-53 25-21 27-21 33 3 6 22 39 38 94 43 32 4 38 8 38 28 0 19-6 24-27 26-19 1-28-3-28-13 0-8-6-14-12-14-7 0-23-3-35-6-16-4-23 0-28 16-5 15-12 19-27 15-14-5-21-1-25 14-5 19-34 31-33 14zM255 1940c-3-5-14-10-24-10s-23-11-29-24c-9-20-8-25 5-30 8-4 22-1 31 6 12 10 16 10 19 1 5-15 33-18 33-4 0 5 9 7 20 4 16-4 20 0 20 19 0 13-5 29-12 36-15 15-54 16-63 2z"/>
    </g>
    <g fill="#999D9A" style="transform:none">
        <path d="m2868 2697-68-9v-96l75-11c131-19 125-22 125 59v70l-32-1c-18-1-63-6-100-12zM1780 2561c0-5-15-12-34-15-25-5-35-13-38-30-4-21-2-23 24-19 19 3 28 0 28-10 0-13-98-47-138-47-10 0-44-9-76-20-56-20-80-20-60 0 5 5 22 11 37 14 16 3 34 9 40 15 7 5 23 11 37 14 24 4 24 4-3 6-15 0-44-6-64-14-19-8-57-15-83-15-33 0-50-5-54-15-3-8-16-16-28-17-13 0-3-4 22-8 35-5 41-8 25-14-11-4-28-12-37-17-10-5-34-9-53-9s-35-4-35-10c0-5-9-10-20-10-26 0-77-26-83-42-4-11-6-11-6 0-1 9-7 9-24-3-13-8-26-12-30-9-3 4-22-3-42-15-20-11-44-21-54-21s-21-3-25-7c-8-9-14-10-52-12-20-1-25-5-22-23 2-12 14-28 28-35 29-15 140-17 140-3 0 5 18 14 39 20 41 11 51 24 51 67 0 20 3 24 18 17 41-18 91-15 164 10 41 14 93 26 115 26s53 7 69 14c15 8 63 18 106 22 54 4 78 11 78 20 0 20 38 28 116 25 40-1 74 1 77 6 2 4 8 30 12 57 6 41 4 48-9 43-8-3-16-1-19 6-2 6-21 10-46 9-40-3-42-2-31 18 6 11 16 20 23 20s6 4-3 10c-19 12-80 13-80 1zM2340 2476c0-9-7-16-15-16s-15-4-15-10c0-5 5-10 10-10 6 0 10-7 10-15 0-12 15-15 79-15 92 0 111 5 111 30 0 18-20 24-105 34-16 1-40 6-52 10-17 6-23 3-23-8zM1803 2200c-13-5-23-16-23-25 0-8-7-15-15-15-9 0-15-9-15-25 0-14 5-25 10-25 6 0 10 5 10 11 0 7 5 8 13 2 17-13 67-16 67-5 0 6 15 15 33 22 17 7 26 14 20 17-18 7-16 23 2 23 8 0 15 7 15 15 0 11-12 15-47 14-27 0-58-4-70-9zM730 2163c-42-7-160-54-160-64 0-5-7-9-15-9s-15-4-15-10c0-5 10-10 23-10 12 0 46-3 75-6 43-6 52-4 52 8 0 9 10 18 23 21 12 2 30 8 39 12 15 6 16 2 11-28-3-23 1-49 13-76 16-37 21-41 55-41 21 0 41 4 44 10 3 5 9 41 12 79l6 70-37 6c-20 4-47 5-61 3-21-4-25-1-25 18 0 13-3 23-7 23-5-1-19-4-33-6zM2750 2154c0-11 45-89 53-92 4-2 7-9 7-16s8-21 19-30c17-15 19-15 25-1 11 29 6 81-10 113-13 28-21 32-55 32-21 0-39-3-39-6zM1543 2084c-17-7-17-24 0-24 7 0 13-9 13-20 0-14-7-20-24-20-21 0-22-1-8-16 20-20 10-40-11-22-12 10-17 9-25-5-5-10-13-15-19-12-5 4-9-1-9-11 0-14-3-14-15-4-9 7-18 10-21 7-9-9 22-37 40-37 28 0 17-18-15-25-24-6-34-3-41 9-14 25-48-2-49-39-1-27-2-27-7-7-6 20-9 21-25 10-13-9-18-29-20-68-1-35-7-59-17-67-13-11-12-12 8-13 12 0 22-5 22-11s12-1 28 11c15 12 42 31 61 43 19 11 30 22 24 24s3 18 18 34c16 17 29 40 29 50 0 13 7 19 24 19 20 0 68 28 86 50 3 4 20 15 38 26 35 20 46 44 40 90-3 28-5 29-58 31-30 1-61-1-67-3zM2875 1957c-4-13-4-49-1-80 3-35 1-68-8-87-14-35-10-90 8-90 7 0 20 26 29 58 16 55 16 88 2 125-6 13-3 16 10 11 14-6 16-3 12 12-3 10-9 31-13 47-8 33-31 36-39 4zM1430 1753c-39-14-109-113-80-113 11 0 120 104 120 115 0 6-19 5-40-2z"/>
    </g>
    <g fill="#ACA696" style="transform:none">
        <path d="M2431 2790c-18-4-36-13-40-18-3-6-19-14-34-17-30-8-36-29-11-39 24-9 82-7 88 3 3 5 33 12 66 16 51 6 60 10 60 27 0 10-5 16-10 13-6-3-17 1-26 9-17 17-39 19-93 6zM1834 2656c-15-8-18-14-10-22 13-12 37-7 48 10 19 27 0 33-38 12zM2060 2650c-8-5-30-10-47-10-28 0-33-3-33-25 0-14 3-24 8-23 4 1 22-2 40-6 19-4 54-5 78-1 37 5 44 9 39 24-3 12 0 21 10 25 8 3 15 10 15 16 0 13-90 13-110 0zM2228 2633c-14-4-15-8-6-29 6-13 18-24 25-24 8 0 11-4 8-10-3-5 0-10 9-10 8 0 21-3 30-6 10-4 16-1 16 9 0 8 9 17 20 20 23 6 27 37 5 37-8 0-15 5-15 10 0 10-59 12-92 3zM2855 2560c-3-5-20-10-36-10-26 0-30-4-27-22 3-19 9-22 58-22 139 0 150 2 150 28 0 19-6 24-37 30-56 9-101 7-108-4zM2038 2509c-2-6-29-12-60-13-65-2-70-5-70-41 0-14-4-28-9-31-20-12-7-24 25-24 19 0 38-4 41-10 8-13 71-13 95 0 21 11 78-9 100-34 17-21 61-20 104 2 29 14 36 23 36 48 0 35-18 49-58 45-20-2-23 1-17 18 5 16 1 22-19 27-14 3-26 10-26 16 0 5-5 6-10 3-6-4-8-15-5-26 8-23-10-26-19-3-3 8-10 13-15 9-5-3-12-1-16 4-3 6-12 8-19 5-8-3-17-1-21 5-8 14-32 14-37 0zM1515 2478c-22-4-56-11-75-15-32-6-110-49-110-61 0-9 141 7 154 17 6 5 24 12 40 15 15 3 33 9 39 15 7 5 23 11 37 13 23 3 22 4-10 13-21 7-51 8-75 3zM1658 2446c-27-7-38-15-38-28 0-15 5-18 23-13 12 4 27 13 32 20 6 7 19 14 30 17 15 3 16 5 5 9-8 3-32 1-52-5zM2622 2375l3-55h-37c-29 0-38-4-38-17 0-9 3-13 7-10 10 11 33-13 33-35 0-11 5-16 11-13 5 4 19-1 29-10 25-22 63-25 72-5 5 12 8 11 13-7 4-13 13-19 20-16 8 2 22-5 32-17s24-28 31-35c6-8 12-25 12-39 0-23 4-26 36-26s34 1 20 16c-21 20-21 41-1 24 26-21 29-3 5 29-12 17-17 31-11 31 21 0 11 27-19 53-16 15-30 36-30 47 0 14-7 20-21 20-11 0-18 4-14 9 9 16-64 79-112 95l-45 15 4-54zM1900 2331c0-11-4-23-10-26-5-3-10-24-10-46v-39l43 1c23 0 65 8 92 18 46 16 50 20 53 54s1 36-35 46c-21 6-59 11-85 11-41 0-48-3-48-19zM1173 2304c-31-16-38-32-19-45 5-4-1-15-12-25-16-13-18-20-9-26 20-13 77-9 77 5 0 6 14 20 30 29 38 22 38 43 0 63-35 18-28 18-67-1zM750 2105c-7-8-21-15-31-15s-21-4-24-10c-3-5-14-10-24-10-12 0-20-9-24-26-4-22-2-25 18-20 15 4 28-1 41-16 19-21 19-21-11-14-24 6-28 5-17-5 17-18 15-40-3-33-23 9-18-15 8-36 14-12 26-15 33-9 7 5 16 9 20 7 20-5 80 16 97 33 21 23 23 51 2 43-13-5-21 7-12 20 1 2-5 12-14 22-18 20-10 64 11 64 5 0 10 5 10 10 0 16-66 12-80-5zM1627 2075c-4-8-2-17 3-20 14-9 12-21-6-39-14-15-14-16 5-16 17 0 21-6 21-32l1-33 24 27c13 15 30 26 37 23s18 6 25 21c16 35-2 64-39 64-16 0-28 5-28 10 0 16-37 12-43-5zM1090 1944c0-17-17-19-22-3-3 9-10 9-27 0-16-9-26-9-35-2-10 8-17 7-25-3-7-8-30-17-52-21-21-4-39-11-39-17 0-7 45-9 130-6 105 3 133 7 147 21 20 20 10 35-12 17-8-7-15-9-15-4s-11 14-25 21c-20 9-25 8-25-3zM384 1492c4-7 20-12 37-12 16 0 29-5 29-12 0-9 3-9 8-3 4 7 38 9 90 5 46-3 86-2 88 1s-45 9-104 13c-59 3-118 9-131 13-17 4-22 3-17-5z"/>
    </g>
    <g fill="#A1ADB6" style="transform:none">
        <path d="M895 2219c-128-42-194-82-173-106 11-14 78-18 78-5 0 9 80 32 115 32 13 0 27 5 30 10 3 6 19 10 36 10 22 0 29 5 29 20 0 11-6 20-14 20-7 0-19 7-26 15-14 17-31 18-75 4zM1703 2176c-7-13-20-13-80-4-59 9-78 9-98-2-30-16-37-65-7-56 47 13 84 15 162 7 47-4 87-4 88 1 2 4 12 8 22 8s20 9 23 20c4 15 0 20-14 20-10 0-19 5-19 10 0 16-68 12-77-4zM1560 1973c0-5-18-20-40-33-22-14-40-28-40-32 0-5-6-8-12-8-17-1-66-72-60-88 11-35 96-1 160 64 25 27 29 75 7 94-8 7-15 8-15 3zM2851 1686c-8-32-8-53-1-72 6-15 8-34 6-41-7-18 22-29 36-15 8 8 8 23-2 53-10 31-11 45-3 59 14 21 6 60-12 60-7 0-18-20-24-44zM1191 1650c-24-21-56-44-70-52-14-7-61-37-105-65-44-29-86-53-93-53s-13-4-13-10c0-5 4-10 9-10 17 0 86 35 131 66 25 18 66 42 93 54 26 12 47 26 47 30 0 5 16 18 35 30 37 23 43 35 22 43-7 2-32-13-56-33zM1223 1600c-22-17-60-40-84-52-46-25-60-45-32-45 23 0 134 65 151 89 7 10 20 18 28 18s14 5 14 10c0 19-35 9-77-20zM2885 1520c-3-5-3-15 0-20 3-6-1-17-9-26-10-9-16-33-16-58 0-83 20-134 34-88 11 35 17 202 7 202-5 0-13-4-16-10zM1515 1423c-11-3-38-13-60-23-22-9-47-20-55-22-8-3 6-8 31-12 38-6 53-3 92 20 64 35 60 54-8 37zM1655 931c-3-2 0-10 6-18 12-14 100-17 134-4 16 7 13 9-20 15-53 9-115 13-120 7z"/>
    </g>
    <g fill="#B8B4A6" style="transform:none">
        <path d="M2738 2793c-32-2-58-8-58-13 0-6-18-10-41-10s-57-7-76-17c-32-15-35-19-31-55 3-34 1-38-19-38-14 0-23-6-23-15 0-8-4-15-10-15-5 0-10-4-10-9 0-6 24-7 57-4 41 5 54 3 49-5-4-7-23-12-42-12s-34-4-34-9 18-7 39-5c22 3 42 0 46-6 3-5-2-10-13-10s-26-7-33-16c-11-14-10-18 6-30 10-8 25-14 32-14s13-8 13-17c0-10 3-14 8-8 7 10 46 18 95 19 23 1 27 5 27 29 0 22 4 27 26 27 14 0 56 5 95 11 79 14 93 35 29 45-30 5-40 11-40 25 0 11 7 19 16 19 10 0 14 6 10 15-3 9 0 15 9 15 31 0 13 27-25 39-60 18-63 35-4 29 27-3 43-3 37-1-7 3-13 13-13 24 0 20 6 20-122 12zM2350 2725c-121-22-180-43-180-65 0-11 6-20 14-20s22-10 30-21c12-17 21-20 45-16 19 4 31 2 35-6 3-8 7-9 13-2 14 18 57 33 106 39 27 3 53 8 58 12 5 3 9 25 9 50 0 43-1 44-32 43-18-1-62-7-98-14zM1967 2699c-12-7-16-17-11-31 4-14 2-18-5-14-6 4-11 2-11-5 0-6-8-18-17-25-16-12-11-13 34-14 48 0 53 2 67 31l16 32-35-6c-27-4-35-2-35 9 0 8 6 14 13 13 6-1 19 1 27 4s24 8 35 10c11 3 2 5-20 6-22 0-48-4-58-10zM1909 2463c-1-4-2-15-3-23-1-18-45-22-98-8-29 7-43 5-62-8-14-8-31-12-37-8-9 5-10 1-6-15 4-17 2-21-9-17-17 6-18 1-4-25 6-10 21-19 33-20 12 0 16-3 10-6-14-5-18-81-5-99 4-6 53-14 110-18 89-6 102-5 102 9 0 9 7 18 15 21 8 4 12 10 9 15-2 5-14 3-24-3-25-16-40 0-17 17 11 8 15 19 10 31-6 16-5 17 9 6 13-10 17-10 20 0 4 11 8 10 21 0 9-8 20-11 25-9 4 3 14 2 22-3 12-7 10-11-8-17-21-8-21-9-4-24 10-9 29-14 43-13 42 6 113 27 144 42 17 8 38 19 48 24s51 8 92 7c62-1 75-5 75-18 0-12 2-13 9-3 4 8 18 11 32 8 13-3 53-8 89-11 71-6 130-24 130-38 0-5 7-7 15-3 8 3 15 0 15-7s7-24 14-39c8-16 11-28 6-28s1-11 14-25 31-25 40-25 19-7 22-15c5-12 8-12 20 0 27 26 17 59-36 113-8 8-20 29-26 46-7 17-17 30-23 29-6-2-11 3-11 10s-18 20-40 30c-37 16-54 37-30 37 20 0-15 41-50 58-37 18-72 19-187 7-52-6-63-4-63 8s-10 14-46 11c-26-3-56-10-67-16l-21-11 22-17 21-18-22-7c-12-4-25-7-29-6-5 1-8-4-8-11 0-6-10-2-22 9-13 11-33 24-45 28-13 3-23 13-23 21s-4 14-10 14c-5 0-10-4-10-9 0-4-10-8-22-7-13 1-33-5-46-12-17-11-25-12-36-3-8 7-29 13-46 13-21 1-29 5-26 14 3 7 1 16-4 19-6 4-11 3-11-2zM837 2113c-12-11-8-23 8-23 8 0 15-9 15-20s-7-20-15-20c-24 0 5-40 30-41 11-1-2-6-30-13-40-9-50-15-50-31 0-13-8-21-22-23-13-2-23-8-23-13 0-12 1-12 92 13 67 18 79 24 75 40-4 14 1 18 24 18 22 0 29 5 29 20 0 13 7 20 20 20 17 0 20 7 20 40v40h-83c-46 0-87-3-90-7z"/>
    </g>
    <g fill="#C3C2B3" style="transform:none">
        <path d="M2941 2874c-12-9-36-18-54-21-47-7-46-13 1-13 41 0 61-19 22-21-11-1-23-2-27-3-5-1-27-6-50-10-58-11-54-29 9-46 62-15 104-16 123 0 8 7 19 9 25 5s10 16 10 59c0 37-4 66-10 66-5 0-10-6-10-12 0-10-2-10-8-1-6 10-13 9-31-3zM2510 2769c-58-9-107-17-110-19-3-1-21-3-40-4-48-3-181-32-260-56-36-11-75-20-86-20-12 0-24-6-27-12-2-7-32-22-66-32-66-21-75-34-36-53 20-9 31-8 55 3 16 9 39 16 50 17s20 5 20 10c0 4 4 6 9 3 4-3 23-1 42 5 19 5 45 12 59 14s45 10 69 19c25 8 48 13 53 10 4-3 8-1 8 4 0 8 44 20 153 41 44 8 48 7 44-9-4-15 5-19 64-24 56-6 72-4 85 8 9 9 33 16 57 16 23 0 49 5 57 11 14 9-39 6-112-7-30-6-46 10-20 22 9 4 20 8 24 8 3 1 10 4 14 8s13 3 21-3c15-13 73 6 73 23 0 5 9 6 20 3 11-4 20-2 20 4s7 11 16 11c8 0 12 5 9 11-9 14-133 8-265-12zM1655 2536c-33-11-62-23-65-26s-17-11-32-19c-29-15-38-41-15-41 11 0 142 34 172 44 6 2 20 7 33 11 30 10 28 28-5 41-22 8-42 5-88-10zM2400 2425c0-9-6-12-15-9-8 4-15 2-15-4s4-12 10-14c5-1 0-14-11-28-17-21-19-22-17-5 3 19-1 20-59 16-11-1-14-4-8-9 6-4 10-16 10-27 0-17 8-21 53-25 30-3 55-3 58 1 2 3 17 9 34 12 39 8 41 45 5 82-29 28-45 32-45 10zM1703 2404c4-17-1-21-22-22-78-1-107-6-140-20-20-9-52-15-72-14s-64-10-99-24c-34-14-77-26-94-28-35-3-96-36-96-51 0-10-8-12-62-17-26-2-58-33-58-56 0-8 11-25 26-38 52-49 132-15 135 57 1 24 3 27 6 12 4-19 11-23 39-23 20 0 42 8 53 19 15 15 28 18 60 14 67-9 89 2 113 57 21 49 38 64 38 36 0-30 143-63 152-35 3 8 10 6 20-5 9-9 26-16 37-16 18 0 20 4 15 25-6 25 10 36 19 13 3-7 6-1 6 14 1 15 6 30 11 33 18 11 11 23-17 31-16 4-32 8-36 8-5 1-15 12-23 26-13 21-15 22-11 4zM659 2105c0-11-3-15-5-9-7 17-110-3-158-31-22-13-44-24-48-24-5-1-14-1-21-1-8 0-24-9-37-20s-27-20-33-20c-14 0-107-62-107-72 0-4 6-8 14-8s21-9 29-20c11-16 21-19 48-14 19 4 39 11 45 15 6 5 14 6 17 2 4-3 9 2 13 11 4 11 13 15 25 11 13-5 19-1 19 10 0 12 6 15 20 10 15-5 20-2 20 10 0 11 5 15 15 11 9-3 15 1 15 11 0 13 3 13 15 3 13-10 15-9 15 10 0 20 4 22 30 17 17-4 30-2 30 3 0 6 11 10 24 10 14 0 28 5 31 11 4 6 13 8 21 5 9-3 14 2 14 14 0 11-3 20-8 20-4 0-15 12-24 28-15 23-18 24-19 7z"/>
    </g>
    <g fill="#B7BDC4" style="transform:none">
        <path d="M1695 2275c-5-2-22-6-37-9-25-6-28-11-28-46 0-33 3-40 20-40 11 0 20-4 20-9 0-4 29-11 64-15 47-5 71-2 92 9 16 8 44 15 62 15 17 0 32 4 32 8 0 5 18 17 40 28 22 10 40 25 40 32 0 15-39 16-75 2-20-8-35-6-65 10-46 24-50 24-50 7s-42-16-53 1c-7 11-39 15-62 7zM2809 2176c10-11 9-16-4-24-15-8-15-12 5-46 12-22 18-46 15-57-4-11-2-25 3-32 15-18 55-155 48-166-9-14 18-20 31-6 7 8 8 17 2 26-5 8-7 35-3 62 4 31 2 47-5 47-6 0-11 7-11 16 0 8-4 13-9 9-15-8-24 14-12 29 7 9 7 16-2 25s-9 14 3 21 11 12-8 28c-12 11-22 31-22 45 0 13-7 28-16 31-24 9-28 7-15-8zM953 2137c-24-8-33-17-33-34 0-20 4-22 30-16 19 3 30 1 30-6 0-6-9-11-20-11-13 0-20-7-20-20 0-20-11-26-24-13-4 4-24 8-46 9-36 2-38 1-27-18 10-16 9-22-5-32-30-22-20-27 50-24 58 3 68 6 77 26 8 17 18 22 48 22 46 0 67 18 67 57-1 62-49 85-127 60zM1195 2053c-92-7-105-12-105-38 0-22 4-24 30-22 17 2 33 7 37 10 3 4 29 7 56 7 62 0 127 19 127 37 0 13-43 15-145 6zM1624 2015c-16-14-32-25-35-25s-16-9-29-20c-19-16-21-22-10-35 7-9 8-15 2-15-5 0-12-7-16-15-4-12 3-15 29-15 46 0 111 56 118 103 4 28-5 46-24 47-3 0-19-11-35-25zM1379 1807c-24-24-60-54-79-67s-47-35-62-48c-72-66 8-51 97 18 35 27 81 59 102 70 84 45 111 82 43 58-26-9-35-9-38 0-6 20-17 14-63-31zM1760 1527c-14-6-28-16-32-22-5-6-11-6-16 3-12 18-62 5-62-17 0-13-2-13-9-2s-16 8-42-17c-19-18-46-37-61-43-16-6-28-15-28-20 0-14 38-11 63 5 12 7 45 19 72 26 51 13 155 74 155 91 0 11-9 11-40-4zM1822 1508c5-16 43-22 66-12 14 6 13 8-8 14-39 12-62 11-58-2z"/>
    </g>
    <g fill="#CCCBBF" style="transform:none">
        <path d="M2815 2711c-5-9-135-14-283-11-57 1-77-2-85-14-7-9-34-18-62-22-79-9-125-36-102-59 21-20 46-25 75-14 15 6 52 13 82 16s63 9 72 14c20 11 169 27 207 22 14-1 66 4 114 13 49 8 97 12 108 9 12-4 19-2 19 6 0 10 3 10 12 1 19-19 28-14 28 18v30h-89c-50 0-92-4-96-9zM1820 2591c-25-11-64-24-87-30-37-10-43-15-43-39 0-15 4-22 8-17 4 6 29 11 57 12 27 1 51 6 53 12s8 9 13 5c5-3 15-2 22 3 6 4 28 13 47 18 25 8 35 16 35 30 0 27-46 29-105 6zM2785 2601c-11-5-31-7-45-6s-38-5-55-13c-16-9-34-15-40-13-17 5-75-10-75-19 0-5 17-12 38-15 20-4 53-12 72-18 40-13 130-16 137-4 2 4 17 7 33 7s32 5 35 10c6 10 50 7 98-7 14-3 17 2 17 29 0 18-4 38-8 43-8 13-178 17-207 6zM2483 2383c-23-8-14-40 12-47 14-4 25-11 25-17s8-8 19-4c12 3 21 0 25-10 7-19 46-20 46-1 0 8 3 22 6 31 5 11 2 16-7 15-27-4-38 0-42 18-4 16-5 16-6-1-1-23-41-20-56 4-5 9-16 14-22 12zM1515 2349c-3-4-11-6-18-3-8 3-21-14-35-45-24-55-58-76-75-46-7 13-11 14-17 5s-13-9-28-1c-25 14-45 14-37 1 3-5-3-18-15-30-24-24-34-26-27-5 8 18-7 27-50 32-24 2-33 0-33-11 0-10-6-13-15-10-23 9-18-12 8-30 21-15 21-16 4-30-17-13-15-14 20-20 21-3 76-8 123-12 47-3 91-11 97-16 8-6 35-8 68-3 49 6 55 9 55 30 0 19 7 24 43 29 111 17 117 18 117 33 0 13-3 13-15 3-15-12-35-7-22 6 10 11 77 22 77 13 0-4 7-6 15-3 13 5 13 10-2 35-10 17-28 32-40 35-13 4-23 12-23 20 0 24-29 15-36-11-3-14-8-25-10-25-18 0-84 35-84 45 0 15-38 27-45 14zM770 2144c0-12-3-14-13-6-8 7-19 6-37-3-14-8-33-14-42-15-10 0-18-8-18-17 0-15-2-16-10-3-8 12-10 12-10-5 1-28 20-51 51-58 19-5 29-3 33 8 3 8 13 15 23 15 25 1 81 48 67 58-6 4-13 15-17 25-8 22-27 22-27 1z"/>
    </g>
    <g fill="#CDD1D2" style="transform:none">
        <path d="M2404 2414c4-14 14-33 22-41 8-9 13-22 10-29-4-10 3-12 27-7 42 7 46 13 40 46-3 17-12 27-23 27-10 0-20 4-22 8-1 5-16 12-32 16-27 7-28 6-22-20zM2210 2376c0-9-4-17-10-17-5-1-16-2-22-3-7-1-12-7-11-13 2-7-10-11-28-11-16 1-35-6-42-14-13-17-132-59-141-50-3 3-6-5-6-17 0-24-2-24 98-9 6 1 12 5 12 10 0 4 8 8 17 8s25 7 35 17c11 10 38 17 71 18 29 1 58 5 65 9 17 10 15 46-3 46-8 0-15 6-15 14s-4 18-10 21c-5 3-10-1-10-9zM1440 2255c0-2 16-21 35-41 19-19 35-39 35-44 0-13-57-17-74-4-10 6-33 10-51 9-19-2-35 1-35 6 0 6-4 8-9 4-5-3-12-1-15 4-4 6-20 5-43-1-24-7-43-6-58 0-19 9-28 6-53-19l-30-30-26 24c-14 14-26 29-26 36 0 6-4 11-10 11-5 0-10-3-10-7 0-5-29-8-64-9s-72-5-83-9c-10-4-29-9-43-10s-37-7-52-13-35-9-43-6c-9 4-15 1-15-7s-3-24-6-36c-6-21-3-23 37-22 24 0 65-1 92-4 26-2 50-1 53 2s19 10 37 16c27 9 34 7 48-9s14-22 3-33c-15-15-64-18-64-3 0 6-7 10-15 10-9 0-15-9-15-24 0-24-21-49-36-44-5 1-28-1-51-5-45-7-56-21-25-29 50-14 283 13 290 33 2 5 10 9 18 9 10 0 14 13 14 44v43l91 7c93 7 119 0 119-30 0-10 13-14 41-14 35 0 48 6 82 40 22 23 46 39 52 36 7-2 16-1 21 4s29 5 54 0c56-11 130-13 129-2-3 18 2 26 9 16 4-6 19-14 35-18 21-5 27-3 27 10 0 9 9 18 20 21s20 12 20 19c0 16-33 18-61 4-15-8-19-7-19 5 0 8-4 15-10 15-5 0-10-4-10-10 0-5-11-10-25-10-16 0-25 6-25 16 0 11-6 14-20 9-11-4-20-2-20 4 0 14-45 14-69 2-13-7-24-4-44 15-19 17-38 24-67 24-22 0-40-2-40-5z"/>
    </g>
    <g style="transform:none" fill="#D4DFE7">
        <path d="M1930 2254c-14-7-35-11-47-7-18 4-22 2-18-10 4-10-6-19-34-31-23-9-41-21-41-27 0-18 76-4 100 19 12 11 42 25 67 31 27 7 43 16 40 24-5 16-36 16-67 1zM1583 2221c-17-9-34-23-36-32s-17-19-33-23-40-20-54-36c-24-27-80-54-66-31 4 5-3 20-15 32-15 15-29 20-52 16-18-2-42-1-54 4-15 5-25 3-33-6s-31-14-67-14c-64 1-84-12-65-42 17-26 13-29-44-40-27-5-50-13-53-18-4-4-19-13-36-19-26-9-23-10 25-5 30 3 64 4 75 3 31-3 44-2 140 9 50 6 112 13 140 16 39 4 68 18 142 68 51 34 96 69 98 78 6 18 34 21 52 7 19-15 53 1 53 24 0 17-2 19-16 7-10-8-18-9-22-2-12 19-46 20-79 4zM1650 1970c0-10-71-50-89-50-15 0-61-49-61-65 0-8-7-15-15-15s-15-4-15-10c0-15 28-12 58 7 85 54 168 143 132 143-5 0-10-4-10-10zM1820 1144c-12-14-12-18 5-30 22-16 34-17 55-4 12 7 12 13 4 27-15 24-48 28-64 7z"/>
    </g>
</svg>
